<svg width="60" height="65" viewBox="0 0 60 65" fill="none" xmlns="http://www.w3.org/2000/svg">
<path d="M11.4025 30.9766C10.155 30.9766 9.09375 30.5013 8.21875 29.5506C7.34375 28.6005 6.90625 27.4494 6.90625 26.0975C6.90625 24.7461 7.345 23.5964 8.2225 22.6485C9.09958 21.7005 10.1621 21.2266 11.41 21.2266C12.6575 21.2266 13.7188 21.7019 14.5938 22.6525C15.4688 23.6027 15.9063 24.7537 15.9063 26.1056C15.9063 27.4571 15.4675 28.6068 14.59 29.5547C13.7129 30.5026 12.6504 30.9766 11.4025 30.9766ZM22.5588 20.2448C21.3113 20.2448 20.25 19.7695 19.375 18.8189C18.5 17.8687 18.0625 16.7177 18.0625 15.3657C18.0625 14.0143 18.5013 12.8646 19.3788 11.9167C20.2558 10.9688 21.3183 10.4948 22.5663 10.4948C23.8138 10.4948 24.875 10.9701 25.75 11.9207C26.625 12.8709 27.0625 14.022 27.0625 15.3739C27.0625 16.7253 26.6238 17.875 25.7463 18.8229C24.8692 19.7709 23.8067 20.2448 22.5588 20.2448ZM37.465 20.2448C36.2175 20.2448 35.1563 19.7695 34.2813 18.8189C33.4063 17.8687 32.9688 16.7177 32.9688 15.3657C32.9688 14.0143 33.4075 12.8646 34.285 11.9167C35.1621 10.9688 36.2246 10.4948 37.4725 10.4948C38.72 10.4948 39.7813 10.9701 40.6563 11.9207C41.5313 12.8709 41.9688 14.022 41.9688 15.3739C41.9688 16.7253 41.53 17.875 40.6525 18.8229C39.7754 19.7709 38.7129 20.2448 37.465 20.2448ZM48.6213 30.9766C47.3738 30.9766 46.3125 30.5013 45.4375 29.5506C44.5625 28.6005 44.125 27.4494 44.125 26.0975C44.125 24.7461 44.5638 23.5964 45.4413 22.6485C46.3183 21.7005 47.3808 21.2266 48.6288 21.2266C49.8763 21.2266 50.9375 21.7019 51.8125 22.6525C52.6875 23.6027 53.125 24.7537 53.125 26.1056C53.125 27.4571 52.6863 28.6068 51.8088 29.5547C50.9317 30.5026 49.8692 30.9766 48.6213 30.9766ZM16.7569 57.8906C15.3148 57.8906 14.1354 57.3 13.2188 56.1187C12.3021 54.9374 11.8438 53.542 11.8438 51.9323C11.8438 49.7882 12.5469 47.9657 13.9531 46.4649C15.3594 44.964 16.7177 43.4356 18.0281 41.8797C19.2177 40.4546 20.2656 38.9357 21.1719 37.3229C22.0781 35.7101 23.1042 34.1814 24.25 32.737C25.0208 31.8117 25.8858 31.0048 26.845 30.3164C27.8042 29.6281 28.8571 29.2839 30.0038 29.2839C31.1808 29.2839 32.2713 29.6224 33.275 30.2995C34.2792 30.9766 35.1563 31.8004 35.9063 32.7709C37.0729 34.1927 38.0885 35.7105 38.9531 37.3242C39.8177 38.938 40.8344 40.4567 42.0031 41.8803C43.3135 43.4584 44.6719 44.9922 46.0781 46.4818C47.4844 47.9714 48.1875 49.7882 48.1875 51.9323C48.1875 53.542 47.7317 54.9374 46.82 56.1187C45.9083 57.3 44.7296 57.8906 43.2838 57.8906C41.0492 57.8906 38.8398 57.6875 36.6556 57.2813C34.4715 56.875 32.2667 56.6719 30.0413 56.6719C27.7933 56.6719 25.5748 56.875 23.3856 57.2813C21.1969 57.6875 18.9873 57.8906 16.7569 57.8906Z" fill="#8EA716"/>
</svg>
