<svg width="56" height="56" viewBox="0 0 56 56" fill="none" xmlns="http://www.w3.org/2000/svg">
<path d="M28 17.5C25.9233 17.5 23.8932 18.1158 22.1665 19.2696C20.4398 20.4233 19.094 22.0632 18.2993 23.9818C17.5045 25.9004 17.2966 28.0116 17.7018 30.0484C18.1069 32.0852 19.1069 33.9562 20.5754 35.4246C22.0438 36.8931 23.9148 37.8931 25.9516 38.2982C27.9884 38.7034 30.0996 38.4955 32.0182 37.7007C33.9368 36.906 35.5767 35.5602 36.7304 33.8335C37.8842 32.1068 38.5 30.0767 38.5 28C38.4971 25.2161 37.3899 22.5471 35.4214 20.5786C33.4529 18.6101 30.7839 17.5029 28 17.5ZM28 35C26.6155 35 25.2622 34.5895 24.111 33.8203C22.9599 33.0511 22.0627 31.9579 21.5328 30.6788C21.003 29.3997 20.8644 27.9922 21.1345 26.6344C21.4046 25.2765 22.0713 24.0292 23.0503 23.0503C24.0292 22.0713 25.2765 21.4046 26.6344 21.1345C27.9922 20.8644 29.3997 21.003 30.6788 21.5328C31.9579 22.0627 33.0511 22.9599 33.8203 24.111C34.5895 25.2622 35 26.6155 35 28C35 29.8565 34.2625 31.637 32.9497 32.9497C31.637 34.2625 29.8565 35 28 35ZM38.5 5.25H17.5C14.2522 5.25347 11.1383 6.54521 8.84178 8.84178C6.54521 11.1383 5.25347 14.2522 5.25 17.5V38.5C5.25347 41.7478 6.54521 44.8617 8.84178 47.1582C11.1383 49.4548 14.2522 50.7465 17.5 50.75H38.5C41.7478 50.7465 44.8617 49.4548 47.1582 47.1582C49.4548 44.8617 50.7465 41.7478 50.75 38.5V17.5C50.7465 14.2522 49.4548 11.1383 47.1582 8.84178C44.8617 6.54521 41.7478 5.25347 38.5 5.25ZM47.25 38.5C47.25 40.8206 46.3281 43.0462 44.6872 44.6872C43.0462 46.3281 40.8206 47.25 38.5 47.25H17.5C15.1794 47.25 12.9538 46.3281 11.3128 44.6872C9.67187 43.0462 8.75 40.8206 8.75 38.5V17.5C8.75 15.1794 9.67187 12.9538 11.3128 11.3128C12.9538 9.67187 15.1794 8.75 17.5 8.75H38.5C40.8206 8.75 43.0462 9.67187 44.6872 11.3128C46.3281 12.9538 47.25 15.1794 47.25 17.5V38.5ZM42 16.625C42 17.1442 41.846 17.6517 41.5576 18.0834C41.2692 18.515 40.8592 18.8515 40.3795 19.0502C39.8999 19.2489 39.3721 19.3008 38.8629 19.1996C38.3537 19.0983 37.886 18.8483 37.5188 18.4812C37.1517 18.114 36.9017 17.6463 36.8004 17.1371C36.6992 16.6279 36.7511 16.1001 36.9498 15.6205C37.1485 15.1408 37.485 14.7308 37.9166 14.4424C38.3483 14.154 38.8558 14 39.375 14C40.0712 14 40.7389 14.2766 41.2312 14.7688C41.7234 15.2611 42 15.9288 42 16.625Z" fill="#EAEED9"/>
</svg>
