<svg width="57" height="57" viewBox="0 0 57 57" fill="none" xmlns="http://www.w3.org/2000/svg">
<path d="M28.5 3.5625C23.3052 3.56839 18.3249 5.63462 14.6516 9.30789C10.9784 12.9811 8.91214 17.9615 8.90625 23.1562C8.90625 39.9223 26.7188 52.5847 27.478 53.1147C27.7775 53.3245 28.1343 53.437 28.5 53.437C28.8657 53.437 29.2225 53.3245 29.522 53.1147C30.2812 52.5847 48.0938 39.9223 48.0938 23.1562C48.0879 17.9615 46.0216 12.9811 42.3484 9.30789C38.6751 5.63462 33.6948 3.56839 28.5 3.5625ZM28.5 16.0312C29.9092 16.0312 31.2867 16.4491 32.4584 17.232C33.6301 18.0149 34.5434 19.1277 35.0826 20.4296C35.6219 21.7316 35.763 23.1642 35.4881 24.5463C35.2132 25.9284 34.5346 27.1979 33.5381 28.1944C32.5417 29.1908 31.2721 29.8694 29.89 30.1443C28.5079 30.4193 27.0753 30.2782 25.7734 29.7389C24.4715 29.1996 23.3587 28.2864 22.5758 27.1147C21.7929 25.943 21.375 24.5654 21.375 23.1562C21.375 21.2666 22.1257 19.4543 23.4619 18.1181C24.7981 16.7819 26.6103 16.0312 28.5 16.0312Z" fill="#8EA716"/>
</svg>
