<svg width="56" height="58" viewBox="0 0 56 58" fill="none" xmlns="http://www.w3.org/2000/svg">
<path d="M31.5319 31.3291L26.1468 28.563C25.9348 28.4545 25.6987 28.4054 25.4624 28.4205C25.226 28.4357 24.9977 28.5147 24.8005 28.6495L22.3284 30.3437C21.1936 29.7028 20.2597 28.7434 19.6358 27.5776L21.285 25.038C21.4163 24.8355 21.4931 24.6009 21.5079 24.3581C21.5227 24.1153 21.4748 23.8727 21.3692 23.655L18.6766 18.1228C18.565 17.8913 18.3925 17.6965 18.1787 17.5605C17.9648 17.4246 17.7182 17.3529 17.4667 17.3535C15.6814 17.3535 13.9692 18.0821 12.7068 19.3789C11.4444 20.6758 10.7352 22.4347 10.7352 24.2687C10.7397 28.3021 12.3014 32.1691 15.0776 35.0211C17.8539 37.8732 21.6181 39.4775 25.5443 39.4821C26.4283 39.4821 27.3037 39.3032 28.1204 38.9557C28.937 38.6082 29.6791 38.0988 30.3042 37.4567C30.9292 36.8145 31.4251 36.0522 31.7634 35.2132C32.1017 34.3742 32.2758 33.475 32.2758 32.5669C32.2759 32.31 32.2064 32.0581 32.0751 31.8394C31.9437 31.6208 31.7556 31.4441 31.5319 31.3291ZM25.5443 36.716C22.3319 36.7124 19.2521 35.3998 16.9806 33.0662C14.7091 30.7327 13.4314 27.5688 13.4278 24.2687C13.4275 23.3094 13.7508 22.3797 14.3427 21.6377C14.9346 20.8958 15.7584 20.3874 16.674 20.1991L18.6059 24.1753L16.9618 26.689C16.8389 26.8783 16.7634 27.0959 16.742 27.3224C16.7206 27.5488 16.7539 27.7772 16.8389 27.9873C17.8022 30.3392 19.6234 32.2101 21.9128 33.1996C22.1179 33.2909 22.3419 33.3283 22.5646 33.3084C22.7873 33.2884 23.0017 33.2119 23.1884 33.0856L25.647 31.4017L29.5176 33.3864C29.3329 34.3281 28.8359 35.1748 28.1113 35.782C27.3867 36.3892 26.4794 36.7193 25.5443 36.716ZM21.5055 10.4384C18.4839 10.4377 15.5136 11.2407 12.8837 12.7692C10.2538 14.2977 8.05386 16.4996 6.4981 19.1606C4.94234 21.8217 4.08372 24.8512 4.00582 27.9542C3.92791 31.0573 4.63337 34.1283 6.05354 36.8682L4.1435 42.7547C3.98528 43.2421 3.96232 43.7651 4.07719 44.2651C4.19206 44.7651 4.44021 45.2224 4.79384 45.5857C5.14747 45.949 5.59259 46.2039 6.07933 46.3219C6.56607 46.4399 7.07517 46.4163 7.54959 46.2538L13.2797 44.2916C15.6269 45.5741 18.2277 46.2904 20.8846 46.3862C23.5415 46.482 26.1847 45.9547 28.6137 44.8443C31.0426 43.734 33.1933 42.0698 34.9027 39.978C36.6121 37.8863 37.8351 35.422 38.479 32.7722C39.1228 30.1224 39.1706 27.3567 38.6187 24.6851C38.0667 22.0134 36.9296 19.5061 35.2935 17.3534C33.6575 15.2007 31.5655 13.4591 29.1765 12.2609C26.7874 11.0628 24.164 10.4395 21.5055 10.4384ZM21.5055 43.6312C18.9021 43.633 16.3444 42.9287 14.0908 41.5895C13.9259 41.4912 13.7424 41.43 13.5527 41.4101C13.3629 41.3901 13.1712 41.4118 12.9903 41.4737L6.69639 43.6312L8.79491 37.1655C8.8554 36.9797 8.87678 36.7828 8.85763 36.5879C8.83848 36.393 8.77924 36.2045 8.68384 36.0349C7.05142 33.1355 6.39601 29.7638 6.81928 26.4428C7.24256 23.1217 8.72085 20.037 11.0248 17.6671C13.3288 15.2972 16.3297 13.7747 19.562 13.3357C22.7942 12.8967 26.0772 13.5657 28.9015 15.239C31.7259 16.9123 33.9338 19.4964 35.1827 22.5903C36.4315 25.6842 36.6516 29.1151 35.8088 32.3506C34.966 35.5862 33.1073 38.4455 30.5211 40.4852C27.935 42.5248 24.7659 43.6306 21.5055 43.6312Z" fill="#DBE0C2"/>
</svg>
