<svg width="45" height="49" viewBox="0 0 45 49" fill="none" xmlns="http://www.w3.org/2000/svg">
<path d="M41.25 3.75H35.625V1.875C35.625 1.37772 35.4275 0.900805 35.0758 0.549175C34.7242 0.197544 34.2473 0 33.75 0C33.2527 0 32.7758 0.197544 32.4242 0.549175C32.0725 0.900805 31.875 1.37772 31.875 1.875V3.75H13.125V1.875C13.125 1.37772 12.9275 0.900805 12.5758 0.549175C12.2242 0.197544 11.7473 0 11.25 0C10.7527 0 10.2758 0.197544 9.92418 0.549175C9.57254 0.900805 9.375 1.37772 9.375 1.875V3.75H3.75C2.75544 3.75 1.80161 4.14509 1.09835 4.84835C0.395088 5.55161 0 6.50544 0 7.5V45C0 45.9946 0.395088 46.9484 1.09835 47.6516C1.80161 48.3549 2.75544 48.75 3.75 48.75H41.25C42.2446 48.75 43.1984 48.3549 43.9016 47.6516C44.6049 46.9484 45 45.9946 45 45V7.5C45 6.50544 44.6049 5.55161 43.9016 4.84835C43.1984 4.14509 42.2446 3.75 41.25 3.75ZM12.1875 39.375C11.6312 39.375 11.0875 39.21 10.625 38.901C10.1624 38.592 9.80196 38.1527 9.58909 37.6388C9.37622 37.1249 9.32052 36.5594 9.42904 36.0138C9.53756 35.4682 9.80543 34.9671 10.1988 34.5738C10.5921 34.1804 11.0932 33.9126 11.6388 33.804C12.1844 33.6955 12.7499 33.7512 13.2638 33.9641C13.7777 34.177 14.217 34.5374 14.526 35C14.8351 35.4625 15 36.0062 15 36.5625C15 37.3084 14.7037 38.0238 14.1762 38.5512C13.6488 39.0787 12.9334 39.375 12.1875 39.375ZM22.5 39.375C21.9437 39.375 21.4 39.21 20.9375 38.901C20.4749 38.592 20.1145 38.1527 19.9016 37.6388C19.6887 37.1249 19.633 36.5594 19.7415 36.0138C19.8501 35.4682 20.1179 34.9671 20.5113 34.5738C20.9046 34.1804 21.4057 33.9126 21.9513 33.804C22.4969 33.6955 23.0624 33.7512 23.5763 33.9641C24.0902 34.177 24.5295 34.5374 24.8385 35C25.1475 35.4625 25.3125 36.0062 25.3125 36.5625C25.3125 37.3084 25.0162 38.0238 24.4887 38.5512C23.9613 39.0787 23.2459 39.375 22.5 39.375ZM22.5 30C21.9437 30 21.4 29.835 20.9375 29.526C20.4749 29.217 20.1145 28.7777 19.9016 28.2638C19.6887 27.7499 19.633 27.1844 19.7415 26.6388C19.8501 26.0932 20.1179 25.5921 20.5113 25.1988C20.9046 24.8054 21.4057 24.5376 21.9513 24.429C22.4969 24.3205 23.0624 24.3762 23.5763 24.5891C24.0902 24.802 24.5295 25.1624 24.8385 25.625C25.1475 26.0875 25.3125 26.6312 25.3125 27.1875C25.3125 27.9334 25.0162 28.6488 24.4887 29.1762C23.9613 29.7037 23.2459 30 22.5 30ZM32.8125 39.375C32.2562 39.375 31.7125 39.21 31.25 38.901C30.7874 38.592 30.427 38.1527 30.2141 37.6388C30.0012 37.1249 29.9455 36.5594 30.054 36.0138C30.1626 35.4682 30.4304 34.9671 30.8238 34.5738C31.2171 34.1804 31.7182 33.9126 32.2638 33.804C32.8094 33.6955 33.3749 33.7512 33.8888 33.9641C34.4027 34.177 34.842 34.5374 35.151 35C35.46 35.4625 35.625 36.0062 35.625 36.5625C35.625 37.3084 35.3287 38.0238 34.8012 38.5512C34.2738 39.0787 33.5584 39.375 32.8125 39.375ZM32.8125 30C32.2562 30 31.7125 29.835 31.25 29.526C30.7874 29.217 30.427 28.7777 30.2141 28.2638C30.0012 27.7499 29.9455 27.1844 30.054 26.6388C30.1626 26.0932 30.4304 25.5921 30.8238 25.1988C31.2171 24.8054 31.7182 24.5376 32.2638 24.429C32.8094 24.3205 33.3749 24.3762 33.8888 24.5891C34.4027 24.802 34.842 25.1624 35.151 25.625C35.46 26.0875 35.625 26.6312 35.625 27.1875C35.625 27.9334 35.3287 28.6488 34.8012 29.1762C34.2738 29.7037 33.5584 30 32.8125 30ZM41.25 15H3.75V7.5H9.375V9.375C9.375 9.87228 9.57254 10.3492 9.92418 10.7008C10.2758 11.0525 10.7527 11.25 11.25 11.25C11.7473 11.25 12.2242 11.0525 12.5758 10.7008C12.9275 10.3492 13.125 9.87228 13.125 9.375V7.5H31.875V9.375C31.875 9.87228 32.0725 10.3492 32.4242 10.7008C32.7758 11.0525 33.2527 11.25 33.75 11.25C34.2473 11.25 34.7242 11.0525 35.0758 10.7008C35.4275 10.3492 35.625 9.87228 35.625 9.375V7.5H41.25V15Z" fill="#8EA716"/>
</svg>
