<svg width="16" height="20" viewBox="0 0 16 20" fill="none" xmlns="http://www.w3.org/2000/svg">
<path d="M5.125 0.924274V0.289185H10.05V0.924274H5.125ZM7.275 11.945H7.9125V7.05102H7.275V11.945ZM7.58675 19.043C6.53642 19.043 5.551 18.8458 4.6305 18.4515C3.71017 18.0572 2.90633 17.517 2.219 16.8309C1.53183 16.1447 0.990167 15.3431 0.594 14.4263C0.198 13.5093 0 12.5274 0 11.4807C0 10.4408 0.198 9.46138 0.594 8.54236C0.990167 7.62335 1.53183 6.82131 2.219 6.13625C2.90633 5.45101 3.71 4.91123 4.63 4.51689C5.55 4.12255 6.53583 3.92538 7.5875 3.92538C8.55417 3.92538 9.47292 4.1018 10.3438 4.45463C11.2146 4.80745 12.0101 5.29104 12.7303 5.90537L13.7 4.93406L14.1625 5.39481L13.1875 6.36612C13.8042 7.07178 14.2896 7.86045 14.6438 8.73214C14.9979 9.60384 15.175 10.5212 15.175 11.4842C15.175 12.5311 14.9771 13.5124 14.5813 14.4283C14.1853 15.3441 13.6438 16.1448 12.957 16.8302C12.27 17.5156 11.4658 18.0557 10.5445 18.4505C9.62317 18.8455 8.63725 19.043 7.58675 19.043ZM7.59325 18.4079C9.51442 18.4079 11.1521 17.7315 12.5063 16.3786C13.8604 15.0258 14.5375 13.3924 14.5375 11.4785C14.5375 9.56457 13.8585 7.93309 12.5005 6.58405C11.1425 5.235 9.50292 4.56047 7.58175 4.56047C5.66058 4.56047 4.02292 5.23691 2.66875 6.58977C1.31458 7.94264 0.6375 9.57602 0.6375 11.4899C0.6375 13.4038 1.3165 15.0353 2.6745 16.3844C4.0325 17.7334 5.67208 18.4079 7.59325 18.4079Z" fill="#EDEFE6"/>
</svg>
