<svg width="24" height="24" viewBox="0 0 24 24" fill="none" xmlns="http://www.w3.org/2000/svg">
<path d="M11.6804 18.025H12.3002V16.9644C12.9487 16.9548 13.5774 16.699 14.1864 16.197C14.7956 15.695 15.1002 15.0885 15.1002 14.3775C15.1002 13.6251 14.8589 13.0466 14.3764 12.642C13.8939 12.2373 13.1769 11.865 12.2252 11.525C11.0752 11.0916 10.3919 10.7291 10.1752 10.4375C9.95853 10.1458 9.8502 9.74162 9.8502 9.22495C9.8502 8.79162 10.0544 8.4062 10.4627 8.0687C10.871 7.7312 11.3599 7.56245 11.9294 7.56245C12.3488 7.56245 12.7612 7.6562 13.1667 7.8437C13.5724 8.0312 13.8835 8.29995 14.1002 8.64995L14.5752 8.4392C14.3002 8.0297 13.971 7.71453 13.5877 7.4937C13.2044 7.27287 12.7752 7.12104 12.3002 7.0382V5.97495H11.7002V7.06245C10.9085 7.17078 10.3023 7.4307 9.88145 7.8422C9.46061 8.2537 9.2502 8.72295 9.2502 9.24995C9.2502 9.91662 9.49603 10.4729 9.9877 10.9187C10.4794 11.3645 11.3315 11.8041 12.5442 12.2375C13.3232 12.5208 13.8564 12.822 14.1439 13.141C14.4314 13.46 14.5752 13.8713 14.5752 14.375C14.5752 15.0083 14.3189 15.5062 13.8064 15.8687C13.2939 16.2312 12.7585 16.4125 12.2002 16.4125C11.6252 16.4125 11.0985 16.2354 10.6202 15.8812C10.1419 15.527 9.77686 15.1041 9.5252 14.6125L9.0252 14.8875C9.3002 15.4275 9.6752 15.8666 10.1502 16.205C10.6252 16.5433 11.1353 16.7867 11.6804 16.9352V18.025ZM12.0017 20.175C10.8855 20.175 9.83028 19.9614 8.83595 19.5342C7.84145 19.107 6.9702 18.5195 6.2222 17.7717C5.4742 17.0239 4.8877 16.154 4.4627 15.162C4.0377 14.1698 3.8252 13.1163 3.8252 12.0015C3.8252 10.8686 4.03878 9.8092 4.46595 8.8232C4.89311 7.83703 5.48061 6.96995 6.22845 6.22195C6.97628 5.47395 7.8462 4.88745 8.8382 4.46245C9.83036 4.03745 10.8839 3.82495 11.9987 3.82495C13.1315 3.82495 14.1909 4.03853 15.1769 4.4657C16.1631 4.89287 17.0302 5.48037 17.7782 6.2282C18.5262 6.97603 19.1127 7.84178 19.5377 8.82545C19.9627 9.80929 20.1752 10.867 20.1752 11.9985C20.1752 13.1146 19.9616 14.1699 19.5344 15.1642C19.1073 16.1587 18.5198 17.03 17.7719 17.778C17.0241 18.526 16.1584 19.1125 15.1747 19.5375C14.1909 19.9625 13.1332 20.175 12.0017 20.175ZM11.9994 19.7375C14.1416 19.7375 15.9669 18.9835 17.4752 17.4757C18.9835 15.968 19.7377 14.143 19.7377 12.0007C19.7377 9.85853 18.9838 8.03328 17.4759 6.52495C15.9683 5.01662 14.1433 4.26245 12.0009 4.26245C9.85878 4.26245 8.03353 5.01637 6.5252 6.5242C5.01686 8.03187 4.2627 9.85687 4.2627 11.9992C4.2627 14.1414 5.01661 15.9666 6.52445 17.475C8.03211 18.9833 9.85711 19.7375 11.9994 19.7375Z" fill="#EDEFE6"/>
</svg>
