<svg width="24" height="24" viewBox="0 0 24 24" fill="none" xmlns="http://www.w3.org/2000/svg">
<path d="M8.05437 17.2673C7.82087 17.2673 7.62462 17.1866 7.46562 17.0253C7.30662 16.8639 7.22712 16.6671 7.22712 16.4348C7.22712 16.2026 7.30687 16.0053 7.46637 15.8428C7.62587 15.6803 7.82354 15.599 8.05937 15.599C8.2917 15.599 8.48912 15.6805 8.65162 15.8435C8.81412 16.0064 8.89537 16.2039 8.89537 16.4363C8.89537 16.6684 8.81354 16.865 8.64987 17.026C8.4862 17.1869 8.2877 17.2673 8.05437 17.2673ZM11.9994 17.2673C11.7672 17.2673 11.5706 17.1866 11.4096 17.0253C11.2488 16.8639 11.1684 16.6671 11.1684 16.4348C11.1684 16.2026 11.249 16.0053 11.4104 15.8428C11.5717 15.6803 11.7698 15.599 12.0046 15.599C12.2395 15.599 12.4369 15.6805 12.5969 15.8435C12.7567 16.0064 12.8366 16.2039 12.8366 16.4363C12.8366 16.6684 12.7564 16.865 12.5959 17.026C12.4355 17.1869 12.2367 17.2673 11.9994 17.2673ZM15.9609 17.2673C15.7287 17.2673 15.5322 17.1866 15.3714 17.0253C15.2104 16.8639 15.1299 16.6671 15.1299 16.4348C15.1299 16.2026 15.2105 16.0053 15.3719 15.8428C15.5332 15.6803 15.7313 15.599 15.9661 15.599C16.201 15.599 16.3984 15.6805 16.5584 15.8435C16.7182 16.0064 16.7981 16.2039 16.7981 16.4363C16.7981 16.6684 16.7179 16.865 16.5574 17.026C16.397 17.1869 16.1982 17.2673 15.9609 17.2673ZM5.66162 13.5078V12.1088C5.66162 10.4804 6.20187 9.06803 7.28237 7.87153C8.36287 6.67519 9.70312 5.99269 11.3031 5.82403V3.79053H12.7021V5.82553C14.3045 5.99219 15.6445 6.67436 16.7221 7.87203C17.7998 9.06953 18.3386 10.4818 18.3386 12.1088V13.5078H5.66162ZM7.06062 12.1088H16.9396C16.9396 10.7421 16.4585 9.57719 15.4964 8.61403C14.5342 7.65086 13.3705 7.16928 12.0054 7.16928C10.6404 7.16928 9.47504 7.65186 8.50937 8.61703C7.54354 9.58219 7.06062 10.7461 7.06062 12.1088ZM8.05437 20.0798C7.81954 20.0798 7.62295 19.9983 7.46462 19.8353C7.30629 19.6724 7.22712 19.4757 7.22712 19.245C7.22712 19.0144 7.30687 18.8178 7.46637 18.6553C7.62587 18.4928 7.82354 18.4115 8.05937 18.4115C8.2917 18.4115 8.48912 18.4931 8.65162 18.6563C8.81412 18.8194 8.89537 19.0154 8.89537 19.244C8.89537 19.4762 8.81387 19.6735 8.65087 19.836C8.48787 19.9985 8.28904 20.0798 8.05437 20.0798ZM11.9994 20.0798C11.7672 20.0798 11.5706 19.9979 11.4096 19.8343C11.2488 19.6706 11.1684 19.4742 11.1684 19.245C11.1684 19.0157 11.249 18.8194 11.4104 18.6563C11.5717 18.4931 11.7698 18.4115 12.0046 18.4115C12.2395 18.4115 12.4369 18.4931 12.5969 18.6563C12.7567 18.8194 12.8366 19.0154 12.8366 19.244C12.8366 19.4762 12.7564 19.6735 12.5959 19.836C12.4355 19.9985 12.2367 20.0798 11.9994 20.0798ZM15.9609 20.0798C15.7287 20.0798 15.5322 19.9979 15.3714 19.8343C15.2104 19.6706 15.1299 19.4742 15.1299 19.245C15.1299 19.0157 15.2105 18.8194 15.3719 18.6563C15.5332 18.4931 15.7313 18.4115 15.9661 18.4115C16.201 18.4115 16.3984 18.4931 16.5584 18.6563C16.7182 18.8194 16.7981 19.0154 16.7981 19.244C16.7981 19.4762 16.7179 19.6735 16.5574 19.836C16.397 19.9985 16.1982 20.0798 15.9609 20.0798Z" fill="#8EA716"/>
</svg>
