<svg width="21" height="21" viewBox="0 0 21 21" fill="none" xmlns="http://www.w3.org/2000/svg">
<path d="M10.4998 4.37505C11.086 4.37505 11.681 4.4538 12.2498 4.60255C13.8073 2.85255 16.651 2.11755 17.8673 2.62505C19.0923 3.13255 17.4998 8.75005 17.4998 8.75005C17.9985 9.6863 18.3748 10.71 18.3748 11.76C18.3748 15.6625 14.8485 18.375 10.4998 18.375C6.15101 18.375 2.62476 15.75 2.62476 11.76C2.62476 10.6663 3.06226 9.66005 3.49976 8.75005C3.49976 8.75005 1.84601 3.13255 3.06226 2.62505C4.27851 2.11755 7.19226 2.8263 8.74976 4.5763C9.32378 4.44427 9.91076 4.37677 10.4998 4.37505Z" stroke="#8EA716" stroke-width="2" stroke-linecap="round" stroke-linejoin="round"/>
<path d="M7 12.25V12.6875" stroke="#8EA716" stroke-width="2" stroke-linecap="round" stroke-linejoin="round"/>
<path d="M14 12.25V12.6875" stroke="#8EA716" stroke-width="2" stroke-linecap="round" stroke-linejoin="round"/>
<path d="M9.84375 14.2188H11.1562L10.5 14.875L9.84375 14.2188Z" stroke="#8EA716" stroke-width="2" stroke-linecap="round" stroke-linejoin="round"/>
</svg>
