<svg width="24" height="24" viewBox="0 0 24 24" fill="none" xmlns="http://www.w3.org/2000/svg">
<path d="M8.1231 20.7807C7.9026 20.3422 7.71868 19.6725 7.57135 18.7717C7.42385 17.8707 7.3501 16.9249 7.3501 15.9344C7.3501 14.6454 7.49418 13.5072 7.78235 12.5197C8.07051 11.5322 8.49085 10.6779 9.04335 9.95669V6.27194L11.5281 2.03369H12.4818L14.9663 6.27194V9.95669C15.5208 10.6779 15.9401 11.5327 16.2241 12.5212C16.5081 13.5095 16.6501 14.6483 16.6501 15.9374C16.6501 16.9169 16.5796 17.8624 16.4386 18.7739C16.2976 19.6854 16.1168 20.3544 15.8963 20.7807C15.3982 20.6154 15.0319 20.2889 14.7976 19.8014C14.5634 19.3139 14.4473 18.7878 14.4491 18.2229C14.4491 17.8191 14.4954 17.3871 14.5881 16.9269C14.6808 16.4666 14.7271 16.014 14.7271 15.5692C14.7271 14.5307 14.4908 13.5795 14.0183 12.7157C13.5458 11.852 12.8731 11.0605 12.0001 10.3412C11.1226 11.0797 10.4487 11.8696 9.97835 12.7109C9.50818 13.5523 9.2731 14.4665 9.2731 15.4537C9.2731 15.9499 9.3231 16.4377 9.4231 16.9172C9.5231 17.3967 9.5741 17.8458 9.5761 18.2644C9.5761 18.8163 9.45635 19.3295 9.21685 19.8042C8.97751 20.2789 8.61293 20.6044 8.1231 20.7807ZM12.0001 7.84119C11.7674 7.84119 11.569 7.76236 11.4048 7.60469C11.2408 7.44703 11.1588 7.25186 11.1588 7.01919C11.1588 6.85703 11.2009 6.70669 11.2851 6.56819C11.3694 6.42969 11.494 6.31561 11.6588 6.22594V3.63944L9.96635 6.53744V9.03369H14.0433V6.53744L12.3511 3.63944V6.22594C12.5094 6.31561 12.6323 6.42969 12.7198 6.56819C12.8073 6.70669 12.8511 6.85703 12.8511 7.01919C12.8511 7.25186 12.7674 7.44703 12.6001 7.60469C12.4328 7.76236 12.2328 7.84119 12.0001 7.84119Z" fill="#8EA716"/>
</svg>
