<svg width="21" height="21" viewBox="0 0 21 21" fill="none" xmlns="http://www.w3.org/2000/svg">
<path d="M16.9213 17.8639L10.5675 11.5098L7.82462 14.2685C7.95252 14.4856 8.0468 14.7131 8.10746 14.951C8.16799 15.1887 8.19825 15.4384 8.19825 15.7002C8.19825 16.4766 7.92175 17.1413 7.36875 17.6941C6.8156 18.247 6.15031 18.5234 5.37287 18.5234C4.59558 18.5234 3.92985 18.2467 3.37568 17.6932C2.82152 17.14 2.54443 16.4747 2.54443 15.6976C2.54443 14.9206 2.82086 14.255 3.37371 13.7008C3.92657 13.1467 4.5912 12.8696 5.36762 12.8696C5.62939 12.8696 5.87913 12.8998 6.11684 12.9604C6.35455 13.021 6.58343 13.1152 6.8035 13.243L9.54443 10.5003L6.8035 7.74405C6.58343 7.87195 6.35455 7.96616 6.11684 8.02668C5.87913 8.08735 5.62939 8.11768 5.36762 8.11768C4.5912 8.11768 3.92657 7.84111 3.37371 7.28796C2.82086 6.73496 2.54443 6.06974 2.54443 5.2923C2.54443 4.51501 2.82108 3.84928 3.37437 3.29512C3.92781 2.74095 4.59303 2.46387 5.37003 2.46387C6.14717 2.46387 6.81283 2.7403 7.367 3.29315C7.92116 3.846 8.19825 4.51056 8.19825 5.28684C8.19825 5.54875 8.16799 5.79856 8.10746 6.03627C8.0468 6.27398 7.95252 6.50119 7.82462 6.7179L18.4559 17.3522V17.8639H16.9213ZM12.7482 9.34268L11.7252 8.31959L16.9213 3.1234H18.4559V3.63484L12.7482 9.34268ZM5.37134 7.30984C5.92667 7.30984 6.40202 7.11216 6.79737 6.7168C7.19287 6.3213 7.39062 5.84596 7.39062 5.29077C7.39062 4.73544 7.19287 4.26002 6.79737 3.86452C6.40202 3.46917 5.92667 3.27149 5.37134 3.27149C4.81601 3.27149 4.34066 3.46917 3.94531 3.86452C3.54981 4.26002 3.35206 4.73544 3.35206 5.29077C3.35206 5.84596 3.54981 6.3213 3.94531 6.7168C4.34066 7.11216 4.81601 7.30984 5.37134 7.30984ZM10.5809 10.4598C10.5736 10.4598 10.5673 10.4625 10.5621 10.4679C10.5567 10.4732 10.554 10.4795 10.554 10.4867C10.554 10.494 10.5567 10.5004 10.5621 10.5058C10.5673 10.5112 10.5736 10.5139 10.5809 10.5139C10.5882 10.5139 10.5945 10.5112 10.5999 10.5058C10.6052 10.5004 10.6078 10.494 10.6078 10.4867C10.6078 10.4795 10.6052 10.4732 10.5999 10.4679C10.5945 10.4625 10.5882 10.4598 10.5809 10.4598ZM5.37134 17.7158C5.92667 17.7158 6.40202 17.518 6.79737 17.1225C7.19287 16.7272 7.39062 16.2518 7.39062 15.6965C7.39062 15.1412 7.19287 14.6658 6.79737 14.2705C6.40202 13.875 5.92667 13.6772 5.37134 13.6772C4.81601 13.6772 4.34066 13.875 3.94531 14.2705C3.54981 14.6658 3.35206 15.1412 3.35206 15.6965C3.35206 16.2518 3.54981 16.7272 3.94531 17.1225C4.34066 17.518 4.81601 17.7158 5.37134 17.7158Z" fill="#8EA716"/>
</svg>
