<svg width="127" height="111" viewBox="0 0 127 111" fill="none" xmlns="http://www.w3.org/2000/svg">
<g clip-path="url(#clip0_11_85)">
<path d="M123.87 103.344H113.868V103.419H123.87V103.344Z" fill="#EBEBEB"/>
<path d="M88.0287 104.166H85.4043V104.241H88.0287V104.166Z" fill="#EBEBEB"/>
<path d="M113.565 100.542H107.77V100.617H113.565V100.542Z" fill="#EBEBEB"/>
<path d="M16.8862 101.049H3.84277V101.124H16.8862V101.049Z" fill="#EBEBEB"/>
<path d="M21.4888 101.049H19.5771V101.124H21.4888V101.049Z" fill="#EBEBEB"/>
<path d="M55.9955 102.323H27.7041V102.399H55.9955V102.323Z" fill="#EBEBEB"/>
<path d="M59.5741 85.0157H1.26397C0.806626 85.0157 0.368013 84.834 0.0446218 84.5106C-0.27877 84.1872 -0.460449 83.7486 -0.460449 83.2913V1.31943C-0.456467 0.864704 -0.273032 0.429961 0.0499293 0.109828C0.37289 -0.210305 0.80923 -0.38991 1.26397 -0.389893H59.5741C60.0315 -0.389893 60.4701 -0.208213 60.7935 0.115178C61.1169 0.43857 61.2986 0.877182 61.2986 1.33453V83.2913C61.2986 83.7486 61.1169 84.1872 60.7935 84.5106C60.4701 84.834 60.0315 85.0157 59.5741 85.0157ZM1.26397 -0.329492C0.826895 -0.328694 0.40795 -0.154713 0.0988909 0.154347C-0.210169 0.463406 -0.384151 0.882352 -0.384949 1.31943V83.2913C-0.384151 83.7284 -0.210169 84.1473 0.0988909 84.4564C0.40795 84.7654 0.826895 84.9394 1.26397 84.9402H59.5741C60.0112 84.9394 60.4302 84.7654 60.7392 84.4564C61.0483 84.1473 61.2223 83.7284 61.2231 83.2913V1.31943C61.2223 0.882352 61.0483 0.463406 60.7392 0.154347C60.4302 -0.154713 60.0112 -0.328694 59.5741 -0.329492H1.26397Z" fill="#EBEBEB"/>
<path d="M124.9 85.0157H66.5833C66.1262 85.0149 65.6881 84.833 65.3648 84.5098C65.0416 84.1865 64.8597 83.7484 64.8589 83.2913V1.31943C64.8637 0.864952 65.0473 0.430665 65.3701 0.1107C65.6929 -0.209264 66.1288 -0.389123 66.5833 -0.389893H124.9C125.353 -0.388321 125.788 -0.208013 126.11 0.111949C126.431 0.431912 126.614 0.865749 126.618 1.31943V83.2913C126.618 83.7476 126.437 84.1853 126.115 84.5085C125.793 84.8317 125.356 85.0141 124.9 85.0157ZM66.5833 -0.329492C66.1462 -0.328694 65.7273 -0.154713 65.4182 0.154347C65.1092 0.463406 64.9352 0.882352 64.9344 1.31943V83.2913C64.9352 83.7284 65.1092 84.1473 65.4182 84.4564C65.7273 84.7654 66.1462 84.9394 66.5833 84.9402H124.9C125.337 84.9394 125.756 84.7654 126.065 84.4564C126.374 84.1473 126.548 83.7284 126.548 83.2913V1.31943C126.548 0.882352 126.374 0.463406 126.065 0.154347C125.756 -0.154713 125.337 -0.328694 124.9 -0.329492H66.5833Z" fill="#EBEBEB"/>
<path d="M139 98.4849H-12V98.5604H139V98.4849Z" fill="#EBEBEB"/>
<path d="M23.9954 92.5536C23.9954 92.5536 18.2 88.9054 15.8988 88.4524C14.3103 88.1504 10.7648 88.4766 10.3118 84.5506C10.046 82.2191 11.858 82.201 13.368 82.5694C13.5733 82.6213 13.7875 82.6267 13.9951 82.5852C14.2027 82.5437 14.3985 82.4564 14.568 82.3297C14.7376 82.2029 14.8768 82.0399 14.9753 81.8526C15.0739 81.6652 15.1294 81.4582 15.1378 81.2467C15.1861 80.0206 15.5877 78.7824 17.1461 79.326C19.9818 80.3226 19.8641 84.3271 20.5858 85.8733C21.7334 88.3497 28.4378 91.4966 28.4378 91.4966L23.9954 92.5536Z" fill="#F0F0F0"/>
<path d="M35.2239 90.0833H12.7641C12.1531 90.0837 11.5522 90.2401 11.0184 90.5376C10.4847 90.8352 10.0357 91.264 9.71395 91.7835L7.17111 95.8877C6.98733 96.1833 6.88625 96.5228 6.87842 96.8708C6.87059 97.2188 6.9563 97.5625 7.1266 97.8661C7.29689 98.1697 7.54554 98.422 7.8466 98.5967C8.14765 98.7714 8.49008 98.8621 8.83815 98.8594H39.165C39.512 98.86 39.8529 98.7677 40.1523 98.5921C40.4516 98.4165 40.6985 98.164 40.8674 97.8608C41.0362 97.5576 41.1209 97.2147 41.1125 96.8678C41.1042 96.5208 41.0032 96.1824 40.8199 95.8877L38.2741 91.7835C37.9524 91.264 37.5034 90.8352 36.9696 90.5376C36.4358 90.2401 35.835 90.0837 35.2239 90.0833Z" fill="#E0E0E0"/>
<path d="M108.075 40.0962C107.682 39.6597 107.193 39.3206 106.646 39.1057C106.1 38.8908 105.511 38.806 104.925 38.858C102.796 39.0483 99.6103 38.9033 99.3355 36.3847C98.9217 32.5764 104.469 33.3435 105.536 31.6916C106.602 30.0396 108.646 28.6353 111.008 29.7135C113.369 30.7916 112.367 33.9415 112.856 35.3548C113.345 36.7682 115.942 40.1868 113.481 42.3461C111.862 43.7535 109.504 41.6817 108.075 40.0962Z" fill="#F0F0F0"/>
<path d="M104.69 27.3156C105.131 28.6414 104.786 30.6889 103.645 31.0664C102.503 31.4439 100.999 30.0154 100.558 28.6897C100.117 27.3639 100.688 25.9717 101.827 25.6032C102.965 25.2348 104.249 25.9898 104.69 27.3156Z" fill="#F0F0F0"/>
<path d="M111.476 24.8723C111.427 26.3521 110.331 28.2638 109.06 28.2215C107.788 28.1792 106.816 26.2011 106.864 24.7213C106.912 23.2415 107.984 22.0758 109.262 22.1181C110.539 22.1603 111.518 23.3925 111.476 24.8723Z" fill="#F0F0F0"/>
<path d="M117.434 28.6987C116.528 29.8614 114.499 30.7462 113.508 29.955C112.518 29.1637 112.904 26.9954 113.81 25.8357C114.716 24.676 116.284 24.374 117.286 25.1652C118.289 25.9565 118.355 27.539 117.434 28.6987Z" fill="#F0F0F0"/>
<path d="M119.007 35.4818C117.836 36.3878 115.664 36.7562 114.885 35.7445C114.106 34.7328 115.015 32.7245 116.19 31.8185C117.365 30.9125 118.944 31.0001 119.723 32.0118C120.502 33.0235 120.182 34.5788 119.007 35.4818Z" fill="#F0F0F0"/>
<path d="M38.3586 76.5688C37.8182 76.5476 37.2803 76.6526 36.7876 76.8753C36.2949 77.0981 35.8608 77.4326 35.5198 77.8523C34.2785 79.3834 32.1374 81.3948 30.2982 79.9663C27.5137 77.7949 31.5817 74.6239 31.177 72.8542C30.7723 71.0845 31.1528 68.8376 33.3816 67.9709C35.6104 67.1041 37.0539 69.7829 38.2951 70.3869C39.5364 70.9909 43.4805 71.459 43.3174 74.4608C43.2087 76.4118 40.3246 76.6413 38.3586 76.5688Z" fill="#F5F5F5"/>
<path d="M27.7434 70.5982C28.9 71.1599 30.0325 72.7122 29.5554 73.6997C29.0782 74.6873 27.1605 74.7688 26.0038 74.2101C24.8472 73.6514 24.2975 72.3981 24.7777 71.3925C25.2579 70.3868 26.5837 70.0395 27.7434 70.5982Z" fill="#F5F5F5"/>
<path d="M30.4851 64.5401C31.4304 65.5216 31.9951 67.4756 31.1435 68.291C30.2918 69.1064 28.3651 68.4752 27.4198 67.4937C26.4746 66.5122 26.39 65.0535 27.2386 64.2381C28.0872 63.4227 29.5368 63.5647 30.4851 64.5401Z" fill="#F5F5F5"/>
<path d="M36.8393 63.0663C37.0144 64.4193 36.3047 66.3189 35.139 66.4729C33.9733 66.6269 32.7955 64.9629 32.6203 63.619C32.4452 62.2751 33.2424 61.0459 34.4082 60.901C35.5739 60.756 36.6611 61.7134 36.8393 63.0663Z" fill="#F5F5F5"/>
<path d="M42.3298 66.3792C42.1757 67.7352 41.0251 69.3992 39.8564 69.2754C38.6876 69.1516 37.9477 67.252 38.1018 65.896C38.2558 64.54 39.3309 63.5495 40.4966 63.6824C41.6623 63.8152 42.4868 65.0232 42.3298 66.3792Z" fill="#F5F5F5"/>
<path d="M52.8333 15.7702C52.5149 15.7134 52.1877 15.7318 51.8778 15.8241C51.5679 15.9164 51.2839 16.08 51.0485 16.3017C50.1908 17.1111 48.7593 18.1319 47.7869 17.1353C46.3101 15.6253 48.9737 14.07 48.8741 12.9888C48.7744 11.9076 49.1761 10.609 50.5713 10.2708C51.9666 9.93256 52.6038 11.6419 53.2893 12.0828C53.9749 12.5237 56.2761 13.1307 55.9379 14.8974C55.7204 16.0632 53.993 15.9695 52.8333 15.7702Z" fill="#F5F5F5"/>
<path d="M47.0201 11.3882C47.6603 11.814 48.207 12.8166 47.8415 13.3693C47.4761 13.9219 46.3315 13.8132 45.6973 13.3904C45.0631 12.9676 44.8306 12.1824 45.196 11.6207C45.5614 11.059 46.3768 10.9593 47.0201 11.3882Z" fill="#F5F5F5"/>
<path d="M49.1278 8.01476C49.611 8.67312 49.7861 9.87508 49.2184 10.2888C48.6506 10.7026 47.5604 10.1771 47.0772 9.51872C46.594 8.86036 46.6634 7.9906 47.2282 7.57686C47.7929 7.16312 48.6446 7.3564 49.1278 8.01476Z" fill="#F5F5F5"/>
<path d="M53.0116 7.64641C53.0116 8.46181 52.4348 9.53088 51.7341 9.52786C51.0335 9.52484 50.4657 8.45275 50.4688 7.63735C50.4718 6.82195 51.0426 6.16056 51.7462 6.16358C52.4499 6.1666 53.0146 6.82799 53.0116 7.64641Z" fill="#F5F5F5"/>
<path d="M56.0011 10.0502C55.8018 10.8385 54.9864 11.7384 54.3039 11.5602C53.6213 11.3821 53.3344 10.2073 53.5338 9.41604C53.7331 8.6248 54.4398 8.1265 55.1313 8.29864C55.8229 8.47078 56.2034 9.2741 56.0011 10.0502Z" fill="#F5F5F5"/>
<path d="M19.106 60.9885C18.787 61.1119 18.5009 61.3075 18.2704 61.5601C18.0398 61.8127 17.871 62.1153 17.7772 62.4442C17.4389 63.6522 16.696 65.3464 15.2706 64.9719C13.1113 64.4072 14.6666 61.5472 14.0052 60.6201C13.3438 59.693 12.9874 58.2947 14.0656 57.2347C15.1437 56.1747 16.6537 57.3736 17.5205 57.4008C18.3872 57.428 20.8002 56.7304 21.4465 58.5152C21.8693 59.6869 20.2505 60.5416 19.106 60.9885Z" fill="#F5F5F5"/>
<path d="M11.4323 60.1731C12.2447 60.2063 13.2866 60.8224 13.2443 61.5231C13.2021 62.2237 12.1209 62.731 11.3085 62.7069C10.4961 62.6827 9.86195 62.0727 9.89215 61.3751C9.92235 60.6774 10.62 60.1369 11.4323 60.1731Z" fill="#F5F5F5"/>
<path d="M11.5138 55.9694C12.311 56.3046 13.1204 57.3012 12.8335 57.9837C12.5466 58.6663 11.254 58.8022 10.4719 58.4518C9.68968 58.1015 9.26386 57.2891 9.56586 56.6066C9.86786 55.9241 10.7195 55.6372 11.5138 55.9694Z" fill="#F5F5F5"/>
<path d="M14.8357 53.5231C15.2766 54.2661 15.337 55.5465 14.6998 55.9391C14.0626 56.3317 12.9633 55.6522 12.5224 54.9123C12.0815 54.1724 12.2415 53.2604 12.8818 52.8799C13.522 52.4994 14.3948 52.7832 14.8357 53.5231Z" fill="#F5F5F5"/>
<path d="M18.8553 54.0789C19.1029 54.9063 18.8553 56.1627 18.1396 56.3771C17.4238 56.5915 16.5239 55.6795 16.2762 54.852C16.0286 54.0245 16.4061 53.1819 17.1158 52.9675C17.8255 52.7531 18.6046 53.2514 18.8553 54.0789Z" fill="#F5F5F5"/>
<path d="M83.6677 21.8222C83.4317 21.5747 83.1411 21.3857 82.8192 21.2704C82.4973 21.155 82.1528 21.1165 81.8134 21.1578C80.5752 21.3058 78.7179 21.2786 78.5125 19.8199C78.2105 17.6093 81.448 17.9566 82.0399 16.9721C82.6318 15.9876 83.7945 15.1389 85.1897 15.7218C86.585 16.3047 86.0565 18.165 86.3675 18.9743C86.6786 19.7837 88.252 21.7407 86.8568 23.0332C85.9417 23.8849 84.5284 22.7191 83.6677 21.8222Z" fill="#F5F5F5"/>
<path d="M81.4661 14.4413C81.747 15.2054 81.5839 16.4043 80.9256 16.6459C80.2672 16.8875 79.3672 16.0782 79.0864 15.3171C78.8055 14.5561 79.1105 13.7377 79.7689 13.5051C80.4273 13.2726 81.1853 13.6773 81.4661 14.4413Z" fill="#F5F5F5"/>
<path d="M85.3739 12.8981C85.3739 13.7618 84.7699 14.8943 84.024 14.8913C83.278 14.8883 82.6831 13.7558 82.6831 12.8921C82.6831 12.0284 83.2871 11.3307 84.033 11.3338C84.779 11.3368 85.3769 12.0314 85.3739 12.8981Z" fill="#F5F5F5"/>
<path d="M88.9135 15.0122C88.4001 15.7068 87.2404 16.2564 86.6424 15.8155C86.0445 15.3746 86.2377 14.1032 86.7511 13.3995C87.2645 12.6959 88.1675 12.4935 88.7655 12.9435C89.3634 13.3935 89.4269 14.3236 88.9135 15.0122Z" fill="#F5F5F5"/>
<path d="M89.952 18.9381C89.2846 19.4847 88.0283 19.7384 87.5572 19.1646C87.086 18.5908 87.5783 17.4069 88.2427 16.8573C88.9071 16.3076 89.8343 16.3318 90.3054 16.9056C90.7765 17.4794 90.6194 18.3884 89.952 18.9381Z" fill="#F5F5F5"/>
<path d="M62.0445 110.96C94.3834 110.96 120.599 109.43 120.599 107.542C120.599 105.654 94.3834 104.123 62.0445 104.123C29.7056 104.123 3.48975 105.654 3.48975 107.542C3.48975 109.43 29.7056 110.96 62.0445 110.96Z" fill="#F5F5F5"/>
<path d="M116.223 68.3995L94.5486 51.2458L72.874 68.3995V98.8592H116.223V68.3995Z" fill="#8EA716"/>
<path opacity="0.3" d="M116.223 68.3995L94.5486 51.2458L72.874 68.3995V98.8592H116.223V68.3995Z" fill="black"/>
<path d="M117.932 70.8488L94.5484 52.3392L71.1646 70.8488C70.9455 71.022 70.6665 71.1012 70.389 71.0689C70.1116 71.0367 69.8583 70.8955 69.6848 70.6766C69.5115 70.4575 69.4323 70.1786 69.4646 69.9011C69.4969 69.6236 69.638 69.3703 69.8569 69.1968L94.5484 49.6514L119.24 69.1968C119.349 69.2825 119.439 69.3888 119.507 69.5096C119.575 69.6304 119.618 69.7634 119.634 69.9009C119.65 70.0384 119.638 70.1777 119.6 70.3109C119.562 70.444 119.498 70.5683 119.412 70.6766C119.239 70.8955 118.985 71.0367 118.708 71.0689C118.43 71.1012 118.151 71.022 117.932 70.8488Z" fill="#8EA716"/>
<g opacity="0.3">
<path d="M117.932 70.8488L94.5484 52.3392L71.1646 70.8488C70.9455 71.022 70.6665 71.1012 70.389 71.0689C70.1116 71.0367 69.8583 70.8955 69.6848 70.6766C69.5115 70.4575 69.4323 70.1786 69.4646 69.9011C69.4969 69.6236 69.638 69.3703 69.8569 69.1968L94.5484 49.6514L119.24 69.1968C119.349 69.2825 119.439 69.3888 119.507 69.5096C119.575 69.6304 119.618 69.7634 119.634 69.9009C119.65 70.0384 119.638 70.1777 119.6 70.3109C119.562 70.444 119.498 70.5683 119.412 70.6766C119.239 70.8955 118.985 71.0367 118.708 71.0689C118.43 71.1012 118.151 71.022 117.932 70.8488Z" fill="white"/>
</g>
<path d="M94.5482 68.6411C92.0204 68.6411 89.5961 69.6453 87.8087 71.4327C86.0213 73.2201 85.0171 75.6444 85.0171 78.1722V98.8592H104.082V78.1722C104.082 76.9203 103.836 75.6807 103.357 74.5241C102.877 73.3676 102.175 72.3167 101.29 71.4316C100.404 70.5466 99.3533 69.8446 98.1965 69.3658C97.0398 68.887 95.8001 68.6407 94.5482 68.6411Z" fill="#8EA716"/>
<path opacity="0.5" d="M94.5482 68.6411C92.0204 68.6411 89.5961 69.6453 87.8087 71.4327C86.0213 73.2201 85.0171 75.6444 85.0171 78.1722V98.8592H104.082V78.1722C104.082 76.9203 103.836 75.6807 103.357 74.5241C102.877 73.3676 102.175 72.3167 101.29 71.4316C100.404 70.5466 99.3533 69.8446 98.1965 69.3658C97.0398 68.887 95.8001 68.6407 94.5482 68.6411Z" fill="black"/>
<path d="M97.2845 66.2916C97.2845 66.2916 103.841 70.6404 101.054 64.2471C101.054 64.2471 102.992 60.149 100.552 60.4993C98.112 60.8496 97.2845 62.2327 97.2845 62.2327L91.8123 61.9307C91.8123 61.9307 85.2589 57.585 88.0464 63.9753C88.0464 63.9753 86.1045 68.0734 88.5447 67.7231C90.9848 67.3728 91.8123 65.9896 91.8123 65.9896L97.2845 66.2916Z" fill="#8EA716"/>
<path opacity="0.3" d="M97.2845 66.2916C97.2845 66.2916 103.841 70.6404 101.054 64.2471C101.054 64.2471 102.992 60.149 100.552 60.4993C98.112 60.8496 97.2845 62.2327 97.2845 62.2327L91.8123 61.9307C91.8123 61.9307 85.2589 57.585 88.0464 63.9753C88.0464 63.9753 86.1045 68.0734 88.5447 67.7231C90.9848 67.3728 91.8123 65.9896 91.8123 65.9896L97.2845 66.2916Z" fill="white"/>
<path d="M15.98 12.898C15.98 12.898 15.1828 10.7447 15.7264 10.2011C16.27 9.6575 16.4783 12.1248 17.3088 12.5688L15.98 12.898Z" fill="#8EA716"/>
<path d="M29.4613 12.2093C29.4613 12.2093 30.2677 10.346 29.8147 9.84164C29.3617 9.3373 29.0597 11.5026 28.3047 11.856L29.4613 12.2093Z" fill="#8EA716"/>
<path d="M19.3413 8.06596C19.3413 8.06596 19.8305 5.39628 20.498 5.34796C21.1654 5.29964 20.4104 7.4831 20.8543 8.2834L19.3413 8.06596Z" fill="#8EA716"/>
<path d="M25.5232 8.55833C25.5232 8.55833 25.5051 5.84034 24.8558 5.6833C24.2065 5.52626 24.5719 7.7973 23.9951 8.51304L25.5232 8.55833Z" fill="#8EA716"/>
<g opacity="0.5">
<path d="M15.98 12.898C15.98 12.898 15.1828 10.7447 15.7264 10.2011C16.27 9.6575 16.4783 12.1248 17.3088 12.5688L15.98 12.898Z" fill="white"/>
<path d="M29.4613 12.2093C29.4613 12.2093 30.2677 10.346 29.8147 9.84164C29.3617 9.3373 29.0597 11.5026 28.3047 11.856L29.4613 12.2093Z" fill="white"/>
<path d="M19.3413 8.06596C19.3413 8.06596 19.8305 5.39628 20.498 5.34796C21.1654 5.29964 20.4104 7.4831 20.8543 8.2834L19.3413 8.06596Z" fill="white"/>
<path d="M25.5232 8.55833C25.5232 8.55833 25.5051 5.84034 24.8558 5.6833C24.2065 5.52626 24.5719 7.7973 23.9951 8.51304L25.5232 8.55833Z" fill="white"/>
</g>
<g opacity="0.5">
<path d="M15.98 12.898C15.98 12.898 15.1828 10.7447 15.7264 10.2011C16.27 9.6575 16.4783 12.1248 17.3088 12.5688L15.98 12.898Z" fill="black"/>
<path d="M29.4613 12.2093C29.4613 12.2093 30.2677 10.346 29.8147 9.84164C29.3617 9.3373 29.0597 11.5026 28.3047 11.856L29.4613 12.2093Z" fill="black"/>
<path d="M19.3413 8.06596C19.3413 8.06596 19.8305 5.39628 20.498 5.34796C21.1654 5.29964 20.4104 7.4831 20.8543 8.2834L19.3413 8.06596Z" fill="black"/>
<path d="M25.5232 8.55833C25.5232 8.55833 25.5051 5.84034 24.8558 5.6833C24.2065 5.52626 24.5719 7.7973 23.9951 8.51304L25.5232 8.55833Z" fill="black"/>
</g>
<path d="M29.0265 11.1916C28.8599 11.0872 28.67 11.026 28.4739 11.0133C28.2778 11.0007 28.0816 11.037 27.903 11.1192C27.82 11.1534 27.7301 11.1674 27.6406 11.16C27.5511 11.1525 27.4647 11.1238 27.3885 11.0763C27.3123 11.0287 27.2486 10.9637 27.2025 10.8866C27.1565 10.8095 27.1296 10.7226 27.1239 10.6329C27.0393 9.42494 26.6225 7.5163 24.874 7.15692C23.8562 6.94854 22.9774 7.5918 22.458 8.12332C22.3986 8.18321 22.3266 8.22897 22.2471 8.25721C22.1677 8.28545 22.0829 8.29544 21.9991 8.28645C21.9152 8.27746 21.8345 8.24971 21.7628 8.20526C21.6912 8.16082 21.6305 8.10081 21.5852 8.0297C21.4003 7.70583 21.1021 7.46185 20.748 7.34476C20.3939 7.22766 20.009 7.24573 19.6675 7.3955C17.94 8.02366 17.6441 10.1346 17.638 11.4906C17.6372 11.5841 17.6129 11.6758 17.5674 11.7574C17.5218 11.839 17.4566 11.9079 17.3776 11.9578C17.2986 12.0077 17.2083 12.0369 17.115 12.0429C17.0218 12.0489 16.9285 12.0313 16.8438 11.9919C16.2941 11.7383 15.6146 11.8138 15.2643 13.3147C14.612 16.1022 16.9857 24.7303 16.9857 24.7303V35.3456C21.1185 36.758 25.6289 36.5825 29.6395 34.8533L29.262 24.3739C30.7448 13.6227 30.31 11.9919 29.0265 11.1916Z" fill="#8EA716"/>
<path d="M45.1262 27.4272L41.5022 23.4015C42.3168 18.6918 41.3175 13.8483 38.7054 9.84556C36.0933 5.84281 32.0622 2.97783 27.4232 1.82703C22.7841 0.676231 17.8814 1.32501 13.7013 3.64285C9.52128 5.96068 6.37414 9.77557 4.89308 14.32C3.41202 18.8644 3.70695 23.8011 5.71854 28.1368C7.73012 32.4725 11.3091 35.8856 15.7354 37.6893C20.1616 39.4929 25.1068 39.5534 29.5758 37.8584C34.0448 36.1635 37.7061 32.8389 39.8231 28.5536L45.1262 27.4272ZM18.0187 35.1463C15.0597 34.1829 12.4528 32.3636 10.5277 29.9186C8.60257 27.4736 7.44575 24.5126 7.20348 21.4101C6.96121 18.3076 7.64438 15.2029 9.16659 12.4887C10.6888 9.77449 12.9817 7.5726 15.7553 6.16151C18.5289 4.75042 21.6587 4.19348 24.7488 4.56114C27.839 4.92881 30.7507 6.20454 33.1158 8.22704C35.4809 10.2495 37.1931 12.9279 38.036 15.9235C38.8789 18.9192 38.8145 22.0975 37.851 25.0565C37.212 27.0217 36.192 28.8416 34.8493 30.4124C33.5066 31.9832 31.8675 33.274 30.0257 34.211C28.1839 35.148 26.1755 35.7129 24.1153 35.8734C22.055 36.0339 19.9834 35.7868 18.0187 35.1463Z" fill="#8EA716"/>
<path opacity="0.6" d="M45.1262 27.4272L41.5022 23.4015C42.3168 18.6918 41.3175 13.8483 38.7054 9.84556C36.0933 5.84281 32.0622 2.97783 27.4232 1.82703C22.7841 0.676231 17.8814 1.32501 13.7013 3.64285C9.52128 5.96068 6.37414 9.77557 4.89308 14.32C3.41202 18.8644 3.70695 23.8011 5.71854 28.1368C7.73012 32.4725 11.3091 35.8856 15.7354 37.6893C20.1616 39.4929 25.1068 39.5534 29.5758 37.8584C34.0448 36.1635 37.7061 32.8389 39.8231 28.5536L45.1262 27.4272ZM18.0187 35.1463C15.0597 34.1829 12.4528 32.3636 10.5277 29.9186C8.60257 27.4736 7.44575 24.5126 7.20348 21.4101C6.96121 18.3076 7.64438 15.2029 9.16659 12.4887C10.6888 9.77449 12.9817 7.5726 15.7553 6.16151C18.5289 4.75042 21.6587 4.19348 24.7488 4.56114C27.839 4.92881 30.7507 6.20454 33.1158 8.22704C35.4809 10.2495 37.1931 12.9279 38.036 15.9235C38.8789 18.9192 38.8145 22.0975 37.851 25.0565C37.212 27.0217 36.192 28.8416 34.8493 30.4124C33.5066 31.9832 31.8675 33.274 30.0257 34.211C28.1839 35.148 26.1755 35.7129 24.1153 35.8734C22.055 36.0339 19.9834 35.7868 18.0187 35.1463Z" fill="black"/>
<path d="M23.678 20.59C23.3476 20.3987 22.975 20.2922 22.5935 20.2801C22.2119 20.268 21.8333 20.3506 21.4915 20.5205C20.1476 21.1729 17.9974 21.9399 17.3994 20.5024C16.5085 18.3673 19.5949 18.0109 20.7818 15.9362C21.9687 13.8614 23.1978 14.8097 24.4571 16.4103C25.7165 18.0109 28.1959 17.8327 27.9573 20.6806C27.7912 22.6919 25.191 21.4779 23.678 20.59Z" fill="#263238"/>
<path d="M23.5813 34.2071C23.1389 34.1567 22.691 34.1853 22.2585 34.2917C21.7119 34.4095 21.0052 34.3672 20.8995 33.4068C20.7214 31.8062 22.4458 31.4348 23.2129 31.3895C23.9075 31.3502 25.4658 31.5103 25.348 33.1682C25.2695 34.2434 24.2759 34.3007 23.5813 34.2071Z" fill="#263238"/>
<path d="M18.6742 14.3566C18.6742 15.1539 18.1246 15.4468 17.4451 15.4468C16.7656 15.4468 16.2129 15.1448 16.2129 14.3566C16.2129 13.5684 16.7625 12.8979 17.4451 12.8979C18.1276 12.8979 18.6742 13.5563 18.6742 14.3566Z" fill="#263238"/>
<path d="M29.1294 14.1815C29.1294 15.2718 28.3804 15.6674 27.4563 15.6674C26.5322 15.6674 25.7832 15.2718 25.7832 14.1815C25.7832 13.0913 26.5322 12.2095 27.4563 12.2095C28.3804 12.2095 29.1294 13.0913 29.1294 14.1815Z" fill="#263238"/>
<path d="M21.5218 10.1618C21.5218 11.1343 20.9178 11.4876 20.193 11.4876C19.4682 11.4876 18.8672 11.1343 18.8672 10.1618C18.8672 9.18941 19.4712 8.40723 20.193 8.40723C20.9147 8.40723 21.5218 9.19243 21.5218 10.1618Z" fill="#263238"/>
<path d="M26.0852 10.3127C26.0852 11.2852 25.4812 11.6385 24.7595 11.6385C24.0377 11.6385 23.4307 11.2852 23.4307 10.3127C23.4307 9.34029 24.0347 8.55811 24.7595 8.55811C25.4843 8.55811 26.0852 9.34331 26.0852 10.3127Z" fill="#263238"/>
<path d="M40.9617 103.41C39.9243 103.578 38.879 103.693 37.8299 103.755C36.9753 103.734 36.1297 103.453 35.269 103.232L36.0753 102.643C36.0753 102.643 33.9613 102.758 33.2758 102.643C32.3396 102.486 31.491 101.973 30.6242 101.541L31.6691 100.78C31.6691 100.78 29.1384 100.532 28.3471 100.218C27.8881 100.034 27.5408 99.6444 27.1391 99.3304L28.2898 99.0012C28.2898 99.0012 25.4177 97.4912 24.6084 96.7724C23.0984 95.4466 22.3162 93.3115 21.5884 91.0344C21.5884 91.0344 24.2369 92.0824 28.474 94.1843C29.2471 94.5678 31.3702 96.0657 31.3702 96.0657L30.9745 94.4531C32.0134 94.7551 33.1822 95.4768 34.3267 95.9178C35.1391 96.2198 37.38 97.5999 37.38 97.5999L37.0236 96.4946C38.0625 96.6939 39.1708 96.7392 40.2731 97.0261C41.1187 97.2466 43.5287 98.3005 43.5287 98.3005L42.4958 96.6697C44.8152 96.9204 46.745 97.621 49.3965 97.5999V103.688C46.3017 104.187 43.1568 104.297 40.0345 104.017L40.9617 103.41Z" fill="#8EA716"/>
<g opacity="0.2">
<path d="M40.9617 103.41C39.9243 103.578 38.879 103.693 37.8299 103.755C36.9753 103.734 36.1297 103.453 35.269 103.232L36.0753 102.643C36.0753 102.643 33.9613 102.758 33.2758 102.643C32.3396 102.486 31.491 101.973 30.6242 101.541L31.6691 100.78C31.6691 100.78 29.1384 100.532 28.3471 100.218C27.8881 100.034 27.5408 99.6444 27.1391 99.3304L28.2898 99.0012C28.2898 99.0012 25.4177 97.4912 24.6084 96.7724C23.0984 95.4466 22.3162 93.3115 21.5884 91.0344C21.5884 91.0344 24.2369 92.0824 28.474 94.1843C29.2471 94.5678 31.3702 96.0657 31.3702 96.0657L30.9745 94.4531C32.0134 94.7551 33.1822 95.4768 34.3267 95.9178C35.1391 96.2198 37.38 97.5999 37.38 97.5999L37.0236 96.4946C38.0625 96.6939 39.1708 96.7392 40.2731 97.0261C41.1187 97.2466 43.5287 98.3005 43.5287 98.3005L42.4958 96.6697C44.8152 96.9204 46.745 97.621 49.3965 97.5999V103.688C46.3017 104.187 43.1568 104.297 40.0345 104.017L40.9617 103.41Z" fill="black"/>
</g>
<path d="M44.918 85.5168C42.2785 90.4454 45.4254 97.6119 47.2223 103.19C47.2223 103.19 45.3106 104.096 44.8999 106.729C44.8686 106.948 44.8848 107.171 44.9476 107.383C45.0103 107.594 45.1181 107.79 45.2635 107.956C45.4089 108.123 45.5884 108.256 45.7899 108.346C45.9915 108.437 46.2101 108.483 46.431 108.481H52.0392C52.2439 108.483 52.447 108.443 52.636 108.364C52.825 108.285 52.9959 108.169 53.1384 108.022C53.591 107.579 53.904 107.014 54.0387 106.396C54.1734 105.778 54.124 105.133 53.8965 104.543C53.8965 104.543 60.4468 106.512 63.8625 105.101C70.5065 102.359 54.5971 84.496 54.5971 84.496L52.1811 82.2039C52.1811 82.2039 46.6907 82.2039 44.918 85.5168Z" fill="#8EA716"/>
<path opacity="0.2" d="M56.6656 105.192C53.6758 103.764 52.7396 100.004 52.5826 100.931C52.3923 102.018 53.8963 104.555 53.8963 104.555L56.6656 105.192Z" fill="black"/>
<path opacity="0.2" d="M51.5952 102.846C50.7204 102.537 49.7723 102.502 48.8772 102.746C48.8314 102.759 48.7826 102.755 48.7393 102.735C48.696 102.716 48.661 102.681 48.6405 102.639C48.6199 102.596 48.6151 102.547 48.6269 102.501C48.6388 102.455 48.6664 102.414 48.7051 102.387C49.3936 101.864 50.5352 101.39 51.7975 102.498C51.8372 102.528 51.8646 102.572 51.8744 102.62C51.8842 102.669 51.8759 102.719 51.8509 102.762C51.8259 102.805 51.7861 102.837 51.739 102.853C51.6918 102.868 51.6407 102.866 51.5952 102.846Z" fill="black"/>
<path opacity="0.2" d="M50.9244 82.2039H52.1838L52.9086 82.8924C53.5609 88.0657 54.9561 95.8784 52.5794 91.6655C50.7161 88.3647 50.9244 82.2039 50.9244 82.2039Z" fill="black"/>
<path d="M76.078 87.2534C77.5548 85.9035 82.7522 84.4207 83.0754 91.1221C83.3985 97.8234 75.9391 102.547 75.9391 102.547C75.9391 102.547 87.4151 100.967 88.303 104.646C89.1909 108.324 86.0561 107.228 78.639 107.228C71.2219 107.228 67.163 106.986 68.1928 103.51C69.2226 100.034 72.744 90.3006 76.078 87.2534Z" fill="#8EA716"/>
<path opacity="0.2" d="M76.078 87.2534C77.5548 85.9035 82.7522 84.4207 83.0754 91.1221C83.3985 97.8234 75.9391 102.547 75.9391 102.547C75.9391 102.547 87.4151 100.967 88.303 104.646C89.1909 108.324 86.0561 107.228 78.639 107.228C71.2219 107.228 67.163 106.986 68.1928 103.51C69.2226 100.034 72.744 90.3006 76.078 87.2534Z" fill="black"/>
<path d="M75.8818 32.1716C75.9092 31.5712 76.0727 30.985 76.3599 30.4571C76.6472 29.9292 77.0506 29.4735 77.5398 29.1244C79.1978 27.9859 82.4201 25.0565 83.8818 27.258C85.3435 29.4596 84.7214 31.7005 84.5281 33.1772C84.3016 34.8926 84.2986 38.6706 80.3152 38.6706L75.8818 32.1716Z" fill="#8EA716"/>
<path opacity="0.2" d="M75.8818 32.1716C75.9092 31.5712 76.0727 30.985 76.3599 30.4571C76.6472 29.9292 77.0506 29.4735 77.5398 29.1244C79.1978 27.9859 82.4201 25.0565 83.8818 27.258C85.3435 29.4596 84.7214 31.7005 84.5281 33.1772C84.3016 34.8926 84.2986 38.6706 80.3152 38.6706L75.8818 32.1716Z" fill="black"/>
<path d="M67.7277 31.4891C67.7277 31.4891 68.3921 29.5593 67.2294 27.8651C66.0667 26.1709 64.0645 22.1724 61.9112 23.921C59.758 25.6696 59.5768 28.149 59.2446 29.6982C58.858 31.5102 57.5443 35.3275 61.2861 36.6171L67.7277 31.4891Z" fill="#8EA716"/>
<path opacity="0.2" d="M67.7277 31.4891C67.7277 31.4891 68.3921 29.5593 67.2294 27.8651C66.0667 26.1709 64.0645 22.1724 61.9112 23.921C59.758 25.6696 59.5768 28.149 59.2446 29.6982C58.858 31.5102 57.5443 35.3275 61.2861 36.6171L67.7277 31.4891Z" fill="black"/>
<path opacity="0.2" d="M79.645 37.6619L77.229 34.1497C77.3196 33.1561 77.6095 31.3985 78.5518 30.2025C79.9349 28.457 82.6771 26.7809 83.4351 28.3905C84.2837 30.1603 84.1086 34.3128 79.645 37.6619Z" fill="black"/>
<path opacity="0.2" d="M62.2919 35.8228L65.777 33.0444C66.0367 32.0116 66.381 30.1392 65.9069 28.6261C65.2183 26.4125 63.2251 23.8304 61.9507 25.2166C60.5494 26.7417 59.2719 30.9968 62.2919 35.8228Z" fill="black"/>
<path d="M52.0542 76.2033H51.6767C51.6247 76.2024 51.5738 76.1881 51.529 76.1618C51.4842 76.1355 51.4469 76.098 51.4208 76.0531C51.3947 76.0081 51.3806 75.9572 51.3799 75.9052C51.3792 75.8532 51.392 75.802 51.417 75.7563L52.483 73.8598C52.8183 73.2658 53.0511 72.6195 53.1716 71.9481C54.4038 65.0021 54.4068 50.7387 60.1448 48.3408C66.3146 45.7617 74.2572 47.2959 77.6427 50.8262C78.8531 52.163 79.8292 53.6945 80.5298 55.3562L82.1998 57.2286C82.2277 57.2595 82.2483 57.2962 82.2599 57.3362C82.2715 57.3761 82.274 57.4181 82.267 57.4591C82.26 57.5001 82.2438 57.539 82.2196 57.5729C82.1954 57.6067 82.1639 57.6346 82.1274 57.6545L81.9733 57.739L83.1813 60.3272C83.2035 60.3764 83.2108 60.431 83.2024 60.4843C83.194 60.5376 83.1702 60.5874 83.134 60.6274C83.0978 60.6674 83.0508 60.6961 82.9986 60.7098C82.9464 60.7235 82.8913 60.7217 82.8401 60.7047L82.7857 60.6835L83.281 63.4831C83.2903 63.5425 83.2801 63.6034 83.2519 63.6565C83.2237 63.7097 83.1789 63.7522 83.1244 63.7778C83.07 63.8033 83.0086 63.8105 82.9497 63.7982C82.8908 63.7859 82.8375 63.7548 82.7978 63.7096L82.7616 63.6673C83.2586 67.7169 83.0243 71.8228 82.07 75.7896C79.506 86.4049 75.6193 105.349 63.198 105.349C54.2618 105.349 52.024 92.0251 52.0693 82.2403C52.0253 82.2839 51.969 82.3129 51.908 82.3234C51.8469 82.3339 51.7841 82.3254 51.7281 82.2991C51.672 82.2727 51.6255 82.2297 51.5947 82.176C51.5639 82.1223 51.5503 82.0604 51.5559 81.9987L51.8247 79.6099H51.568C51.5211 79.6114 51.4745 79.6019 51.4319 79.5823C51.3893 79.5626 51.3518 79.5333 51.3225 79.4967C51.2932 79.46 51.2728 79.4171 51.263 79.3712C51.2532 79.3253 51.2542 79.2778 51.266 79.2324L52.0542 76.2033Z" fill="#8EA716"/>
<path opacity="0.2" d="M53.6245 95.5072C54.2285 97.5366 56.7865 102.604 60.4678 102.933C64.3365 103.278 66.4535 101.106 68.341 99.5479C72.3968 96.2018 74.4504 79.2444 74.4504 79.2444L76.5644 75.5782L79.4032 71.1599L82.7826 71.7639C82.6256 73.114 82.3865 74.4534 82.0669 75.7745C79.5059 86.4049 75.6192 105.349 63.1979 105.349C58.0971 105.349 55.1828 101.031 53.6245 95.5072Z" fill="black"/>
<path d="M79.3942 54.0484C79.3942 54.0484 79.0258 49.4489 80.4996 47.0541C81.9733 44.6592 82.7857 31.6913 72.0254 30.3233C60.8726 28.9039 57.9341 39.5917 57.762 43.2761C57.5898 46.9605 58.5442 51.4723 58.5442 51.4723L71.5785 56.3527L79.3942 54.0484Z" fill="#8EA716"/>
<path d="M58.3418 39.9875C59.6495 35.4364 63.355 29.2212 72.0254 30.3235C82.3206 31.6312 82.0216 43.5541 80.6868 46.6828C80.9405 45.3903 80.865 43.8018 78.9322 42.0773C76.3561 39.7761 73.2244 42.63 72.2882 40.4194C71.352 38.2087 77.2259 38.8308 75.5105 36.4511C74.3448 34.8354 72.7079 35.9498 71.7506 36.9584C71.6337 37.0806 71.4896 37.1734 71.3299 37.2292C71.1703 37.2851 70.9998 37.3023 70.8322 37.2797C70.6646 37.257 70.5048 37.195 70.3658 37.0988C70.2267 37.0025 70.1124 36.8747 70.0322 36.7259C69.3557 35.4545 67.278 34.6119 66.1304 35.8199C64.0889 37.9883 69.6185 37.3631 68.187 40.0479C67.1451 42.032 61.2893 37.7678 58.3418 39.9875Z" fill="#8EA716"/>
<path opacity="0.2" d="M58.3418 39.9875C59.6495 35.4364 63.355 29.2212 72.0254 30.3235C82.3206 31.6312 82.0216 43.5541 80.6868 46.6828C80.9405 45.3903 80.865 43.8018 78.9322 42.0773C76.3561 39.7761 73.2244 42.63 72.2882 40.4194C71.352 38.2087 77.2259 38.8308 75.5105 36.4511C74.3448 34.8354 72.7079 35.9498 71.7506 36.9584C71.6337 37.0806 71.4896 37.1734 71.3299 37.2292C71.1703 37.2851 70.9998 37.3023 70.8322 37.2797C70.6646 37.257 70.5048 37.195 70.3658 37.0988C70.2267 37.0025 70.1124 36.8747 70.0322 36.7259C69.3557 35.4545 67.278 34.6119 66.1304 35.8199C64.0889 37.9883 69.6185 37.3631 68.187 40.0479C67.1451 42.032 61.2893 37.7678 58.3418 39.9875Z" fill="black"/>
<path d="M69.1501 47.0482C69.2746 47.2066 69.4506 47.3163 69.6476 47.3582C69.8446 47.4002 70.0501 47.3717 70.2283 47.2778C70.7132 47.0331 71.2184 46.831 71.7383 46.6738C73.5321 46.1211 72.3423 43.5148 70.3098 44.0584C70.3098 44.0584 68.22 42.7961 67.5193 44.6624C67.0029 46.0788 68.2834 45.9097 69.1501 47.0482Z" fill="#263238"/>
<g opacity="0.6">
<path d="M67.5586 45.7073L68.075 45.7556C68.075 45.7556 68.7968 44.4691 69.123 45.4748C69.2981 46.0093 68.676 46.1301 68.0569 46.1271C67.8685 46.016 67.7001 45.8741 67.5586 45.7073Z" fill="black"/>
<path d="M70.5878 45.6077C71.071 44.6685 71.5753 46.0546 71.5753 46.0546L72.4994 46.1181C72.4179 46.2662 72.3019 46.3926 72.1612 46.4865C71.4575 46.4503 70.2374 46.2872 70.5878 45.6077Z" fill="black"/>
</g>
<path opacity="0.2" d="M72.5601 54.0242C69.6973 54.2059 66.8334 53.6876 64.2158 52.5142C64.1156 52.4701 64.0036 52.4602 63.8972 52.486C63.7907 52.5119 63.6958 52.5722 63.627 52.6574C63.5583 52.7427 63.5195 52.8482 63.5168 52.9577C63.514 53.0672 63.5474 53.1746 63.6118 53.2632C64.9436 55.042 67.0788 57.5123 68.6401 57.4912C70.6424 57.47 70.3887 56.6214 72.8681 54.9393C72.961 54.8791 73.0312 54.7897 73.0676 54.6852C73.104 54.5807 73.1046 54.4671 73.0693 54.3622C73.034 54.2573 72.9648 54.1671 72.8726 54.106C72.7804 54.0448 72.6704 54.016 72.5601 54.0242Z" fill="black"/>
<path opacity="0.2" d="M71.5816 59.406C71.5816 59.406 74.6016 65.5759 70.73 72.8057L72.6658 69.9216C72.7057 69.8621 72.761 69.8144 72.8258 69.7839C72.8907 69.7533 72.9626 69.7409 73.0339 69.748C73.1053 69.7552 73.1733 69.7816 73.2308 69.8244C73.2883 69.8672 73.3331 69.9248 73.3604 69.9911L73.448 70.2055C73.4599 70.2305 73.4798 70.2508 73.5046 70.2632C73.5294 70.2755 73.5576 70.2792 73.5847 70.2737C73.6118 70.2681 73.6363 70.2536 73.6542 70.2325C73.6721 70.2114 73.6825 70.1849 73.6835 70.1572V67.4905C73.6812 67.4126 73.7019 67.3357 73.7432 67.2695C73.7844 67.2033 73.8443 67.1508 73.9153 67.1185C73.9863 67.0862 74.0652 67.0757 74.1422 67.0881C74.2192 67.1006 74.2908 67.1355 74.3479 67.1885L74.4687 67.2973C74.4891 67.3148 74.5145 67.3253 74.5413 67.3271C74.5681 67.3289 74.5947 67.3219 74.6172 67.3073C74.6397 67.2926 74.6568 67.271 74.666 67.2458C74.6752 67.2206 74.6759 67.1931 74.6681 67.1674L73.6413 64.3105C73.6152 64.2363 73.6118 64.1561 73.6312 64.0799C73.6507 64.0037 73.6923 63.935 73.7507 63.8824C73.8091 63.8298 73.8818 63.7956 73.9596 63.7842C74.0374 63.7728 74.1168 63.7846 74.1879 63.8182C74.2118 63.8287 74.2383 63.8314 74.2638 63.8258C74.2893 63.8203 74.3124 63.8069 74.3298 63.7875C74.3472 63.7681 74.358 63.7437 74.3608 63.7177C74.3635 63.6918 74.3579 63.6657 74.3449 63.6431L73.3513 62.0062C73.3191 61.9539 73.2996 61.8948 73.2942 61.8336C73.2888 61.7724 73.2978 61.7108 73.3203 61.6536C73.3429 61.5965 73.3785 61.5454 73.4242 61.5043C73.4699 61.4633 73.5246 61.4335 73.5839 61.4173L73.6866 61.3901C73.7083 61.384 73.7279 61.372 73.7433 61.3555C73.7587 61.3391 73.7693 61.3187 73.7739 61.2966C73.7786 61.2745 73.7771 61.2516 73.7697 61.2303C73.7623 61.209 73.7492 61.1901 73.7319 61.1757L71.5816 59.406Z" fill="black"/>
<path d="M73.2636 40.0477C73.2243 40.7966 73.5958 41.4278 74.0941 41.452C74.5924 41.4761 75.0273 40.8933 75.0696 40.1443C75.1118 39.3954 74.7374 38.7642 74.2391 38.737C73.7408 38.7098 73.3028 39.2957 73.2636 40.0477Z" fill="#263238"/>
<path d="M65.6322 39.0332C65.5899 39.7852 65.9614 40.4133 66.4597 40.4405C66.958 40.4677 67.3959 39.8818 67.4351 39.1328C67.4744 38.3839 67.1059 37.7527 66.6076 37.7255C66.1093 37.6983 65.6714 38.2842 65.6322 39.0332Z" fill="#263238"/>
<path d="M74.8912 47.6944C74.8912 47.6944 73.4537 49.9805 71.98 49.3433C70.5062 48.706 69.3556 48.247 69.3556 48.247C69.3556 48.247 66.2842 48.851 65.4296 48.247C64.5749 47.643 63.8773 46.3142 63.8773 46.3142C63.8773 46.3142 63.376 51.5992 68.7093 52.5294C73.5926 53.381 74.8912 47.6944 74.8912 47.6944Z" fill="#8EA716"/>
<path d="M74.8912 47.6944C74.8912 47.6944 73.4537 49.9805 71.98 49.3433C70.5062 48.706 69.3556 48.247 69.3556 48.247C69.3556 48.247 66.2842 48.851 65.4296 48.247C64.5749 47.643 63.8773 46.3142 63.8773 46.3142C63.8773 46.3142 63.376 51.5992 68.7093 52.5294C73.5926 53.381 74.8912 47.6944 74.8912 47.6944Z" fill="#263238"/>
<path d="M66.5955 48.5068C67.5216 48.505 68.4456 48.4181 69.3558 48.2471C69.3558 48.2471 70.2104 48.5883 71.3882 49.0896C71.251 50.1965 71.2928 51.3181 71.512 52.4116C71.9681 55.0692 70.0685 56.6819 67.9273 56.3588C65.7861 56.0357 65.1761 53.825 65.8556 52.17C66.2937 50.9956 66.5435 49.7592 66.5955 48.5068Z" fill="#8EA716"/>
<path d="M66.5955 48.5068C67.5216 48.505 68.4456 48.4181 69.3558 48.2471C69.3558 48.2471 70.2104 48.5883 71.3882 49.0896C71.251 50.1965 71.2928 51.3181 71.512 52.4116C71.9681 55.0692 70.0685 56.6819 67.9273 56.3588C65.7861 56.0357 65.1761 53.825 65.8556 52.17C66.2937 50.9956 66.5435 49.7592 66.5955 48.5068Z" fill="#FF5652"/>
<path d="M82.2479 65.2859C82.9244 67.424 83.6794 69.7072 83.0089 74.2221C82.3385 78.737 82.6163 82.0559 81.3177 88.866C80.0191 95.6761 79.5873 101.299 82.2479 103.694C82.2479 103.694 85.3706 104.063 85.4642 107.56C85.4662 107.681 85.4438 107.802 85.3982 107.915C85.3527 108.027 85.2849 108.13 85.199 108.216C85.113 108.302 85.0106 108.369 84.898 108.415C84.7853 108.461 84.6646 108.483 84.5431 108.481H76.8149C76.8149 108.481 75.1569 108.297 75.0663 105.902C75.0663 105.902 73.2936 105.669 73.8583 101.852L73.3057 97.4308C73.3057 97.4308 74.7794 95.0359 74.0425 89.0503C73.3057 83.0646 77.2588 49.4792 82.2479 65.2859Z" fill="#8EA716"/>
<path d="M51.3537 108.481H50.5142C50.5164 107.588 50.6539 106.7 50.9219 105.848C51.0101 105.52 51.1758 105.219 51.4051 104.969C51.8188 104.612 52.4228 105.21 52.0091 105.573C51.4534 106.044 51.3658 107.439 51.3537 108.481Z" fill="#8EA716"/>
<path d="M47.8232 105.848C47.909 105.519 48.075 105.217 48.3064 104.969C48.7202 104.612 49.3242 105.21 48.9104 105.573C48.3578 106.047 48.2702 107.442 48.2551 108.484H47.4155C47.4175 107.59 47.555 106.701 47.8232 105.848Z" fill="#8EA716"/>
<path d="M44.918 107.273C45.0368 106.768 45.2089 106.277 45.4314 105.808C45.5682 105.478 45.7876 105.188 46.0686 104.966C46.5246 104.664 46.9534 105.401 46.4974 105.7C46.6152 105.621 46.4702 105.727 46.428 105.79C46.331 105.933 46.2442 106.082 46.1682 106.237C45.8763 106.869 45.6731 107.537 45.5642 108.224C45.2338 108.003 45.0022 107.662 44.918 107.273Z" fill="#8EA716"/>
<path d="M79.7385 108.481H78.902C79.0243 107.442 78.8127 106.392 78.298 105.482C77.996 105.017 78.745 104.576 79.0319 105.053C79.6207 106.093 79.8679 107.292 79.7385 108.481Z" fill="#8EA716"/>
<path d="M83.0242 108.481C83.0227 108.25 83.0046 108.02 82.9698 107.792C82.8056 106.862 82.3876 105.994 81.7618 105.286C81.4055 104.872 82.0065 104.268 82.3658 104.682C83.3047 105.727 83.84 107.073 83.8758 108.478L83.0242 108.481Z" fill="#8EA716"/>
<g opacity="0.5">
<path opacity="0.2" d="M51.3537 108.481H50.5142C50.5164 107.588 50.6539 106.7 50.9219 105.848C51.0101 105.52 51.1758 105.219 51.4051 104.969C51.8188 104.612 52.4228 105.21 52.0091 105.573C51.4534 106.044 51.3658 107.439 51.3537 108.481Z" fill="black"/>
<path opacity="0.2" d="M47.8232 105.848C47.909 105.519 48.075 105.217 48.3064 104.969C48.7202 104.612 49.3242 105.21 48.9104 105.573C48.3578 106.047 48.2702 107.442 48.2551 108.484H47.4155C47.4175 107.59 47.555 106.701 47.8232 105.848Z" fill="black"/>
<path opacity="0.2" d="M44.918 107.273C45.0368 106.768 45.2089 106.277 45.4314 105.808C45.5682 105.477 45.7876 105.187 46.0686 104.966C46.5246 104.664 46.9534 105.4 46.4974 105.699C46.6152 105.621 46.4702 105.727 46.428 105.79C46.331 105.933 46.2442 106.082 46.1682 106.237C45.8763 106.868 45.6731 107.537 45.5642 108.224C45.2338 108.003 45.0022 107.662 44.918 107.273Z" fill="black"/>
<g opacity="0.2">
<path d="M79.7385 108.481H78.902C79.0243 107.442 78.8127 106.392 78.298 105.482C77.996 105.017 78.745 104.576 79.0319 105.053C79.6207 106.093 79.8679 107.292 79.7385 108.481Z" fill="black"/>
<path d="M81.756 105.286C81.3996 104.872 82.0006 104.268 82.36 104.682C83.2988 105.727 83.8342 107.073 83.87 108.478H83.0153C83.0138 108.247 82.9957 108.017 82.961 107.789" fill="black"/>
</g>
</g>
<path opacity="0.2" d="M79.968 103.498C79.1145 103.197 78.1896 103.163 77.3164 103.401C77.2723 103.412 77.226 103.407 77.1852 103.387C77.1443 103.368 77.1113 103.335 77.0916 103.294C77.0719 103.253 77.0667 103.207 77.0768 103.163C77.0869 103.119 77.1118 103.079 77.1473 103.051C77.8178 102.544 78.9291 102.082 80.1673 103.16C80.2122 103.186 80.2447 103.229 80.2577 103.28C80.2707 103.33 80.2632 103.384 80.2368 103.429C80.2103 103.473 80.1672 103.506 80.1168 103.519C80.0664 103.532 80.0128 103.524 79.968 103.498Z" fill="black"/>
<path d="M50.336 32.2682C50.336 32.2682 49.5991 30.4713 49.3243 30.6102C49.0495 30.7491 49.3243 32.9598 49.3243 32.9598L50.336 32.2682Z" fill="#8EA716"/>
<path d="M53.2835 28.6231C53.1123 28.2776 53.0097 27.9023 52.9815 27.5178C52.9803 27.4658 52.9637 27.4153 52.9338 27.3727C52.9039 27.3302 52.8621 27.2974 52.8135 27.2787C52.765 27.2599 52.712 27.256 52.6613 27.2674C52.6105 27.2787 52.5643 27.3049 52.5285 27.3426C52.3639 27.5111 52.236 27.7119 52.1529 27.9323C52.0697 28.1526 52.0331 28.3879 52.0453 28.6231H53.2835Z" fill="#8EA716"/>
<path d="M55.8233 28.0432C55.6254 27.7747 55.5091 27.455 55.4881 27.1221C55.4837 27.0699 55.4635 27.0202 55.4303 26.9796C55.3972 26.939 55.3525 26.9094 55.3021 26.8947C55.2518 26.88 55.1982 26.8809 55.1484 26.8972C55.0986 26.9135 55.0549 26.9446 55.023 26.9862C54.8566 27.1963 54.7388 27.4407 54.6782 27.7018C54.6176 27.963 54.6158 28.2343 54.6727 28.4962L55.8233 28.0432Z" fill="#8EA716"/>
<path d="M59.2718 30.6043C59.2699 30.221 59.3745 29.8446 59.5738 29.5171C59.6025 29.4744 59.6173 29.4239 59.6163 29.3725C59.6153 29.321 59.5985 29.2711 59.5682 29.2296C59.5378 29.188 59.4954 29.1568 59.4467 29.1402C59.398 29.1235 59.3454 29.1223 59.296 29.1366C58.9823 29.2214 58.7097 29.4166 58.5283 29.6862C58.3469 29.9558 58.2688 30.2818 58.3084 30.6043H59.2718Z" fill="#8EA716"/>
<g opacity="0.5">
<path d="M50.336 32.2682C50.336 32.2682 49.5991 30.4713 49.3243 30.6102C49.0495 30.7491 49.3243 32.9598 49.3243 32.9598L50.336 32.2682Z" fill="white"/>
<path d="M53.2835 28.6231C53.1123 28.2776 53.0097 27.9023 52.9815 27.5178C52.9803 27.4658 52.9637 27.4153 52.9338 27.3727C52.9039 27.3302 52.8621 27.2974 52.8135 27.2787C52.765 27.2599 52.712 27.256 52.6613 27.2674C52.6105 27.2787 52.5643 27.3049 52.5285 27.3426C52.3639 27.5111 52.236 27.7119 52.1529 27.9323C52.0697 28.1526 52.0331 28.3879 52.0453 28.6231H53.2835Z" fill="white"/>
<path d="M55.8233 28.0432C55.6254 27.7747 55.5091 27.455 55.4881 27.1221C55.4837 27.0699 55.4635 27.0202 55.4303 26.9796C55.3972 26.939 55.3525 26.9094 55.3021 26.8947C55.2518 26.88 55.1982 26.8809 55.1484 26.8972C55.0986 26.9135 55.0549 26.9446 55.023 26.9862C54.8566 27.1963 54.7388 27.4407 54.6782 27.7018C54.6176 27.963 54.6158 28.2343 54.6727 28.4962L55.8233 28.0432Z" fill="white"/>
<path d="M59.2723 30.6041C59.2704 30.2207 59.375 29.8444 59.5743 29.5169C59.603 29.4742 59.6178 29.4237 59.6168 29.3722C59.6158 29.3208 59.599 29.2709 59.5686 29.2293C59.5383 29.1878 59.4959 29.1565 59.4472 29.1399C59.3985 29.1233 59.3459 29.122 59.2964 29.1364C58.9827 29.2212 58.7102 29.4163 58.5288 29.6859C58.3473 29.9555 58.2693 30.2815 58.3089 30.6041H59.2723Z" fill="white"/>
</g>
<g opacity="0.5">
<path d="M50.336 32.2682C50.336 32.2682 49.5991 30.4713 49.3243 30.6102C49.0495 30.7491 49.3243 32.9598 49.3243 32.9598L50.336 32.2682Z" fill="black"/>
<path d="M53.2835 28.6231C53.1123 28.2776 53.0097 27.9023 52.9815 27.5178C52.9803 27.4658 52.9637 27.4153 52.9338 27.3727C52.9039 27.3302 52.8621 27.2974 52.8135 27.2787C52.765 27.2599 52.712 27.256 52.6613 27.2674C52.6105 27.2787 52.5643 27.3049 52.5285 27.3426C52.3639 27.5111 52.236 27.7119 52.1529 27.9323C52.0697 28.1526 52.0331 28.3879 52.0453 28.6231H53.2835Z" fill="black"/>
<path d="M55.8233 28.0432C55.6254 27.7747 55.5091 27.455 55.4881 27.1221C55.4837 27.0699 55.4635 27.0202 55.4303 26.9796C55.3972 26.939 55.3525 26.9094 55.3021 26.8947C55.2518 26.88 55.1982 26.8809 55.1484 26.8972C55.0986 26.9135 55.0549 26.9446 55.023 26.9862C54.8566 27.1963 54.7388 27.4407 54.6782 27.7018C54.6176 27.963 54.6158 28.2343 54.6727 28.4962L55.8233 28.0432Z" fill="black"/>
<path d="M59.2723 30.6041C59.2704 30.2207 59.375 29.8444 59.5743 29.5169C59.603 29.4742 59.6178 29.4237 59.6168 29.3722C59.6158 29.3208 59.599 29.2709 59.5686 29.2293C59.5383 29.1878 59.4959 29.1565 59.4472 29.1399C59.3985 29.1233 59.3459 29.122 59.2964 29.1364C58.9827 29.2212 58.7102 29.4163 58.5288 29.6859C58.3473 29.9555 58.2693 30.2815 58.3089 30.6041H59.2723Z" fill="black"/>
</g>
<path opacity="0.2" d="M79.6209 49.5759C79.4288 50.6776 79.3398 51.7948 79.3552 52.913C78.8096 53.0922 78.2552 53.2434 77.6942 53.366C77.5671 53.3948 77.434 53.3802 77.3162 53.3246C77.1984 53.2689 77.1027 53.1754 77.0443 53.0589C76.9859 52.9424 76.9682 52.8097 76.994 52.682C77.0198 52.5543 77.0877 52.4389 77.1868 52.3543C78.1397 51.5624 78.9612 50.6247 79.6209 49.5759Z" fill="black"/>
<path opacity="0.2" d="M58.227 49.7873C57.9985 48.4033 57.8432 47.0081 57.7619 45.6077C58.4579 47.0983 59.3742 48.4757 60.4799 49.6937C60.5665 49.792 60.6175 49.9165 60.6247 50.0473C60.6319 50.1781 60.5948 50.3074 60.5194 50.4145C60.444 50.5216 60.3348 50.6002 60.2093 50.6377C60.0838 50.6751 59.9493 50.6692 59.8276 50.6209C59.4517 50.4744 59.0855 50.3039 58.7314 50.1105C58.9579 51.9829 59.3746 54.7824 59.9575 56.1233C60.8786 58.2373 60.8635 59.5782 60.8635 59.5782L58.2421 59.853L55.6479 55.4347C56.2519 53.1305 57.0673 51.1343 58.227 49.7873Z" fill="black"/>
<path opacity="0.2" d="M54.2075 63.649C56.0195 63.0661 58.3419 63.0873 58.3419 63.0873L61.5189 65.0291C61.5189 65.0291 63.2947 72.7935 58.8402 74.4515C57.4963 74.9528 54.1018 73.5183 53.6699 68.3662C53.836 66.8894 54.0082 65.2858 54.2075 63.649Z" fill="black"/>
<path d="M59.9604 57.6422C59.9604 57.6422 62.2224 60.7528 61.2983 66.3549C61.1741 67.0776 60.7851 67.728 60.2071 68.1792C59.6292 68.6304 58.9038 68.85 58.1726 68.7951C56.2791 68.6592 53.8872 68.3059 53.1443 67.4059C51.3672 65.1623 50.4819 62.3411 50.6588 59.4844C50.8431 55.8937 51.0273 45.4837 51.0273 45.4837C51.0273 45.4837 51.5467 40.8812 50.6407 38.4864C49.7347 36.0915 48.264 32.8662 49.2757 32.0387C49.4398 31.9012 49.6302 31.7984 49.8353 31.7367C50.0403 31.6749 50.2558 31.6554 50.4686 31.6793C50.5727 31.6869 50.6771 31.6701 50.7736 31.6302C50.87 31.5903 50.9558 31.5285 51.0241 31.4496C51.0925 31.3707 51.1415 31.2769 51.1672 31.1758C51.1929 31.0746 51.1946 30.9689 51.1722 30.8669C50.9699 29.9156 50.8551 28.6835 51.5014 28.3543C51.9988 28.1345 52.5592 28.1034 53.0779 28.2667C53.3004 28.3291 53.535 28.3342 53.76 28.2813C53.985 28.2285 54.1929 28.1196 54.3644 27.9647C54.6664 27.6899 55.1707 27.5117 56.0012 27.9103C56.3165 28.0602 56.591 28.2839 56.8014 28.5626C57.0117 28.8413 57.1516 29.1666 57.2092 29.5109C57.2323 29.6164 57.2796 29.715 57.3473 29.799C57.4149 29.8831 57.5012 29.9503 57.5993 29.9954C57.6973 30.0405 57.8045 30.0622 57.9124 30.0588C58.0202 30.0555 58.1259 30.0271 58.2209 29.976C58.4455 29.8282 58.713 29.7595 58.981 29.7808C59.2491 29.8021 59.5023 29.9123 59.7007 30.0938C60.806 31.1055 60.2534 33.3161 59.5165 34.8805C58.7796 36.4449 59.2387 43.6385 58.3085 46.3021C57.3783 48.9658 57.934 55.5252 59.9604 57.6422Z" fill="#8EA716"/>
<path d="M57.8765 32.3074C57.8695 32.4258 57.8868 32.5443 57.9273 32.6557C57.9678 32.7671 58.0306 32.869 58.1119 32.9553C58.1932 33.0415 58.2913 33.1102 58.4001 33.1572C58.5089 33.2042 58.6262 33.2284 58.7448 33.2284C58.8633 33.2284 58.9806 33.2042 59.0894 33.1572C59.1982 33.1102 59.2963 33.0415 59.3776 32.9553C59.4589 32.869 59.5218 32.7671 59.5622 32.6557C59.6027 32.5443 59.62 32.4258 59.613 32.3074C59.613 31.8272 59.2234 31.1628 58.7432 31.1628C58.2631 31.1628 57.8765 31.8272 57.8765 32.3074Z" fill="#263238"/>
<path d="M54.9837 29.9277C55.0211 30.0562 55.0854 30.1753 55.1724 30.2771C55.2593 30.3788 55.3668 30.461 55.4879 30.5181C55.6089 30.5752 55.7407 30.6059 55.8746 30.6083C56.0084 30.6106 56.1412 30.5845 56.2641 30.5317C56.7292 30.3626 56.9074 29.967 56.6658 29.3056C56.4242 28.6442 55.8504 28.2516 55.3853 28.4238C54.9202 28.5959 54.7421 29.2663 54.9837 29.9277Z" fill="#263238"/>
<path d="M50.1003 34.3852C50.65 34.8201 51.3083 34.497 51.707 33.9836C52.1056 33.4702 52.1207 32.9628 51.5711 32.5249C51.0214 32.087 50.2453 31.8786 49.8406 32.392C49.6463 32.7029 49.566 33.0716 49.6134 33.4351C49.6607 33.7987 49.8329 34.1345 50.1003 34.3852Z" fill="#263238"/>
<path d="M52.0602 30.6494C52.1901 31.5131 52.7639 31.8182 53.392 31.7245C54.0202 31.6309 54.1923 31.1658 54.0595 30.3021C53.9266 29.4384 53.3105 28.8193 52.6823 28.9159C52.0542 29.0126 51.9273 29.7887 52.0602 30.6494Z" fill="#263238"/>
<path d="M56.7746 35.7233C57.2518 35.7414 58.5323 35.8622 58.5323 34.9864C58.5323 34.1106 56.6901 34.2737 56.231 33.3405C55.772 32.4073 54.2046 32.0177 53.7909 33.3405C53.3771 34.6632 51.239 34.9411 52.0544 36.0585C52.8698 37.1759 54.5549 35.6357 56.7746 35.7233Z" fill="#263238"/>
<path opacity="0.3" d="M55.521 57.4852C57.4206 56.7574 56.8891 53.3811 56.8891 49.4671C56.8891 41.4853 58.7645 37.4415 54.9261 37.6529C51.0877 37.8643 52.9027 45.3992 52.7547 49.5759C52.6067 53.7525 51.4984 59.0285 55.521 57.4852Z" fill="white"/>
<path d="M54.7752 45.212C55.1225 45.2332 56.0527 45.5352 56.0527 44.6594C56.0527 43.7836 53.8903 43.9678 53.7967 44.6594C53.7031 45.3509 54.4943 45.1939 54.7752 45.212Z" fill="#263238"/>
<path d="M9.00135 105.536C8.42853 106.061 7.77357 106.489 7.06251 106.802C7.80664 106.688 8.56648 106.734 9.29127 106.938C8.65896 107.196 7.97672 107.308 7.29505 107.267C7.72952 107.36 8.14048 107.541 8.50305 107.798L5.78505 108.061C5.73919 107.932 5.72165 107.795 5.73364 107.659C5.74563 107.523 5.78686 107.392 5.85451 107.273C6.37395 106.388 8.08327 105.802 9.00135 105.536Z" fill="#8EA716"/>
<path opacity="0.7" d="M9.00135 105.536C8.42853 106.061 7.77357 106.489 7.06251 106.802C7.80664 106.688 8.56648 106.734 9.29127 106.938C8.65896 107.196 7.97672 107.308 7.29505 107.267C7.72952 107.36 8.14048 107.541 8.50305 107.798L5.78505 108.061C5.73919 107.932 5.72165 107.795 5.73364 107.659C5.74563 107.523 5.78686 107.392 5.85451 107.273C6.37395 106.388 8.08327 105.802 9.00135 105.536Z" fill="white"/>
<path d="M13.1898 105.135C13.9199 105.5 14.5698 106.007 15.1015 106.627C14.4617 106.508 13.803 106.54 13.1777 106.72L15.5152 107.022C14.9995 107.089 14.5248 107.339 14.1774 107.726C14.8114 107.536 15.4828 107.505 16.1313 107.638C16.364 107.705 16.605 107.737 16.847 107.735C16.9685 107.734 17.0869 107.696 17.1865 107.626C17.2862 107.557 17.3626 107.459 17.4057 107.345C17.4403 107.147 17.3947 106.943 17.2789 106.778C16.4605 105.385 14.6485 105.174 13.1898 105.135Z" fill="#8EA716"/>
<path opacity="0.2" d="M13.1898 105.135C13.9199 105.5 14.5698 106.007 15.1015 106.627C14.4617 106.508 13.803 106.54 13.1777 106.72L15.5152 107.022C14.9995 107.089 14.5248 107.339 14.1774 107.726C14.8114 107.536 15.4828 107.505 16.1313 107.638C16.364 107.705 16.605 107.737 16.847 107.735C16.9685 107.734 17.0869 107.696 17.1865 107.626C17.2862 107.557 17.3626 107.459 17.4057 107.345C17.4403 107.147 17.3947 106.943 17.2789 106.778C16.4605 105.385 14.6485 105.174 13.1898 105.135Z" fill="white"/>
<path d="M25.1278 105.416C24.5558 105.942 23.9006 106.369 23.189 106.681C23.9333 106.567 24.6934 106.614 25.4177 106.82C24.7852 107.077 24.103 107.189 23.4215 107.146C23.8562 107.241 24.2671 107.423 24.6295 107.681L21.9115 107.944C21.8657 107.815 21.8481 107.678 21.8601 107.542C21.8721 107.406 21.9133 107.274 21.981 107.155C22.5004 106.267 24.2097 105.682 25.1278 105.416Z" fill="#8EA716"/>
<path opacity="0.2" d="M25.1278 105.416C24.5558 105.942 23.9006 106.369 23.189 106.681C23.9333 106.567 24.6934 106.614 25.4177 106.82C24.7852 107.077 24.103 107.189 23.4215 107.146C23.8562 107.241 24.2671 107.423 24.6295 107.681L21.9115 107.944C21.8657 107.815 21.8481 107.678 21.8601 107.542C21.8721 107.406 21.9133 107.274 21.981 107.155C22.5004 106.267 24.2097 105.682 25.1278 105.416Z" fill="white"/>
<path d="M17.3517 100.837C16.8202 98.3156 14.7937 96.7875 12.7281 95.2503C13.9844 97.4035 15.4612 99.3786 16.1256 101.786C15.2173 100.508 14.0608 99.4262 12.725 98.6055C12.725 98.6055 14.6337 102.311 15.3645 103.03C13.8698 101.482 11.9015 100.478 9.77148 100.176C13.773 102.834 15.2075 105.31 15.742 106.799C15.8733 107.146 16.1083 107.445 16.4151 107.655C16.722 107.864 17.0858 107.975 17.4574 107.971L21.6854 107.943C22.0572 107.94 22.4189 107.822 22.7214 107.606C23.0239 107.39 23.2527 107.086 23.3766 106.735C24.1195 104.742 25.409 103.027 27.3267 102.045C25.7141 102.495 24.3581 102.821 23.4007 104.186C24.0047 102.193 25.0255 101.037 26.9311 100.197C25.1614 100.484 23.4158 101.139 22.7031 102.779C22.7729 101.851 23.0447 100.949 23.4996 100.137C23.9545 99.3245 24.5815 98.6215 25.3366 98.077C23.8266 98.3065 22.3649 99.3847 22.075 100.892C22.0236 98.8864 22.238 96.863 23.3313 95.1838C22.5983 95.6712 21.9756 96.3068 21.5033 97.0496C21.0309 97.7924 20.7195 98.6259 20.5891 99.4964C20.115 97.7659 19.8824 95.2412 17.8711 92.9792C18.5547 94.9365 18.797 97.0208 18.5808 99.0827C18.4087 98.0287 16.8322 95.353 15.3253 94.3775C15.3102 94.3866 17.5117 98.3065 17.3517 100.837Z" fill="#8EA716"/>
<g opacity="0.6">
<path opacity="0.7" d="M17.3517 100.837C16.8202 98.3156 14.7937 96.7875 12.7281 95.2503C13.9844 97.4035 15.4612 99.3786 16.1256 101.786C15.2173 100.508 14.0608 99.4262 12.725 98.6055C12.725 98.6055 14.6337 102.311 15.3645 103.03C13.8698 101.482 11.9015 100.478 9.77148 100.176C13.773 102.834 15.2075 105.31 15.742 106.799C15.8733 107.146 16.1083 107.445 16.4151 107.655C16.722 107.864 17.0858 107.975 17.4574 107.971L21.6854 107.943C22.0572 107.94 22.4189 107.822 22.7214 107.606C23.0239 107.39 23.2527 107.086 23.3766 106.735C24.1195 104.742 25.409 103.027 27.3267 102.045C25.7141 102.495 24.3581 102.821 23.4007 104.186C24.0047 102.193 25.0255 101.037 26.9311 100.197C25.1614 100.484 23.4158 101.139 22.7031 102.779C22.7729 101.851 23.0447 100.949 23.4996 100.137C23.9545 99.3245 24.5815 98.6215 25.3366 98.077C23.8266 98.3065 22.3649 99.3847 22.075 100.892C22.0236 98.8864 22.238 96.863 23.3313 95.1838C22.5983 95.6712 21.9756 96.3068 21.5033 97.0496C21.0309 97.7924 20.7195 98.6259 20.5891 99.4964C20.115 97.7659 19.8824 95.2412 17.8711 92.9792C18.5547 94.9365 18.797 97.0208 18.5808 99.0827C18.4087 98.0287 16.8322 95.353 15.3253 94.3775C15.3102 94.3866 17.5117 98.3065 17.3517 100.837Z" fill="white"/>
</g>
<path d="M9.50256 100.837C8.97104 98.3156 6.94462 96.7875 4.87592 95.2503C6.13526 97.4035 7.61204 99.3786 8.27342 101.786C7.36597 100.507 6.20927 99.4253 4.8729 98.6055C4.8729 98.6055 6.78154 102.311 7.51238 103.03C6.01846 101.483 4.05133 100.479 1.92236 100.176C5.92386 102.834 7.35837 105.31 7.8929 106.799C8.02418 107.146 8.25916 107.445 8.566 107.655C8.87283 107.864 9.23669 107.975 9.60826 107.971L13.8363 107.943C14.208 107.94 14.5697 107.822 14.8723 107.606C15.1748 107.39 15.4036 107.086 15.5275 106.735C16.2704 104.742 17.5599 103.027 19.4776 102.045C17.8649 102.495 16.509 102.821 15.5516 104.186C16.1556 102.193 17.1764 101.037 19.082 100.197C17.3123 100.484 15.5667 101.139 14.854 102.779C14.9249 101.851 15.1976 100.949 15.6529 100.137C16.1083 99.3248 16.7354 98.6218 17.4905 98.077C15.9805 98.3065 14.5188 99.3847 14.2258 100.892C14.1775 98.8864 14.3919 96.863 15.4852 95.1838C14.7518 95.671 14.1285 96.3065 13.6557 97.0493C13.1829 97.7921 12.871 98.6257 12.74 99.4964C12.2689 97.7659 12.0363 95.2412 10.022 92.9792C10.7037 94.937 10.946 97.0208 10.7317 99.0827C10.5596 98.0287 8.98312 95.353 7.47614 94.3775C7.46104 94.3866 9.66262 98.3065 9.50256 100.837Z" fill="#8EA716"/>
<path d="M5.34118 105.135C6.07081 105.501 6.72058 106.008 7.25284 106.627C6.61304 106.508 5.95435 106.54 5.3291 106.72L7.66356 107.022C7.14888 107.09 6.67541 107.34 6.32872 107.726C6.96276 107.536 7.63413 107.505 8.28266 107.638C8.51533 107.705 8.75641 107.737 8.9984 107.735C9.11991 107.734 9.23823 107.696 9.3379 107.626C9.43758 107.557 9.51397 107.459 9.5571 107.345C9.57447 107.247 9.57192 107.146 9.54962 107.048C9.52732 106.951 9.4857 106.859 9.42724 106.778C8.61184 105.385 6.79984 105.174 5.34118 105.135Z" fill="#8EA716"/>
<path d="M17.294 105.416C16.722 105.942 16.0669 106.369 15.3552 106.681C16.0995 106.567 16.8596 106.614 17.584 106.82C16.9514 107.077 16.2692 107.188 15.5877 107.146C16.0225 107.241 16.4335 107.423 16.7957 107.681L14.0777 107.944C14.0311 107.815 14.0131 107.678 14.0251 107.542C14.0371 107.406 14.0788 107.274 14.1472 107.155C14.6515 106.267 16.3578 105.682 17.294 105.416Z" fill="#8EA716"/>
<g opacity="0.6">
<path d="M9.50256 100.837C8.97104 98.3156 6.94462 96.7875 4.87592 95.2503C6.13526 97.4035 7.61204 99.3786 8.27342 101.786C7.36597 100.507 6.20927 99.4253 4.8729 98.6055C4.8729 98.6055 6.78154 102.311 7.51238 103.03C6.01846 101.483 4.05133 100.479 1.92236 100.176C5.92386 102.834 7.35837 105.31 7.8929 106.799C8.02418 107.146 8.25916 107.445 8.566 107.655C8.87283 107.864 9.23669 107.975 9.60826 107.971L13.8363 107.943C14.208 107.94 14.5697 107.822 14.8723 107.606C15.1748 107.39 15.4036 107.086 15.5275 106.735C16.2704 104.742 17.5599 103.027 19.4776 102.045C17.8649 102.495 16.509 102.821 15.5516 104.186C16.1556 102.193 17.1764 101.037 19.082 100.197C17.3123 100.484 15.5667 101.139 14.854 102.779C14.9249 101.851 15.1976 100.949 15.6529 100.137C16.1083 99.3248 16.7354 98.6218 17.4905 98.077C15.9805 98.3065 14.5188 99.3847 14.2258 100.892C14.1775 98.8864 14.3919 96.863 15.4852 95.1838C14.7518 95.671 14.1285 96.3065 13.6557 97.0493C13.1829 97.7921 12.871 98.6257 12.74 99.4964C12.2689 97.7659 12.0363 95.2412 10.022 92.9792C10.7037 94.937 10.946 97.0208 10.7317 99.0827C10.5596 98.0287 8.98312 95.353 7.47614 94.3775C7.46104 94.3866 9.66262 98.3065 9.50256 100.837Z" fill="white"/>
<path d="M5.34118 105.135C6.07081 105.501 6.72058 106.008 7.25284 106.627C6.61304 106.508 5.95435 106.54 5.3291 106.72L7.66356 107.022C7.14888 107.09 6.67541 107.34 6.32872 107.726C6.96276 107.536 7.63413 107.505 8.28266 107.638C8.51533 107.705 8.75641 107.737 8.9984 107.735C9.11991 107.734 9.23823 107.696 9.3379 107.626C9.43758 107.557 9.51397 107.459 9.5571 107.345C9.57447 107.247 9.57192 107.146 9.54962 107.048C9.52732 106.951 9.4857 106.859 9.42724 106.778C8.61184 105.385 6.79984 105.174 5.34118 105.135Z" fill="white"/>
<path d="M17.294 105.416C16.722 105.941 16.0669 106.369 15.3552 106.681C16.0995 106.567 16.8596 106.614 17.584 106.82C16.9514 107.077 16.2692 107.188 15.5877 107.146C16.0225 107.24 16.4335 107.422 16.7957 107.681L14.0777 107.943C14.0311 107.815 14.0131 107.678 14.0251 107.541C14.0371 107.405 14.0788 107.273 14.1472 107.155C14.6515 106.267 16.3578 105.681 17.294 105.416Z" fill="white"/>
</g>
<path d="M113.101 97.0503C113.648 97.3253 114.136 97.7061 114.535 98.1707C114.055 98.0819 113.561 98.1057 113.092 98.2402L114.846 98.4727C114.46 98.5197 114.103 98.7041 113.841 98.9922C114.317 98.8485 114.821 98.8247 115.308 98.9227C115.482 98.9729 115.662 98.9983 115.843 98.9982C115.935 98.9959 116.025 98.9658 116.099 98.9119C116.174 98.8581 116.231 98.7829 116.263 98.6962C116.277 98.6224 116.275 98.5465 116.259 98.4733C116.242 98.4 116.211 98.331 116.166 98.2704C115.556 97.2406 114.197 97.0805 113.101 97.0503Z" fill="#8EA716"/>
<path opacity="0.2" d="M113.101 97.0503C113.648 97.3253 114.136 97.7061 114.535 98.1707C114.055 98.0819 113.561 98.1057 113.092 98.2402L114.846 98.4727C114.46 98.5197 114.103 98.7041 113.841 98.9922C114.317 98.8485 114.821 98.8247 115.308 98.9227C115.482 98.9729 115.662 98.9983 115.843 98.9982C115.935 98.9959 116.025 98.9658 116.099 98.9119C116.174 98.8581 116.231 98.7829 116.263 98.6962C116.277 98.6224 116.275 98.5465 116.259 98.4733C116.242 98.4 116.211 98.331 116.166 98.2704C115.556 97.2406 114.197 97.0805 113.101 97.0503Z" fill="white"/>
<path d="M122.055 97.2646C121.624 97.6579 121.133 97.9782 120.599 98.2129C121.158 98.1263 121.728 98.1613 122.272 98.3156C121.793 98.5085 121.277 98.592 120.762 98.5602C121.088 98.6309 121.397 98.7676 121.668 98.9619L119.627 99.1582C119.591 99.0597 119.577 98.9545 119.586 98.8501C119.596 98.7457 119.628 98.6447 119.681 98.5542C120.086 97.9019 121.366 97.4579 122.055 97.2646Z" fill="#8EA716"/>
<path opacity="0.2" d="M122.055 97.2646C121.624 97.6579 121.133 97.9782 120.599 98.2129C121.158 98.1263 121.728 98.1613 122.272 98.3156C121.793 98.5085 121.277 98.592 120.762 98.5602C121.088 98.6309 121.397 98.7676 121.668 98.9619L119.627 99.1582C119.591 99.0597 119.577 98.9545 119.586 98.8501C119.596 98.7457 119.628 98.6447 119.681 98.5542C120.086 97.9019 121.366 97.4579 122.055 97.2646Z" fill="white"/>
<path d="M116.223 93.834C115.825 91.9435 114.303 90.7959 112.753 89.6452C113.696 91.2609 114.807 92.7407 115.302 94.5437C114.621 93.5865 113.754 92.7762 112.753 92.1609C112.753 92.1609 114.185 94.9393 114.731 95.4829C113.611 94.3221 112.134 93.5694 110.537 93.3447C113.539 95.3379 114.605 97.2043 115.015 98.3126C115.114 98.5729 115.291 98.7965 115.521 98.9536C115.751 99.1107 116.023 99.1937 116.302 99.1915L119.479 99.1673C119.757 99.1634 120.028 99.0745 120.255 98.9126C120.481 98.7507 120.653 98.5235 120.747 98.2613C121.253 96.7565 122.311 95.4994 123.707 94.743C122.499 95.0812 121.481 95.3259 120.756 96.3496C120.924 95.6746 121.252 95.0502 121.714 94.5296C122.175 94.009 122.755 93.6077 123.405 93.3598C122.079 93.5712 120.768 94.0665 120.225 95.2957C120.277 94.5994 120.481 93.923 120.822 93.3137C121.164 92.7044 121.634 92.177 122.2 91.7683C121.064 91.9404 119.974 92.7498 119.754 93.8823C119.717 92.3723 119.877 90.8623 120.699 89.603C120.149 89.9675 119.681 90.4435 119.326 91.0001C118.971 91.5567 118.737 92.1816 118.639 92.8344C118.286 91.5388 118.111 89.6452 116.601 87.948C117.113 89.4164 117.295 90.9795 117.135 92.5263C117.005 91.7351 115.822 89.7268 114.692 88.9959C114.692 89.002 116.35 91.9314 116.223 93.834Z" fill="#8EA716"/>
<g opacity="0.6">
<path opacity="0.7" d="M116.223 93.834C115.825 91.9435 114.303 90.7959 112.753 89.6452C113.696 91.2609 114.807 92.7407 115.302 94.5437C114.621 93.5865 113.754 92.7762 112.753 92.1609C112.753 92.1609 114.185 94.9393 114.731 95.4829C113.611 94.3221 112.134 93.5694 110.537 93.3447C113.539 95.3379 114.605 97.2043 115.015 98.3126C115.114 98.5729 115.291 98.7965 115.521 98.9536C115.751 99.1107 116.023 99.1937 116.302 99.1915L119.479 99.1673C119.757 99.1634 120.028 99.0745 120.255 98.9126C120.481 98.7507 120.653 98.5235 120.747 98.2613C121.253 96.7565 122.311 95.4994 123.707 94.743C122.499 95.0812 121.481 95.3259 120.756 96.3496C120.924 95.6746 121.252 95.0502 121.714 94.5296C122.175 94.009 122.755 93.6077 123.405 93.3598C122.079 93.5712 120.768 94.0665 120.225 95.2957C120.277 94.5994 120.481 93.923 120.822 93.3137C121.164 92.7044 121.634 92.177 122.2 91.7683C121.064 91.9404 119.974 92.7498 119.754 93.8823C119.717 92.3723 119.877 90.8623 120.699 89.603C120.149 89.9675 119.681 90.4435 119.326 91.0001C118.971 91.5567 118.737 92.1816 118.639 92.8344C118.286 91.5388 118.111 89.6452 116.601 87.948C117.113 89.4164 117.295 90.9795 117.135 92.5263C117.005 91.7351 115.822 89.7268 114.692 88.9959C114.692 89.002 116.35 91.9314 116.223 93.834Z" fill="white"/>
</g>
<path d="M110.338 93.834C109.939 91.9435 108.417 90.7959 106.868 89.6452C107.81 91.2609 108.918 92.7407 109.416 94.5437C108.735 93.5858 107.867 92.7754 106.865 92.1609C106.865 92.1609 108.296 94.9393 108.846 95.4829C107.725 94.3221 106.249 93.5694 104.651 93.3447C107.653 95.3379 108.719 97.2043 109.13 98.3126C109.229 98.5729 109.405 98.7965 109.635 98.9536C109.865 99.1107 110.138 99.1937 110.416 99.1915L113.59 99.1673C113.869 99.164 114.14 99.0754 114.368 98.9135C114.595 98.7515 114.767 98.524 114.861 98.2613C115.368 96.7565 116.425 95.4994 117.821 94.743C116.613 95.0812 115.595 95.3259 114.871 96.3496C115.038 95.6749 115.366 95.0505 115.826 94.5299C116.287 94.0093 116.867 93.6079 117.516 93.3598C116.19 93.5712 114.883 94.0665 114.339 95.2957C114.392 94.5994 114.596 93.923 114.937 93.3137C115.278 92.7044 115.748 92.177 116.314 91.7683C115.179 91.9404 114.085 92.7498 113.868 93.8823C113.832 92.3723 113.992 90.8623 114.813 89.603C114.263 89.9675 113.795 90.4435 113.44 91.0001C113.086 91.5567 112.852 92.1816 112.754 92.8344C112.4 91.5388 112.225 89.6452 110.715 87.948C111.227 89.4164 111.408 90.9797 111.247 92.5263C111.12 91.7351 109.936 89.7268 108.806 88.9959C108.8 89.002 110.455 91.9314 110.338 93.834Z" fill="#8EA716"/>
<path d="M107.215 97.0503C107.762 97.3261 108.249 97.7068 108.649 98.1707C108.169 98.0819 107.675 98.1057 107.206 98.2402L108.957 98.4727C108.572 98.5204 108.216 98.7047 107.955 98.9922C108.431 98.8485 108.935 98.8247 109.422 98.9227C109.596 98.9733 109.776 98.9987 109.957 98.9982C110.049 98.9959 110.138 98.9658 110.213 98.9119C110.288 98.8581 110.345 98.7829 110.377 98.6962C110.39 98.6224 110.388 98.5466 110.371 98.4735C110.355 98.4004 110.324 98.3313 110.28 98.2704C109.667 97.2406 108.308 97.0805 107.215 97.0503Z" fill="#8EA716"/>
<path d="M116.169 97.2646C115.738 97.6579 115.247 97.9782 114.713 98.2129C115.272 98.1263 115.842 98.1613 116.386 98.3156C115.907 98.5082 115.391 98.5917 114.876 98.5602C115.202 98.6309 115.511 98.7676 115.782 98.9619L113.741 99.1582C113.704 99.0599 113.69 98.9546 113.699 98.85C113.709 98.7455 113.741 98.6444 113.795 98.5542C114.2 97.9019 115.477 97.4579 116.169 97.2646Z" fill="#8EA716"/>
<g opacity="0.6">
<path d="M110.338 93.834C109.939 91.9435 108.417 90.7959 106.868 89.6452C107.81 91.2609 108.918 92.7407 109.416 94.5437C108.735 93.5858 107.867 92.7754 106.865 92.1609C106.865 92.1609 108.296 94.9393 108.846 95.4829C107.725 94.3221 106.249 93.5694 104.651 93.3447C107.653 95.3379 108.719 97.2043 109.13 98.3126C109.229 98.5729 109.405 98.7965 109.635 98.9536C109.865 99.1107 110.138 99.1937 110.416 99.1915L113.59 99.1673C113.869 99.164 114.14 99.0754 114.368 98.9135C114.595 98.7515 114.767 98.524 114.861 98.2613C115.368 96.7565 116.425 95.4994 117.821 94.743C116.613 95.0812 115.595 95.3259 114.871 96.3496C115.038 95.6749 115.366 95.0505 115.826 94.5299C116.287 94.0093 116.867 93.6079 117.516 93.3598C116.19 93.5712 114.883 94.0665 114.339 95.2957C114.392 94.5994 114.596 93.923 114.937 93.3137C115.278 92.7044 115.748 92.177 116.314 91.7683C115.179 91.9404 114.085 92.7498 113.868 93.8823C113.832 92.3723 113.992 90.8623 114.813 89.603C114.263 89.9675 113.795 90.4435 113.44 91.0001C113.086 91.5567 112.852 92.1816 112.754 92.8344C112.4 91.5388 112.225 89.6452 110.715 87.948C111.227 89.4164 111.408 90.9797 111.247 92.5263C111.12 91.7351 109.936 89.7268 108.806 88.9959C108.8 89.002 110.455 91.9314 110.338 93.834Z" fill="white"/>
<path d="M107.215 97.0503C107.762 97.3261 108.249 97.7068 108.649 98.1707C108.169 98.0819 107.675 98.1057 107.206 98.2402L108.957 98.4727C108.572 98.5204 108.216 98.7047 107.955 98.9922C108.431 98.8485 108.935 98.8247 109.422 98.9227C109.596 98.9733 109.776 98.9987 109.957 98.9982C110.049 98.9959 110.138 98.9658 110.213 98.9119C110.288 98.8581 110.345 98.7829 110.377 98.6962C110.39 98.6224 110.388 98.5466 110.371 98.4735C110.355 98.4004 110.324 98.3313 110.28 98.2704C109.667 97.2406 108.308 97.0805 107.215 97.0503Z" fill="white"/>
<path d="M116.169 97.2646C115.739 97.6579 115.247 97.9782 114.714 98.2129C115.272 98.1263 115.843 98.1613 116.387 98.3156C115.908 98.5082 115.392 98.5917 114.877 98.5602C115.203 98.6309 115.511 98.7676 115.783 98.9619L113.741 99.1582C113.704 99.0599 113.69 98.9546 113.7 98.85C113.709 98.7455 113.742 98.6444 113.796 98.5542C114.2 97.9019 115.478 97.4579 116.169 97.2646Z" fill="white"/>
</g>
</g>
<defs>
<clipPath id="clip0_11_85">
<rect width="127" height="111" fill="white"/>
</clipPath>
</defs>
</svg>
