<svg width="130" height="111" viewBox="0 0 130 111" fill="none" xmlns="http://www.w3.org/2000/svg">
<g clip-path="url(#clip0_11_845)">
<path d="M37.2086 32.6348C37.013 32.3283 36.7272 32.0901 36.3904 31.953C36.0714 31.8043 35.7139 31.7585 35.3677 31.822C35.1884 31.8647 35.0193 31.9426 34.8704 32.0512C34.7215 32.1598 34.5957 32.297 34.5004 32.4548C34.3858 32.645 34.3193 32.8603 34.3068 33.0821C34.1442 32.9657 33.958 32.8866 33.7613 32.8502C33.5778 32.8184 33.3896 32.8239 33.2083 32.8666C33.0269 32.9092 32.856 32.9881 32.7059 33.0984C32.4293 33.3173 32.2274 33.6165 32.1277 33.9548C32.0147 34.2958 32.009 34.6632 32.1113 35.0075C32.2506 35.4453 32.5257 35.8274 32.8968 36.0984C33.3039 36.356 33.7669 36.5121 34.2468 36.5539C35.035 36.6466 36.0604 36.7448 36.0604 36.7448C36.0604 36.7448 36.5159 35.9266 36.9659 35.2639C37.2509 34.875 37.438 34.4231 37.5113 33.9466C37.5543 33.4881 37.4481 33.028 37.2086 32.6348Z" fill="#E0E0E0"/>
<path d="M95.2393 53.9075C95.1714 53.5541 94.9962 53.2303 94.7375 52.9802C94.495 52.7241 94.1783 52.5505 93.832 52.4839C93.5372 52.4358 93.2348 52.4858 92.9712 52.6262C92.7077 52.7666 92.4975 52.9897 92.3729 53.2611C92.2639 53.0929 92.1185 52.9513 91.9475 52.8466C91.7887 52.7493 91.6117 52.6856 91.4274 52.6593C91.243 52.633 91.0553 52.6448 90.8756 52.6939C90.5377 52.7942 90.24 52.9984 90.0247 53.2775C89.7948 53.5543 89.6558 53.8952 89.6266 54.2539C89.5953 54.7111 89.7119 55.1662 89.9593 55.5521C90.2451 55.9404 90.619 56.2553 91.0502 56.4711C91.7484 56.8448 92.6702 57.3084 92.6702 57.3084C92.6702 57.3084 93.3956 56.7057 94.0529 56.2611C94.4602 56.0023 94.7997 55.6498 95.0429 55.233C95.2487 54.8236 95.3175 54.359 95.2393 53.9075Z" fill="#E0E0E0"/>
<path d="M71.2176 14.283C71.221 13.8205 71.0841 13.3678 70.8248 12.9848C70.5851 12.6042 70.2336 12.307 69.8185 12.1339C69.4596 11.9969 69.0655 11.982 68.6973 12.0915C68.329 12.2009 68.0071 12.4286 67.7812 12.7393C67.6862 12.4991 67.5391 12.283 67.3503 12.1066C67.1743 11.9446 66.9673 11.8198 66.7419 11.7397C66.5165 11.6596 66.2773 11.6257 66.0385 11.6402C65.5876 11.682 65.1612 11.8642 64.8194 12.1611C64.4593 12.4508 64.1965 12.8439 64.0667 13.2875C63.9116 13.856 63.9432 14.4592 64.1567 15.0084C64.4166 15.5701 64.8064 16.0618 65.2939 16.443C66.0821 17.0921 67.1212 17.913 67.1212 17.913C67.1212 17.913 68.1903 17.3375 69.1339 16.9448C69.7109 16.7213 70.2261 16.3632 70.6367 15.9002C70.9995 15.4378 71.2033 14.8706 71.2176 14.283Z" fill="#E0E0E0"/>
<path d="M110.294 34.4346C110.249 33.4561 109.905 32.5147 109.309 31.7374C108.753 30.9555 107.966 30.3671 107.059 30.0546C106.575 29.9041 106.065 29.8533 105.561 29.9053C105.056 29.9573 104.568 30.1111 104.125 30.3574C103.596 30.6527 103.147 31.0731 102.818 31.5819C102.49 30.8679 101.943 30.2769 101.257 29.8944C100.57 29.512 99.7799 29.3579 99.0001 29.4546C98.051 29.5974 97.1705 30.0343 96.4828 30.7037C95.7549 31.3581 95.2464 32.2209 95.0264 33.1746C94.7626 34.4001 94.9013 35.678 95.4219 36.8183C95.981 37.9746 96.9682 38.9592 98.0019 39.7201C99.7446 40.9992 102.046 42.611 102.046 42.611C102.046 42.611 104.228 41.2637 106.184 40.3228C107.34 39.761 108.488 38.9592 109.246 37.9365C109.963 36.912 110.33 35.6841 110.294 34.4346Z" fill="#F5F5F5"/>
<path d="M31.1757 9.05473C30.7447 8.17605 30.0546 7.4507 29.1984 6.97655C28.3793 6.48106 27.4257 6.25411 26.4711 6.32746C25.6592 6.40863 24.8968 6.75547 24.3021 7.31416C23.7074 7.87286 23.3137 8.61218 23.1821 9.41746C22.596 8.89666 21.8596 8.57557 21.0792 8.50057C20.2988 8.42557 19.5147 8.60053 18.8402 9.00019C18.0263 9.50789 17.3928 10.2588 17.0293 11.1466C16.6224 12.038 16.4996 13.033 16.6775 13.9966C16.9237 15.2199 17.5578 16.3313 18.4857 17.1656C19.4593 18.0056 20.7548 18.5129 22.0093 18.802C24.1175 19.2793 26.8693 19.8438 26.8693 19.8438C26.8693 19.8438 28.3421 17.7275 29.7521 16.0911C30.5893 15.1147 31.3257 13.9366 31.6093 12.682C31.8584 11.4577 31.7064 10.1858 31.1757 9.05473Z" fill="#F5F5F5"/>
<path d="M90.1094 4.15103C90.0398 3.26739 89.6999 2.42659 89.1358 1.74285C88.6112 1.05089 87.8823 0.541404 87.0522 0.286482C86.3428 0.0863712 85.5872 0.125679 84.9024 0.39832C84.2176 0.670961 83.6417 1.16173 83.264 1.79466C83.0407 1.35144 82.7222 0.963074 82.3313 0.657391C81.9661 0.379571 81.5488 0.178184 81.1041 0.065255C80.6594 -0.0476736 80.1965 -0.0698269 79.7431 0.000118364C78.889 0.157965 78.106 0.579546 77.504 1.20557C76.8649 1.82009 76.4299 2.61592 76.2576 3.48557C76.0572 4.59825 76.2207 5.7459 76.724 6.7583C77.316 7.78956 78.1464 8.66396 79.1458 9.3083C80.7603 10.3992 82.8903 11.8038 82.8903 11.8038C82.8903 11.8038 84.8349 10.5192 86.5667 9.62194C87.633 9.09761 88.5587 8.32622 89.2667 7.37194C89.8878 6.41736 90.1834 5.28747 90.1094 4.15103Z" fill="#F5F5F5"/>
<path d="M24.6577 63.2893C24.6246 62.8761 24.4657 62.483 24.2022 62.1629C23.9568 61.8396 23.6164 61.6012 23.2286 61.4811C22.8979 61.3873 22.5456 61.4052 22.2261 61.5319C21.9066 61.6586 21.6378 61.8871 21.4613 62.182C21.3125 61.8867 21.074 61.6462 20.7801 61.4948C20.4861 61.3434 20.1518 61.289 19.825 61.3393C19.4216 61.4126 19.052 61.6122 18.7695 61.9093C18.4713 62.1959 18.2685 62.5672 18.1886 62.9729C18.0953 63.4922 18.1718 64.0278 18.4068 64.5002C18.6824 64.982 19.0696 65.3907 19.5359 65.692C20.2913 66.2075 21.2868 66.8566 21.2868 66.8566C21.2868 66.8566 22.1922 66.2566 23.0022 65.8311C23.5005 65.5862 23.9333 65.2263 24.265 64.7811C24.5512 64.3383 24.6888 63.8157 24.6577 63.2893Z" fill="#F5F5F5"/>
<path d="M52.7213 3.16636C52.737 2.67541 52.6008 2.19158 52.3313 1.78091C52.0844 1.36925 51.7142 1.04577 51.2731 0.856362C51.0367 0.76301 50.7839 0.718508 50.5298 0.725539C50.2758 0.73257 50.0258 0.790988 49.7949 0.897272C49.5178 1.02399 49.2762 1.21694 49.0913 1.45909C48.9953 1.20174 48.8435 0.968879 48.6467 0.777271C48.4627 0.601692 48.2452 0.465058 48.0071 0.37555C47.769 0.286043 47.5154 0.245504 47.2613 0.256362C46.7824 0.293242 46.3268 0.478144 45.9576 0.785454C45.5703 1.08595 45.2847 1.49818 45.1394 1.96636C44.9624 2.56606 44.9835 3.20684 45.1994 3.79364C45.463 4.39656 45.8681 4.92702 46.3804 5.34C47.1985 6.04636 48.2894 6.93818 48.2894 6.93818C48.2894 6.93818 49.4376 6.34636 50.444 5.95091C51.0635 5.72215 51.6191 5.34803 52.064 4.86C52.4582 4.38006 52.6885 3.78658 52.7213 3.16636Z" fill="#F5F5F5"/>
<path d="M19.5684 40.7919C19.5937 39.9879 19.3709 39.1957 18.9302 38.5228C18.5213 37.8461 17.9097 37.3156 17.182 37.0064C16.5644 36.7609 15.8833 36.7245 15.243 36.9028C14.6027 37.0811 14.0384 37.4643 13.6366 37.9937C13.41 37.3897 12.9973 36.8734 12.458 36.5194C11.9187 36.1655 11.2808 35.9922 10.6366 36.0246C9.85092 36.084 9.10341 36.3872 8.4984 36.8919C7.86295 37.3837 7.39366 38.0586 7.15385 38.8255C6.86387 39.8101 6.89829 40.8619 7.25203 41.8255C7.68554 42.8128 8.34846 43.6823 9.18567 44.3619C10.5493 45.5182 12.3193 46.98 12.3193 46.98C12.3193 46.98 14.1984 46.0119 15.8484 45.3601C16.8622 44.9927 17.7731 44.3876 18.5048 43.5955C19.1525 42.8002 19.5256 41.8167 19.5684 40.7919Z" fill="#F5F5F5"/>
<path d="M121.666 49.6365C121.682 49.1245 121.54 48.62 121.26 48.1911C121 47.7624 120.613 47.425 120.153 47.2256C119.758 47.0657 119.321 47.0407 118.911 47.1547C118.501 47.2686 118.139 47.515 117.884 47.8556C117.741 47.4704 117.478 47.1409 117.135 46.9152C116.792 46.6895 116.385 46.5794 115.975 46.6011C115.474 46.6348 114.997 46.8257 114.611 47.1465C114.206 47.4602 113.907 47.8904 113.755 48.3792C113.568 49.0056 113.59 49.6755 113.817 50.2883C114.092 50.9171 114.514 51.4708 115.047 51.9029C115.906 52.6392 117.044 53.5692 117.044 53.5692C117.044 53.5692 118.238 52.9529 119.291 52.5383C119.936 52.3032 120.515 51.9181 120.982 51.4147C121.396 50.9112 121.636 50.2875 121.666 49.6365Z" fill="#F5F5F5"/>
<path d="M103.538 15.7228C103.553 15.2733 103.428 14.8304 103.181 14.4546C102.956 14.0792 102.618 13.7844 102.216 13.6119C101.872 13.4724 101.491 13.4503 101.133 13.5489C100.775 13.6475 100.46 13.8613 100.236 14.1573C100.143 13.9261 100.001 13.7183 99.8183 13.5491C99.6512 13.3891 99.4534 13.2646 99.2368 13.1831C99.0203 13.1015 98.7895 13.0646 98.5583 13.0746C98.1211 13.1064 97.7049 13.2753 97.3692 13.5573C97.0161 13.8306 96.7552 14.2056 96.622 14.6319C96.4595 15.1777 96.4786 15.7615 96.6765 16.2955C96.9177 16.8441 97.286 17.3275 97.7511 17.7055C98.5011 18.3464 99.4938 19.1619 99.4938 19.1619C99.4938 19.1619 100.536 18.6164 101.455 18.2619C102.018 18.0571 102.524 17.7204 102.93 17.28C103.295 16.84 103.509 16.2938 103.538 15.7228Z" fill="#F5F5F5"/>
<path d="M20.2202 105.947C23.2202 110.037 28.5848 113.684 33.3111 115.519C38.0375 117.355 41.6102 118.247 46.5766 119.302C56.4766 121.416 69.3384 120.742 80.1711 118.961C91.0039 117.18 101.973 113.779 109.274 105.597L20.2202 105.947Z" fill="#EBEBEB"/>
<path d="M100.004 106.195L99.8593 106.317C99.7557 106.396 99.6111 106.514 99.4229 106.664C99.0438 106.969 98.4657 107.397 97.7047 107.926C96.9438 108.455 95.9838 109.066 94.8329 109.713C93.5301 110.44 92.1901 111.098 90.8184 111.685C87.2343 113.195 83.4903 114.293 79.6584 114.957C75.3411 115.745 70.5138 116.1 65.4547 116.133C60.3956 116.165 55.5656 115.999 51.2102 115.437C49.1481 115.176 47.1042 114.787 45.0902 114.273C43.3363 113.824 41.6173 113.249 39.9466 112.552C37.5198 111.553 35.2377 110.234 33.1611 108.63C32.4329 108.055 31.8929 107.575 31.5411 107.239L31.1402 106.855C31.0502 106.767 31.0093 106.718 31.0093 106.718L31.1511 106.844L31.5602 107.217C31.9202 107.547 32.4629 108.019 33.1966 108.581C35.281 110.163 37.5641 111.465 39.9875 112.454C41.656 113.143 43.3723 113.711 45.1229 114.153C47.1331 114.657 49.1724 115.038 51.2293 115.293C55.5738 115.838 60.3984 115.985 65.4547 115.977C70.5111 115.969 75.3247 115.595 79.6366 114.815C83.4617 114.158 87.2007 113.072 90.7829 111.578C92.1527 111 93.4917 110.352 94.7947 109.636C95.9456 108.995 96.9029 108.39 97.672 107.875C98.4411 107.359 99.022 106.931 99.4066 106.631L99.8484 106.295C99.9493 106.23 100.004 106.195 100.004 106.195Z" fill="white"/>
<path d="M82.7537 105.546C82.7537 105.546 82.7319 105.567 82.6801 105.606L82.4592 105.767C82.2655 105.908 81.9683 106.105 81.5783 106.347C80.4693 107.019 79.2996 107.584 78.0846 108.036C76.2813 108.703 74.4143 109.184 72.5128 109.47C70.1854 109.818 67.8351 109.99 65.4819 109.983C63.1309 110.014 60.7799 109.914 58.4401 109.683C56.5247 109.491 54.6393 109.07 52.8246 108.428C51.6014 107.989 50.4385 107.397 49.3637 106.667C48.9873 106.394 48.7092 106.178 48.5237 106.023L48.3192 105.84L48.251 105.777C48.2784 105.792 48.304 105.809 48.3273 105.829L48.5428 106.001C48.731 106.151 49.0146 106.361 49.3937 106.62C50.4735 107.327 51.6346 107.901 52.8519 108.33C54.6632 108.954 56.5416 109.362 58.4482 109.547C60.784 109.77 63.1302 109.866 65.4764 109.836C67.8219 109.843 70.1647 109.676 72.4855 109.337C74.3806 109.057 76.2428 108.588 78.0437 107.935C79.2572 107.496 80.4284 106.949 81.5428 106.298C81.9355 106.067 82.2382 105.878 82.4373 105.753L82.6664 105.603L82.7537 105.546Z" fill="white"/>
<path d="M123.215 105.731C123.215 105.769 96.7609 105.802 64.1563 105.802C31.5518 105.802 5.0918 105.769 5.0918 105.731C5.0918 105.693 31.53 105.66 64.1563 105.66C96.7827 105.66 123.215 105.69 123.215 105.731Z" fill="#263238"/>
<path d="M129.073 81.3055C128.734 81.3401 128.407 81.4539 128.12 81.6377C127.832 81.8214 127.592 82.0701 127.418 82.3637C129.251 79.5082 129.717 75.6437 128.637 72.3082C128.424 71.6618 128.108 70.9746 127.524 70.7209C127.327 70.6495 127.112 70.6447 126.912 70.7072C126.712 70.7698 126.538 70.8963 126.417 71.0673C126.572 70.0929 126.578 69.1006 126.433 68.1246C126.368 67.6882 126.248 67.2164 125.918 66.9573C125.462 66.5973 124.789 66.8346 124.44 67.3037C124.091 67.7727 123.979 68.3946 123.894 69C122.086 64.3637 117.894 60.9327 113.353 60.3491C112.451 60.2318 111.444 60.2482 110.754 60.8673C110.064 61.4864 109.922 62.8937 110.713 63.4037C109.857 63.09 108.96 62.8037 108.071 62.9209C107.182 63.0382 106.298 63.6627 106.096 64.6173C105.823 65.8555 106.767 67.0309 107.732 67.7591C109.05 68.7464 110.555 69.3764 111.954 70.2137C113.353 71.0509 114.701 72.1827 115.35 73.7782C116.168 75.8127 115.691 78.1964 114.771 80.1464C113.056 83.7927 109.832 86.5255 106.17 87.4336L109.153 94.0255C112.928 96.6 123.15 94.5027 126.122 90.99C126.592 90.4446 127.028 89.7491 126.982 88.9855C126.935 88.2218 126.163 87.4909 125.547 87.8264C127.579 86.4546 129.957 82.2409 129.073 81.3055Z" fill="#632CA9"/>
<g opacity="0.6">
<path d="M106.091 64.6093C105.818 65.8475 106.762 67.0229 107.727 67.7511C109.044 68.7384 110.55 69.3684 111.949 70.2056C112.539 70.556 113.096 70.9594 113.612 71.4111C114.182 70.912 114.398 69.9765 114.262 69.1556C114.106 68.212 113.593 67.3856 113.094 66.592C113.741 67.4199 114.55 68.1083 115.47 68.6156C115.805 68.7984 116.192 68.9565 116.542 68.8175C117.106 68.5884 117.196 67.7265 116.972 67.0993C116.749 66.472 116.318 65.9511 116.154 65.3102C116.639 65.8019 117.189 66.2233 117.791 66.562C118.082 66.7258 118.405 66.8226 118.739 66.8453C119.072 66.8679 119.406 66.8159 119.716 66.6929C120.414 66.3684 120.853 65.5611 120.941 64.732C120.953 64.6088 120.958 64.4849 120.957 64.3611C118.89 62.1793 116.192 60.7011 113.359 60.3384C112.456 60.2211 111.45 60.2375 110.76 60.8565C110.07 61.4756 109.928 62.8829 110.719 63.3929C109.862 63.0793 108.965 62.7929 108.076 62.9102C107.187 63.0275 106.284 63.6547 106.091 64.6093Z" fill="white"/>
</g>
<path d="M105 78.2974L96.916 73.9338C96.916 73.9338 91.9824 71.1547 89.4951 68.7384C85.0796 64.4484 84.0406 60.7229 84.0406 60.7229L60.2042 71.6647L55.3633 73.2002C55.9687 75.7338 56.0587 80.5256 57.6842 85.4265C58.1342 86.7902 59.4624 88.0447 59.5224 87.5893C59.5687 87.2102 59.5224 87.8402 59.5224 87.8402C60.3651 90.0656 61.3387 92.9538 64.2269 94.9638C66.3896 98.2365 71.0124 100.107 72.9024 101.187C75.6978 102.783 86.3069 105.914 86.3069 105.914L94.5569 106.544L115.235 90.1338C115.235 90.1338 114 82.9665 105 78.2974Z" fill="#632CA9"/>
<path d="M76.9551 96.3111C78.3678 97.5493 78.9105 99.5047 79.1042 101.37C79.2978 103.236 79.2105 105.145 79.6796 106.961C78.7496 106.688 77.7187 107.436 77.5142 108.385C77.3096 109.334 77.806 110.335 78.5723 110.929C79.3707 111.494 80.3219 111.802 81.2996 111.813C82.936 111.903 84.7005 111.447 85.8242 110.239C86.8551 109.132 87.2151 107.58 87.6242 106.121C88.3223 103.623 89.2605 101.196 89.9805 98.7029C90.7005 96.2102 91.1833 93.6029 90.9324 91.0202L91.636 91.2656C92.506 91.5193 91.6742 88.6038 90.8042 87.292" fill="#632CA9"/>
<path d="M90.7989 87.292C90.8685 87.3852 90.9322 87.4827 90.9898 87.5838C91.1598 87.8785 91.311 88.1837 91.4425 88.4974C91.6557 89.0016 91.8236 89.5236 91.9443 90.0574C91.9815 90.221 92.0079 90.3868 92.0234 90.5538C92.0488 90.7359 92.0386 90.9211 91.9934 91.0993C91.9815 91.1517 91.9553 91.1998 91.9178 91.2383C91.8803 91.2768 91.8328 91.3042 91.7807 91.3174C91.7275 91.3271 91.673 91.3271 91.6198 91.3174L91.4807 91.2684L90.9134 91.0747L90.968 91.0284C91.0874 92.3177 91.0544 93.6167 90.8698 94.8984C90.6381 96.4576 90.2834 97.996 89.8089 99.4993C89.3207 101.136 88.718 102.829 88.1398 104.635C87.848 105.535 87.5943 106.47 87.3216 107.419C87.0738 108.404 86.6264 109.328 86.0071 110.133C85.1468 111.082 83.9674 111.682 82.6934 111.818C82.0858 111.902 81.4701 111.909 80.8607 111.84C80.2638 111.78 79.6817 111.618 79.1398 111.36C78.6106 111.104 78.1609 110.709 77.8389 110.217C77.5216 109.743 77.3728 109.175 77.4161 108.606C77.5143 107.477 78.6734 106.604 79.6962 106.898L79.6225 106.969C79.2107 105.306 79.2298 103.735 79.1371 102.371C79.098 101.191 78.8989 100.023 78.5452 98.8965C78.316 98.1735 77.9574 97.498 77.4871 96.9029C77.3636 96.7466 77.2307 96.5982 77.0889 96.4584C76.9934 96.3656 76.9443 96.3111 76.9443 96.3111C77.1541 96.4812 77.346 96.6722 77.5171 96.8811C78.0009 97.4724 78.3708 98.1484 78.608 98.8747C78.9733 100.006 79.1798 101.183 79.2216 102.371C79.3225 103.735 79.3143 105.306 79.7261 106.945L79.7507 107.046L79.6525 107.018C78.7171 106.746 77.6152 107.564 77.5334 108.622C77.4928 109.163 77.636 109.702 77.9398 110.152C78.2494 110.623 78.6824 111.001 79.1916 111.243C79.7186 111.493 80.2853 111.65 80.8662 111.707C81.4637 111.776 82.0677 111.768 82.6634 111.685C83.9126 111.553 85.0687 110.963 85.9089 110.029C86.5153 109.238 86.9534 108.331 87.1962 107.365C87.4689 106.424 87.7171 105.48 88.0143 104.58C88.5871 102.772 89.2034 101.07 89.6971 99.4502C90.1744 97.9535 90.5328 96.4215 90.7689 94.8684C90.958 93.5956 90.9991 92.3052 90.8916 91.0229V90.9574L90.9543 90.9793L91.5216 91.1784C91.6061 91.2209 91.6998 91.2415 91.7943 91.2384C91.8325 91.2272 91.867 91.2058 91.8939 91.1765C91.9208 91.1471 91.9392 91.111 91.9471 91.072C91.9904 90.9047 92.0015 90.7307 91.9798 90.5593C91.9643 90.3953 91.9397 90.2323 91.9062 90.0711C91.7909 89.5401 91.6303 89.02 91.4262 88.5165C91.3006 88.2024 91.1577 87.8956 90.998 87.5974C90.9434 87.4993 90.8998 87.4256 90.8698 87.3684C90.8434 87.3456 90.8197 87.32 90.7989 87.292Z" fill="#263238"/>
<path d="M80.7842 107.869C80.7842 107.891 80.5824 107.981 80.2851 108.191C79.8954 108.46 79.567 108.808 79.3216 109.212C79.0762 109.617 78.9194 110.069 78.8615 110.539C78.8124 110.899 78.8288 111.128 78.807 111.131C78.749 110.936 78.7332 110.73 78.7606 110.528C78.7932 110.036 78.9438 109.559 79.1996 109.138C79.4555 108.716 79.8091 108.362 80.2306 108.106C80.3961 107.989 80.5849 107.908 80.7842 107.869Z" fill="#263238"/>
<path d="M82.8215 108C82.8352 108.019 82.6252 108.153 82.347 108.428C81.9821 108.782 81.6966 109.21 81.5097 109.683C81.3253 110.158 81.2418 110.666 81.2643 111.175C81.2834 111.565 81.3434 111.805 81.3215 111.81C81.2282 111.612 81.1753 111.398 81.1661 111.18C81.1106 110.654 81.1828 110.122 81.3765 109.63C81.5702 109.137 81.8797 108.699 82.2788 108.352C82.4338 108.199 82.6185 108.079 82.8215 108Z" fill="#263238"/>
<path d="M62.6724 93.8318C63.5533 95.67 64.5378 97.2245 64.7287 99.09C64.9196 100.955 64.8378 102.865 65.3042 104.681C64.3742 104.408 63.346 105.158 63.1415 106.105C62.9369 107.051 63.4305 108.057 64.1969 108.652C64.9966 109.213 65.9471 109.52 66.9242 109.533C68.5605 109.625 70.3251 109.167 71.4487 107.959C72.4796 106.852 73.3224 103.017 73.6305 101.534" fill="#632CA9"/>
<path d="M73.6364 101.534C73.6388 101.561 73.6388 101.588 73.6364 101.615C73.6255 101.675 73.6118 101.755 73.5955 101.853C73.5546 102.06 73.4946 102.368 73.4073 102.761C73.1726 103.869 72.8721 104.962 72.5073 106.034C72.39 106.375 72.2346 106.724 72.0818 107.084C71.9115 107.461 71.6781 107.807 71.3918 108.106C70.7332 108.743 69.9141 109.189 69.0218 109.396C68.0392 109.637 67.0165 109.666 66.0218 109.481C65.495 109.387 64.9884 109.202 64.5246 108.935C64.0421 108.657 63.6444 108.252 63.3737 107.765C63.1725 107.409 63.0585 107.01 63.0409 106.601C63.0223 106.195 63.131 105.794 63.3518 105.453C63.5652 105.124 63.8679 104.863 64.2246 104.7C64.3973 104.621 64.5814 104.571 64.77 104.55C64.958 104.536 65.147 104.553 65.3291 104.602L65.2446 104.684C64.8437 103.077 64.8518 101.531 64.7646 100.173C64.744 99.5315 64.671 98.893 64.5464 98.2636C64.4228 97.7296 64.2522 97.2075 64.0364 96.7036C63.6437 95.7818 63.2673 95.0673 63.0327 94.5818C62.9127 94.3336 62.82 94.1455 62.76 94.0146C62.7327 93.9546 62.7109 93.9055 62.6946 93.8646C62.6782 93.8237 62.6727 93.8155 62.6755 93.8127C62.6872 93.828 62.6972 93.8445 62.7055 93.8618C62.7246 93.9 62.7491 93.9464 62.7818 94.0036C62.85 94.14 62.9482 94.3255 63.0709 94.5491C63.3191 95.0373 63.7064 95.7355 64.1127 96.66C64.3404 97.1666 64.5229 97.6923 64.6582 98.2309C64.7875 98.8599 64.865 99.4984 64.89 100.14C64.9882 101.504 64.9882 103.042 65.3864 104.626L65.4164 104.744L65.3018 104.708C64.6364 104.509 63.8673 104.888 63.4718 105.505C63.2785 105.834 63.1791 106.211 63.1844 106.593C63.1897 106.975 63.2995 107.348 63.5018 107.673C63.759 108.136 64.1357 108.522 64.5927 108.791C65.042 109.05 65.533 109.229 66.0437 109.32C67.0145 109.501 68.0126 109.475 68.9727 109.244C69.8435 109.046 70.6445 108.616 71.2909 108C71.57 107.711 71.7978 107.376 71.9646 107.01C72.1266 106.673 72.2705 106.327 72.3955 105.974C72.7686 104.9 73.0836 103.808 73.3391 102.701C73.43 102.315 73.5009 102.015 73.5518 101.801C73.5737 101.703 73.5928 101.626 73.6064 101.566C73.6157 101.555 73.6257 101.544 73.6364 101.534Z" fill="#263238"/>
<path d="M66.4119 105.589C66.4119 105.611 66.2101 105.701 65.9101 105.911C65.5209 106.18 65.1929 106.528 64.9476 106.933C64.7023 107.338 64.5451 107.79 64.4864 108.259C64.4373 108.622 64.4564 108.851 64.4319 108.851C64.3741 108.656 64.3583 108.452 64.3855 108.251C64.4199 107.759 64.5712 107.282 64.8269 106.861C65.0826 106.439 65.4352 106.084 65.8555 105.826C66.0226 105.71 66.2121 105.629 66.4119 105.589Z" fill="#263238"/>
<path d="M68.4543 105.731C68.4543 105.75 68.2606 105.881 67.9797 106.156C67.6172 106.513 67.3321 106.941 67.1425 107.414C66.959 107.888 66.8763 108.395 66.8997 108.903C66.9161 109.296 66.9788 109.533 66.9543 109.538C66.8605 109.342 66.8076 109.128 66.7988 108.911C66.7444 108.386 66.8168 107.856 67.01 107.366C67.2032 106.875 67.5114 106.438 67.9088 106.091C68.0634 105.934 68.2492 105.811 68.4543 105.731Z" fill="#263238"/>
<path d="M75.6569 102.273C75.5773 102.262 75.4988 102.243 75.4223 102.218C75.2723 102.177 75.046 102.123 74.7623 102.033C73.9575 101.779 73.1719 101.469 72.4114 101.103C71.2853 100.555 70.2172 99.8955 69.2233 99.1337C68.0075 98.195 66.9152 97.1063 65.9723 95.8937C65.7378 95.6047 65.5387 95.2965 65.3233 95.0047L65.4405 94.9228C65.5471 95.0539 65.6218 95.208 65.6587 95.3728C65.6634 95.4312 65.6448 95.4891 65.6069 95.5338C65.5698 95.5724 65.5208 95.5974 65.4678 95.6047C65.3831 95.6155 65.2972 95.6109 65.2142 95.591C64.9111 95.527 64.6243 95.4017 64.3714 95.2228C63.3737 94.5754 62.5098 93.7421 61.8269 92.7683C61.2798 92.0041 60.8067 91.1895 60.4142 90.3356C60.0842 89.6156 59.8687 89.0265 59.716 88.6174C59.6423 88.4156 59.596 88.2547 59.5605 88.1456C59.5418 88.092 59.5263 88.0374 59.5142 87.9819C59.543 88.0308 59.5659 88.083 59.5823 88.1374C59.6287 88.2547 59.686 88.4101 59.7623 88.601C59.9151 89.0047 60.1523 89.5883 60.496 90.2974C60.8956 91.1409 61.3732 91.9453 61.9223 92.7001C62.6036 93.6564 63.4596 94.4754 64.4451 95.1138C64.6817 95.2759 64.9475 95.3908 65.2278 95.4519C65.3669 95.4792 65.5305 95.4765 65.5005 95.381C65.4654 95.243 65.4002 95.1145 65.3096 95.0047L65.4242 94.9228C65.6369 95.2119 65.836 95.5174 66.0705 95.8038C67.005 97.007 68.0851 98.0898 69.286 99.0274C70.9388 100.317 72.7952 101.322 74.7787 102C75.0514 102.098 75.2832 102.161 75.4305 102.21C75.5077 102.224 75.5834 102.245 75.6569 102.273Z" fill="#263238"/>
<path d="M112.944 86.7874L105.226 92.7274C102.957 93.0519 101.408 94.6037 99.8615 96.2892C97.8242 98.4983 98.2851 100.71 97.6797 102.919C97.5193 103.356 97.3223 103.778 97.0906 104.182C96.6297 105.172 95.4188 104.877 94.786 105.068C94.0306 105.295 93.6951 105.655 93.3406 106.364C93.17 106.727 93.1088 107.131 93.1645 107.529C93.2202 107.926 93.3904 108.298 93.6542 108.6C94.1151 109.086 94.8897 109.178 95.5442 109.323C97.3688 109.721 99.2533 110.125 101.086 109.765C102.919 109.405 104.694 108.074 104.967 106.219C106.268 106.549 107.644 106.407 108.851 105.818C110.047 105.221 111.101 104.372 111.941 103.331C113.85 101.07 115.238 98.1901 115.418 95.2364C115.598 92.2828 114.57 89.261 112.944 86.7874Z" fill="#632CA9"/>
<path d="M106.909 92.7274C106.887 92.724 106.866 92.7166 106.846 92.7056L106.669 92.6292C106.442 92.5291 106.207 92.4453 105.968 92.3783C105.092 92.1307 104.17 92.0859 103.274 92.2474C102.656 92.3554 102.057 92.5519 101.495 92.8311C100.852 93.1545 100.263 93.5748 99.7473 94.0774C98.5755 95.2421 97.7503 96.7093 97.3637 98.3156C96.9844 99.9285 96.9095 101.598 97.1428 103.238C97.2218 103.616 97.1973 104.008 97.0719 104.373C96.992 104.548 96.862 104.695 96.6982 104.796C96.543 104.887 96.3717 104.948 96.1937 104.976C95.85 105.036 95.5173 105.03 95.2091 105.066C94.9135 105.094 94.6268 105.182 94.3664 105.325C93.9668 105.537 93.6433 105.869 93.4405 106.273C93.2377 106.678 93.1657 107.136 93.2346 107.583C93.285 107.913 93.3989 108.229 93.57 108.516C93.5135 108.45 93.4649 108.377 93.4255 108.3C93.3029 108.08 93.2199 107.84 93.18 107.591C93.1122 107.195 93.1508 106.789 93.2919 106.413C93.4465 106.019 93.7063 105.675 94.0429 105.418C94.3795 105.161 94.78 105.002 95.2009 104.957C95.52 104.918 95.85 104.921 96.1773 104.861C96.344 104.844 96.5036 104.785 96.6414 104.689C96.7792 104.594 96.8906 104.465 96.9655 104.316C97.078 103.97 97.0959 103.601 97.0173 103.247C96.7756 101.591 96.8487 99.9054 97.2328 98.2774C97.6235 96.6399 98.4675 95.1456 99.6682 93.9656C100.196 93.4573 100.798 93.0332 101.455 92.7083C102.028 92.4292 102.639 92.2353 103.268 92.1329C104.178 91.9773 105.113 92.0371 105.995 92.3074C106.316 92.4093 106.623 92.5504 106.909 92.7274Z" fill="#263238"/>
<path d="M95.2417 109.126C95.0995 108.98 94.9979 108.798 94.9472 108.6C94.7861 108.127 94.7996 107.612 94.9851 107.147C95.1707 106.683 95.5161 106.301 95.959 106.069C96.1324 105.96 96.3322 105.899 96.5372 105.895C96.5372 105.916 96.3163 105.968 96.0108 106.167C95.606 106.407 95.2917 106.774 95.1167 107.211C94.9416 107.648 94.9156 108.13 95.0426 108.584C95.1354 108.922 95.2636 109.113 95.2417 109.126Z" fill="#263238"/>
<path d="M98.1818 109.685C98.1208 109.669 98.064 109.639 98.0154 109.598C97.8755 109.502 97.7513 109.386 97.6472 109.252C97.4662 109.032 97.335 108.775 97.2629 108.5C97.1907 108.224 97.1793 107.936 97.2293 107.656C97.2794 107.376 97.3898 107.11 97.5528 106.876C97.7158 106.643 97.9277 106.447 98.1736 106.304C98.3182 106.214 98.4754 106.147 98.64 106.105C98.6994 106.083 98.7627 106.076 98.8254 106.083C98.6193 106.17 98.4197 106.272 98.2282 106.388C98.0041 106.533 97.8122 106.723 97.6644 106.945C97.5166 107.168 97.416 107.418 97.369 107.681C97.3219 107.944 97.3294 108.214 97.3909 108.474C97.4523 108.733 97.5665 108.978 97.7263 109.192C97.8668 109.367 98.019 109.531 98.1818 109.685Z" fill="#263238"/>
<path d="M115.418 95.231C115.391 95.231 115.475 94.7483 115.513 93.9656C115.537 93.5113 115.537 93.0561 115.513 92.6019C115.475 92.0438 115.405 91.4884 115.303 90.9383C115.108 89.9388 114.814 88.9613 114.425 88.0201C114.278 87.6574 114.152 87.3655 114.057 87.1692C114.004 87.0674 113.961 86.9605 113.929 86.8501C113.997 86.9423 114.057 87.041 114.106 87.1446C114.215 87.3355 114.357 87.6192 114.518 87.9792C114.936 88.9181 115.247 89.9018 115.442 90.911C115.547 91.4677 115.615 92.0308 115.644 92.5965C115.665 93.0574 115.658 93.5192 115.622 93.9792C115.601 94.2904 115.561 94.6 115.502 94.9065C115.484 95.017 115.456 95.1256 115.418 95.231Z" fill="#263238"/>
<path d="M98.7435 85.2438C98.6923 85.2161 98.6447 85.1822 98.6017 85.1429C98.5117 85.072 98.3863 84.9602 98.2335 84.8129C97.8182 84.4008 97.4587 83.9359 97.1644 83.4302L97.2763 83.3784C97.5056 84.0399 97.5875 84.7436 97.5163 85.4402C97.4925 85.6664 97.4524 85.8906 97.3963 86.1111L97.3553 86.272L97.2681 86.1302C96.7008 85.2166 96.2044 84.4066 95.8553 83.8202L95.4544 83.1302C95.4008 83.0488 95.356 82.962 95.3208 82.8711C95.3883 82.9409 95.447 83.0187 95.4953 83.1029L95.9399 83.7711C96.3108 84.3438 96.8208 85.1347 97.3935 86.0566L97.2653 86.0756C97.3186 85.8622 97.3568 85.6453 97.3799 85.4266C97.4488 84.7498 97.3754 84.066 97.1644 83.4193L97.279 83.3675C97.5617 83.87 97.9022 84.3377 98.2935 84.7611C98.5717 85.0693 98.7544 85.2302 98.7435 85.2438Z" fill="#263238"/>
<g opacity="0.3">
<path d="M98.6998 94.9583C97.181 96.3538 96.1064 98.1654 95.6098 100.167C95.5205 100.718 95.3418 101.251 95.0807 101.744C94.4453 102.728 93.1007 102.976 91.9307 102.865L88.7644 102.573L87.6489 106.015C89.6917 106.287 93.2671 106.443 93.2671 106.443C93.7498 105.45 94.4644 104.984 95.5198 104.954C95.8161 104.942 96.1104 104.9 96.398 104.828C96.5818 104.761 96.7426 104.643 96.8615 104.487C96.9803 104.331 97.0523 104.145 97.0689 103.95C97.0959 103.559 97.06 103.166 96.9626 102.786C96.4898 100.049 97.114 97.2374 98.6998 94.9583Z" fill="black"/>
</g>
<path opacity="0.3" d="M69.9272 99.2183L79.05 102.352L79.26 103.686C79.26 103.686 70.6363 101.136 69.9272 99.2183Z" fill="black"/>
<g opacity="0.6">
<path d="M79.6663 62.3618L55.9854 74.7273C57.5126 82.9091 60.3026 87.93 66.6681 93.2945C67.3417 93.8618 70.2626 95.8554 71.0699 96.21C71.8719 96.598 72.7936 96.6576 73.639 96.3764C74.6754 95.9782 75.3381 94.9664 75.7935 93.9545C77.059 91.1564 77.2472 88.0118 77.4163 84.9545C77.8809 85.5459 78.1895 86.2446 78.3135 86.9864C80.1463 84.5318 76.8844 76.1155 77.0426 73.0582C77.3181 67.7373 80.6453 67.5982 79.6663 62.3618Z" fill="white"/>
</g>
<path d="M56.0098 74.7928C56.0098 74.7928 51.1007 63.2292 51.0325 58.1865C50.9644 53.1437 55.2298 49.4046 55.2298 49.4046C55.8932 46.2056 56.8331 43.0702 58.0389 40.0337C59.9098 35.4983 65.5607 28.5192 67.1398 29.021C68.7189 29.5228 69.4444 30.3846 69.4526 34.4755C69.4607 38.5665 69.9707 40.9283 69.9707 40.9283C69.9707 40.9283 73.688 41.7464 74.8798 43.0828C74.8798 43.0828 75.7226 43.0065 76.7671 42.0955C77.8116 41.1846 85.2216 34.7101 87.3462 36.2483C89.4707 37.7864 88.748 45.1446 87.0953 48.2865C85.4426 51.4283 82.7316 55.4755 82.6416 55.8492C82.5516 56.2228 83.6562 60.911 83.048 63.3246C82.4398 65.7383 80.6916 68.7792 77.7516 71.0565C74.8116 73.3337 66.0244 78.7474 61.8353 77.7274C57.6462 76.7074 56.0098 74.7928 56.0098 74.7928Z" fill="#632CA9"/>
<path opacity="0.6" d="M56.0098 74.7928C56.0098 74.7928 51.1007 63.2292 51.0325 58.1865C50.9644 53.1437 55.2298 49.4046 55.2298 49.4046C55.8932 46.2056 56.8331 43.0702 58.0389 40.0337C59.9098 35.4983 65.5607 28.5192 67.1398 29.021C68.7189 29.5228 69.4444 30.3846 69.4526 34.4755C69.4607 38.5665 69.9707 40.9283 69.9707 40.9283C69.9707 40.9283 73.688 41.7464 74.8798 43.0828C74.8798 43.0828 75.7226 43.0065 76.7671 42.0955C77.8116 41.1846 85.2216 34.7101 87.3462 36.2483C89.4707 37.7864 88.748 45.1446 87.0953 48.2865C85.4426 51.4283 82.7316 55.4755 82.6416 55.8492C82.5516 56.2228 83.6562 60.911 83.048 63.3246C82.4398 65.7383 80.6916 68.7792 77.7516 71.0565C74.8116 73.3337 66.0244 78.7474 61.8353 77.7274C57.6462 76.7074 56.0098 74.7928 56.0098 74.7928Z" fill="white"/>
<path d="M87.0897 48.2947C88.7424 45.1529 89.4542 37.7947 87.3406 36.2565C85.227 34.7184 77.8088 41.182 76.7615 42.1038C75.7142 43.0256 74.8742 43.0911 74.8742 43.0911C74.7459 42.9496 74.6033 42.8216 74.4488 42.7093C73.187 43.6398 72.0607 44.7412 71.1024 45.982C69.8553 47.5853 69.0664 49.4968 68.8197 51.5129C68.727 52.4156 68.776 53.3729 69.2315 54.1611C69.7988 55.1402 70.8924 55.6884 71.9751 56.0129C75.7306 57.142 82.8624 54.3765 80.896 63.0656C80.896 63.0656 79.3579 67.0447 77.9261 69.5102C77.5579 70.1456 77.3206 71.5393 77.1079 72.2375C77.3533 72.0602 78.6106 72.4256 78.807 72.2729C81.7497 70.0011 85.947 67.1784 85.1533 64.8193C83.8851 61.0502 82.5297 56.2229 82.6306 55.852C82.7315 55.4811 85.437 51.4338 87.0897 48.2947Z" fill="#632CA9"/>
<g opacity="0.6">
<path d="M86.8473 37.6855C86.3428 37.3446 85.6637 37.5246 85.1073 37.7701C82.0822 39.145 79.4988 41.3338 77.6455 44.0919C77.6757 46.9825 78.5424 49.8025 80.141 52.211C80.3891 52.5819 80.7464 52.9855 81.1882 52.9255C81.3465 52.8814 81.4945 52.8064 81.6237 52.7048C81.7529 52.6032 81.8607 52.4771 81.941 52.3337C84.7173 48.5728 86.8364 44.2201 87.3573 39.5728C87.4337 38.891 87.4146 38.0701 86.8473 37.6855Z" fill="white"/>
</g>
<path d="M65.1027 49.8027C66.3381 48.15 67.4645 46.4127 68.8172 44.8554C69.8636 43.6053 71.1197 42.5467 72.529 41.7273C71.6946 41.4107 70.84 41.1501 69.9709 40.9473C69.9709 40.9473 69.4609 38.6018 69.4527 34.4945C69.4445 30.3872 68.7163 29.5309 67.1399 29.04C65.5636 28.5491 59.91 35.5173 58.039 40.0527C56.9938 42.6705 56.1513 45.3648 55.519 48.1118L55.5709 48.1363C56.7327 48.9545 57.6518 50.0673 58.7863 50.9182C59.9209 51.7691 61.4127 52.3582 62.7518 51.8891C63.75 51.5182 64.4672 50.6509 65.1027 49.8027Z" fill="#632CA9"/>
<path d="M65.3125 55.091C64.6704 54.6162 63.9492 54.2589 63.1825 54.0355C62.7134 53.8801 62.1407 53.7791 61.7725 54.1091C61.635 54.2536 61.5428 54.4352 61.5074 54.6316C61.472 54.8279 61.495 55.0303 61.5734 55.2137C61.7365 55.5786 61.9809 55.9014 62.288 56.1573C62.5774 56.4684 62.939 56.7035 63.3407 56.8419C64.0171 57.0273 64.3552 56.9019 64.9771 56.5855C65.2647 56.4412 65.5308 56.2576 65.768 56.0401C65.9398 55.8737 65.9643 55.4319 65.3125 55.091Z" fill="#263238"/>
<path d="M68.2171 58.4973C67.1071 59.3564 66.8098 60.5782 66.4635 61.9391C66.1171 63.3001 65.8744 64.7237 65.1216 65.9073C64.3689 67.091 62.9207 67.9828 61.5762 67.5819C61.2129 67.4602 60.8771 67.268 60.5884 67.0162C60.2996 66.7644 60.0634 66.458 59.8935 66.1146C59.558 65.4243 59.3818 64.6675 59.378 63.9001C59.3331 62.724 59.5434 61.5522 59.9944 60.4652C60.4454 59.3781 61.1265 58.4016 61.9907 57.6028C62.3743 57.661 62.7473 57.7749 63.098 57.941C63.4089 58.1482 65.1598 59.1901 66.4335 58.8791C67.7071 58.5682 68.2171 58.4973 68.2171 58.4973Z" fill="#632CA9"/>
<path d="M62.4351 62.981C62.3953 62.7418 62.3953 62.4976 62.4351 62.2583C62.4983 61.6759 62.6529 61.1071 62.8933 60.5728C63.1299 60.0362 63.4482 59.5394 63.8369 59.1001C63.9912 58.9113 64.1755 58.7491 64.3824 58.6201C64.3987 58.6392 64.1942 58.8247 63.916 59.1656C63.5578 59.6134 63.2589 60.1056 63.0269 60.6301C62.7924 61.1515 62.6282 61.7018 62.5387 62.2665C62.4542 62.7056 62.4542 62.981 62.4351 62.981Z" fill="#263238"/>
<path d="M70.2053 57.24C70.184 57.2888 70.1565 57.3346 70.1235 57.3764C70.0374 57.5 69.9377 57.6134 69.8262 57.7146C69.4029 58.0809 68.9051 58.3508 68.3671 58.5055C68.0023 58.6207 67.6318 58.7172 67.2571 58.7946C66.8295 58.9059 66.3898 58.9636 65.948 58.9664C64.9248 58.9602 63.9296 58.6319 63.1035 58.0282C62.8995 57.876 62.668 57.7648 62.4216 57.7009C62.1816 57.6518 61.9226 57.7009 61.6607 57.6491C61.4131 57.6039 61.1783 57.505 60.9729 57.3594C60.7675 57.2138 60.5964 57.0251 60.4716 56.8064C60.2324 56.4238 60.1066 55.9812 60.1089 55.53C60.1132 55.1403 60.1987 54.7558 60.3598 54.4009C60.5897 53.8876 60.958 53.4485 61.4235 53.1328C61.5507 53.0496 61.6848 52.9775 61.8244 52.9173C61.8717 52.8952 61.921 52.8779 61.9716 52.8655C61.9716 52.8655 61.7726 52.9555 61.4562 53.1791C61.015 53.5018 60.6685 53.9369 60.4526 54.4391C60.305 54.784 60.2281 55.1549 60.2262 55.53C60.2305 55.9578 60.3532 56.376 60.5807 56.7382C60.6965 56.9379 60.8538 57.1104 61.042 57.244C61.2302 57.3776 61.445 57.4693 61.6716 57.5128C61.9062 57.5537 62.1653 57.5128 62.438 57.5618C62.7028 57.6298 62.9519 57.7483 63.1716 57.9109C63.9752 58.4986 64.9417 58.8217 65.9371 58.8355C66.37 58.8357 66.8013 58.7835 67.2217 58.68C67.6226 58.5955 67.9962 58.5109 68.3262 58.4073C68.8555 58.266 69.3496 58.0162 69.7771 57.6737C69.9278 57.5372 70.0707 57.3924 70.2053 57.24Z" fill="#263238"/>
<g opacity="0.6">
<path d="M57.4934 46.83C60.1233 44.7373 62.9663 42.9273 65.9753 41.43C66.418 41.2454 66.8209 40.9768 67.1616 40.6391C67.5544 40.1891 67.6907 39.5809 67.8134 39.0028C68.2689 36.851 68.7243 34.5982 68.1353 32.4791C67.928 31.7346 67.4562 30.9191 66.6844 30.8619C66.1962 30.8237 65.7489 31.1073 65.3589 31.4073C62.5798 33.54 60.9462 36.8019 59.4025 39.9491C58.3634 42.071 57.3025 44.2691 57.188 46.6309" fill="white"/>
</g>
<path d="M62.743 57.7501C62.5672 57.5472 62.4748 57.285 62.4844 57.0164C62.4553 56.7487 62.5261 56.4796 62.6831 56.261C62.7266 56.2773 62.6096 56.6019 62.626 57.0083C62.6423 57.4146 62.7838 57.731 62.743 57.7501Z" fill="#263238"/>
<g opacity="0.6">
<path d="M73.4127 48.0165C72.7794 47.8816 72.122 47.9117 71.5036 48.1038C71.3884 48.1291 71.28 48.179 71.1858 48.25C71.0917 48.3211 71.014 48.4117 70.9582 48.5156C70.83 48.8565 71.1436 49.2002 71.4491 49.3993C72.0328 49.7744 72.6995 50.001 73.3909 50.0593C73.6359 50.0896 73.8845 50.0701 74.1218 50.002C74.2399 49.9675 74.3494 49.9087 74.4433 49.8293C74.5373 49.7499 74.6135 49.6517 74.6672 49.5411C74.7271 49.364 74.7331 49.1731 74.6846 48.9925C74.6361 48.8119 74.5351 48.6498 74.3945 48.5265C74.1108 48.2814 73.7806 48.0959 73.4236 47.9811" fill="white"/>
</g>
<g opacity="0.6">
<path d="M64.2243 45.1063C63.591 44.9708 62.9335 45.0009 62.3152 45.1936C62.1975 45.2171 62.0864 45.2661 61.9898 45.3373C61.8932 45.4084 61.8134 45.5 61.7561 45.6054C61.6252 45.9463 61.9389 46.29 62.2443 46.4891C62.8282 46.8638 63.4948 47.0904 64.1861 47.1491C64.4311 47.1794 64.6798 47.1599 64.917 47.0918C65.035 47.057 65.1443 46.9981 65.2382 46.9187C65.3321 46.8394 65.4085 46.7413 65.4625 46.6309C65.5216 46.4537 65.5273 46.263 65.4788 46.0826C65.4303 45.9022 65.3298 45.74 65.1898 45.6163C64.9064 45.3706 64.5761 45.1851 64.2189 45.0709" fill="white"/>
</g>
<path d="M64.7781 35.22C64.7972 35.2391 64.4563 35.5882 64.0145 36.2345C63.7568 36.6118 63.5271 37.0074 63.3272 37.4182C62.8352 38.4282 62.5276 39.5181 62.419 40.6363C62.3758 41.0895 62.3648 41.5452 62.3863 42C62.4272 42.78 62.5336 43.2572 62.5063 43.2627C62.4643 43.1554 62.4341 43.0438 62.4163 42.93C62.3857 42.7995 62.3621 42.6675 62.3454 42.5345C62.3263 42.3791 62.2936 42.2018 62.2854 42.0054C62.2473 41.5435 62.2473 41.0792 62.2854 40.6172C62.3819 39.4834 62.6958 38.3788 63.2099 37.3636C63.4179 36.9499 63.6596 36.554 63.9326 36.18C64.0445 36.0163 64.1617 35.88 64.2599 35.76C64.3452 35.655 64.4363 35.5549 64.5326 35.46C64.6054 35.3712 64.6877 35.2907 64.7781 35.22Z" fill="#263238"/>
<path d="M72.7635 52.7292C72.7586 52.9731 72.6815 53.21 72.5419 53.41C72.4023 53.61 72.2065 53.7641 71.9793 53.8528C71.752 53.9414 71.5036 53.9607 71.2655 53.9082C71.0273 53.8556 70.8101 53.7336 70.6413 53.5575C70.4725 53.3815 70.3597 53.1593 70.3172 52.9191C70.2747 52.679 70.3044 52.4316 70.4026 52.2083C70.5007 51.985 70.6629 51.7959 70.8686 51.6648C71.0743 51.5337 71.3142 51.4666 71.5581 51.472C71.7199 51.4752 71.8794 51.5102 72.0276 51.5752C72.1758 51.6401 72.3097 51.7337 72.4217 51.8505C72.5337 51.9673 72.6215 52.105 72.6802 52.2558C72.7388 52.4066 72.7672 52.5675 72.7635 52.7292Z" fill="#263238"/>
<path d="M63.3788 49.4536C63.3739 49.6975 63.2967 49.9344 63.1571 50.1344C63.0175 50.3344 62.8217 50.4885 62.5945 50.5771C62.3673 50.6658 62.1189 50.6851 61.8807 50.6325C61.6425 50.58 61.4253 50.458 61.2565 50.2819C61.0877 50.1059 60.9749 49.8837 60.9324 49.6435C60.8899 49.4033 60.9196 49.156 61.0178 48.9327C61.116 48.7094 61.2781 48.5202 61.4838 48.3892C61.6895 48.2581 61.9295 48.191 62.1733 48.1963C62.4998 48.2035 62.8101 48.3399 63.0361 48.5756C63.2621 48.8114 63.3854 49.1271 63.3788 49.4536Z" fill="#263238"/>
<path d="M86.5964 39.7583C86.5613 39.8012 86.523 39.8413 86.4818 39.8783L86.1409 40.2056C85.8437 40.4783 85.4182 40.9038 84.9137 41.4383C83.5941 42.8368 82.4174 44.3634 81.4009 45.9956L81.3218 46.1238L81.2728 45.9819C81.2509 45.9138 81.2237 45.8401 81.1991 45.7665C80.9618 45.0901 80.7355 44.4328 80.52 43.8165H80.6482C80.0203 45.1839 79.6646 46.6604 79.6009 48.1638C79.5825 48.6019 79.588 49.0407 79.6173 49.4783C79.6347 49.6359 79.6429 49.7943 79.6418 49.9528C79.6278 49.9143 79.6195 49.8738 79.6173 49.8328C79.6173 49.7538 79.5846 49.6365 79.5682 49.4838C79.5224 49.0444 79.5042 48.6026 79.5137 48.161C79.5483 46.6405 79.8916 45.1429 80.5228 43.7592L80.5937 43.6038L80.6509 43.7647L81.3328 45.7147L81.4064 45.9301L81.2809 45.9165C82.3007 44.2753 83.4949 42.7491 84.8428 41.3647C85.3582 40.8383 85.7946 40.4319 86.1028 40.1592C86.2555 40.0228 86.3755 39.9219 86.4628 39.851C86.5032 39.8145 86.5481 39.7834 86.5964 39.7583Z" fill="#263238"/>
<path d="M67.1615 78.7584C67.1829 78.833 67.1948 78.9099 67.197 78.9875C67.2133 79.1375 67.2297 79.3611 67.2433 79.642C67.2716 80.4262 67.2379 81.2114 67.1424 81.9902L67.1288 82.0966L67.0442 82.0284C66.1434 81.3285 65.3718 80.4766 64.7642 79.5111C64.6988 79.4075 64.6388 79.3038 64.5788 79.2029L64.7097 79.1511L65.4215 82.0966L65.4733 82.3093L65.3206 82.1539C64.7662 81.5917 64.3123 80.9386 63.9788 80.2229C63.886 80.023 63.804 79.8181 63.7333 79.6093C63.7048 79.5364 63.6846 79.4604 63.6733 79.3829C63.7122 79.4505 63.7442 79.5217 63.7688 79.5957C63.8288 79.7348 63.9161 79.9393 64.0415 80.1902C64.3927 80.8847 64.8531 81.5182 65.4052 82.0666L65.3042 82.1238C65.0888 81.2593 64.8379 80.2584 64.5706 79.1838L64.4561 78.7202L64.7015 79.132C64.7615 79.2329 64.8215 79.3338 64.8842 79.4348C65.4838 80.3866 66.2388 81.231 67.1179 81.9329L67.0197 81.9738C67.1238 81.2019 67.1748 80.4237 67.1724 79.6448C67.1724 79.372 67.1724 79.1593 67.1724 78.9902C67.1617 78.9134 67.158 78.8358 67.1615 78.7584Z" fill="#263238"/>
<path d="M25.8354 101.626C24.57 102.518 23.2554 103.396 21.7636 103.808C20.2718 104.22 18.5482 104.081 17.3482 103.11C15.81 101.855 15.5318 99.6108 15.7118 97.6308C16.0582 93.5999 17.7627 89.6045 16.9854 85.6308C16.6921 84.1963 16.0865 82.844 15.2117 81.6698C14.3369 80.4957 13.2143 79.5286 11.9236 78.8372C10.6243 78.1666 9.19332 77.7901 7.7322 77.7345C6.27108 77.6789 4.81562 77.9455 3.46908 78.5154C1.79726 79.2381 0.231806 80.6236 0.0327148 82.4317C0.578169 84.1117 3.07908 85.4999 4.73999 86.089C6.4009 86.6781 8.24726 87.3217 9.07635 88.8763C9.79635 90.2263 9.52362 91.8599 9.34908 93.3817C9.07178 95.9642 9.17099 98.5732 9.64362 101.127C9.99817 103.036 10.5927 104.975 11.8773 106.437C13.8845 108.723 17.22 109.407 20.2445 109.083C23.2691 108.758 26.1245 107.588 29.0373 106.718L25.8354 101.626Z" fill="#632CA9"/>
<g opacity="0.5">
<path d="M16.7429 87.0845C16.8677 86.7518 16.9698 86.411 17.0483 86.0645C17.0265 85.9208 17.002 85.7763 16.9747 85.6308C16.6814 84.1963 16.0758 82.844 15.201 81.6698C14.3262 80.4957 13.2036 79.5286 11.9129 78.8372C10.6136 78.1666 9.18258 77.7901 7.72146 77.7345C6.26034 77.6789 4.80488 77.9455 3.45834 78.5154C1.78652 79.2381 0.221064 80.6236 0.0219727 82.4317C0.567427 84.1117 3.06834 85.4999 4.72925 86.089C6.39016 86.6781 8.23652 87.3217 9.06561 88.8763C9.55107 89.7872 9.58379 90.8263 9.5047 91.8763C9.80744 91.9171 10.1135 91.928 10.4183 91.909C13.2056 91.7372 15.7502 89.7081 16.7429 87.0845Z" fill="white"/>
</g>
<path d="M46.5709 105.614C47.3891 105.093 49.2382 104.956 50.1982 104.847C51.1582 104.738 52.2027 105.011 52.8409 105.736C53.4791 106.462 53.5882 107.67 52.9364 108.382C52.1918 109.2 50.5036 109.184 49.3909 109.184C46.3909 109.184 44.6373 109.126 41.8882 109.184" fill="#632CA9"/>
<path d="M41.8965 109.183C41.9658 109.171 42.0361 109.164 42.1065 109.164L42.7119 109.14C43.2356 109.126 43.9938 109.11 44.9319 109.107H48.2292C48.8483 109.107 49.5001 109.107 50.171 109.107C50.8606 109.113 51.5464 109.005 52.2001 108.785C52.5195 108.664 52.7982 108.455 53.0047 108.183C53.1905 107.907 53.2945 107.585 53.3047 107.253C53.3168 106.937 53.2587 106.623 53.1347 106.333C53.0106 106.043 52.8237 105.784 52.5874 105.575C52.1458 105.202 51.6023 104.97 51.0274 104.91C50.5213 104.873 50.0126 104.893 49.511 104.97C48.7754 105.029 48.0457 105.148 47.3292 105.324C47.1364 105.377 46.9477 105.443 46.7647 105.523C46.7034 105.558 46.6395 105.588 46.5738 105.613C46.5738 105.613 46.5874 105.6 46.6174 105.581C46.6474 105.562 46.691 105.532 46.751 105.499C46.931 105.406 47.119 105.329 47.3128 105.27C48.0268 105.073 48.757 104.939 49.4947 104.872C50.0035 104.786 50.5206 104.759 51.0356 104.793C51.6376 104.851 52.208 105.089 52.6719 105.477C52.9244 105.698 53.1244 105.973 53.2575 106.281C53.3905 106.589 53.4532 106.923 53.441 107.258C53.4313 107.618 53.3186 107.967 53.1165 108.264C52.895 108.559 52.5942 108.785 52.2492 108.916C51.581 109.143 50.8793 109.254 50.1738 109.246C49.4947 109.246 48.8456 109.246 48.2238 109.246L44.9292 109.208H42.7092H42.1038C42.0342 109.205 41.9649 109.197 41.8965 109.183Z" fill="#263238"/>
<path d="M35.1331 65.76C35.1331 66.1255 32.9513 71.4273 27.5459 75.7227C22.1404 80.0182 17.6704 85.0473 17.7631 91.7209C17.8559 98.3945 21.9686 105.709 21.9686 105.709L26.2204 109.055L41.8968 109.184C41.8968 109.184 49.1186 107.446 50.0322 101.504C50.9459 95.5609 49.1186 92.7273 49.1186 92.7273L49.3913 86.7845C49.3913 86.7845 53.6868 78.8318 53.9622 76.2736C54.2377 73.7155 51.8595 64.3882 51.8595 64.3882L35.1331 65.76Z" fill="#632CA9"/>
<path d="M43.9094 83.0127C43.7789 83.5924 43.7484 84.19 43.8194 84.78C43.9118 85.4176 44.1032 86.0368 44.3866 86.6154C44.7316 87.3259 45.1591 87.9932 45.6603 88.6036C46.1921 89.2581 46.7512 89.8472 47.2284 90.3927C47.7057 90.9381 48.1475 91.4454 48.4748 91.8954C48.7388 92.2466 48.9767 92.6167 49.1866 93.0027C49.263 93.1391 49.3094 93.2509 49.3448 93.3245C49.3803 93.3981 49.3939 93.4391 49.3884 93.4418C49.2959 93.3101 49.2121 93.1726 49.1375 93.03C48.9117 92.6575 48.664 92.2987 48.3957 91.9554C48.0603 91.5163 47.6266 91.0227 47.133 90.4827C46.6394 89.9427 46.0857 89.3536 45.5484 88.6936C45.0419 88.0726 44.6116 87.3933 44.2666 86.67C43.9854 86.0778 43.8012 85.4443 43.7212 84.7936C43.6685 84.3544 43.687 83.9096 43.7757 83.4763C43.7977 83.3587 43.8287 83.2429 43.8684 83.13C43.877 83.0893 43.8907 83.0499 43.9094 83.0127Z" fill="#263238"/>
<path d="M49.7813 95.1353C49.8095 95.1873 49.8324 95.2422 49.8495 95.2989C49.8877 95.408 49.9531 95.5716 50.0131 95.7816C50.192 96.3786 50.3189 96.99 50.3922 97.6089C50.5033 98.5292 50.5033 99.4595 50.3922 100.38C50.3294 100.925 50.2227 101.464 50.0731 101.992C49.9186 102.556 49.7095 103.104 49.4486 103.628C49.1861 104.156 48.8738 104.657 48.5159 105.125C48.1783 105.557 47.8061 105.962 47.4031 106.333C46.7173 106.959 45.9537 107.493 45.1313 107.923C44.5802 108.215 44.0055 108.46 43.4131 108.654C43.2059 108.728 43.0395 108.769 42.9277 108.802C42.8721 108.821 42.8144 108.834 42.7559 108.84C42.8082 108.813 42.863 108.791 42.9195 108.774C43.0286 108.731 43.1922 108.684 43.3968 108.603C43.9774 108.387 44.5416 108.13 45.0849 107.833C45.8921 107.397 46.6415 106.861 47.3159 106.238C47.7096 105.867 48.0743 105.467 48.4068 105.041C48.7568 104.579 49.0627 104.085 49.3204 103.565C49.5788 103.046 49.7862 102.502 49.9395 101.943C50.089 101.426 50.1975 100.898 50.264 100.363C50.3815 99.4523 50.3906 98.5304 50.2913 97.6171C50.23 97.0009 50.1187 96.3907 49.9586 95.7925C49.9095 95.5798 49.8522 95.4189 49.8222 95.3071C49.8044 95.2509 49.7907 95.1935 49.7813 95.1353Z" fill="#263238"/>
<path d="M26.4931 109.044C26.3569 108.999 26.2247 108.942 26.0976 108.875C25.9437 108.806 25.7935 108.729 25.6476 108.643C25.4758 108.545 25.274 108.442 25.0695 108.3C24.8649 108.158 24.6304 108.027 24.3985 107.839C24.1667 107.651 23.924 107.463 23.6704 107.253C22.595 106.307 21.6997 105.174 21.0276 103.909C20.8804 103.614 20.7358 103.336 20.6267 103.063C20.5176 102.791 20.414 102.54 20.3322 102.305C20.2504 102.071 20.1904 101.853 20.1331 101.664C20.0848 101.502 20.0448 101.337 20.0131 101.171C19.9769 101.032 19.9523 100.891 19.9395 100.748C19.9947 100.881 20.0376 101.019 20.0676 101.16C20.1004 101.294 20.1467 101.457 20.2095 101.643C20.2722 101.828 20.3322 102.044 20.4276 102.273C20.5231 102.502 20.6104 102.755 20.7358 103.017C20.8613 103.279 21.0085 103.563 21.1422 103.835C21.485 104.455 21.8752 105.046 22.3095 105.605C22.7511 106.157 23.2353 106.673 23.7576 107.149C24.0058 107.362 24.2349 107.569 24.4695 107.738C24.704 107.907 24.9195 108.074 25.124 108.213C25.3285 108.352 25.5195 108.463 25.6858 108.57C25.8522 108.676 25.9995 108.755 26.1222 108.821C26.2524 108.884 26.3765 108.959 26.4931 109.044Z" fill="#263238"/>
<path d="M33.7803 90.2154C33.6837 90.1634 33.5924 90.1022 33.5075 90.0326C33.3412 89.9072 33.1039 89.7136 32.8175 89.4572C32.0487 88.7607 31.3665 87.9741 30.7857 87.1145L30.9084 87.0572L31.4321 88.7399L31.8275 89.9999L31.8903 90.2072L31.7184 90.0763C30.8075 89.3729 30.0997 88.4402 29.6675 87.3735C29.5428 87.0632 29.4443 86.743 29.373 86.4163C29.3484 86.3017 29.3375 86.2117 29.3266 86.1435C29.3157 86.0754 29.3266 86.0508 29.3266 86.0481C29.3663 86.1615 29.399 86.2771 29.4248 86.3945C29.5133 86.7138 29.6245 87.0264 29.7575 87.3299C30.2052 88.3664 30.9113 89.2707 31.8084 89.9563L31.6994 90.0326C31.5739 89.629 31.4439 89.2099 31.3094 88.7754C31.1266 88.1863 30.9521 87.6163 30.7884 87.0926L30.6521 86.6426L30.9112 87.0326C31.4808 87.8882 32.143 88.6785 32.8857 89.389C33.1584 89.6617 33.3903 89.8554 33.5484 89.9917C33.6321 90.0594 33.7097 90.1342 33.7803 90.2154Z" fill="#263238"/>
<g opacity="0.3">
<path d="M43.7758 83.3481C43.814 83.0754 44.2504 83.0754 44.4004 83.3127C44.5129 83.5583 44.5444 83.8334 44.4904 84.0981C44.3976 85.669 45.3767 87.0981 46.3994 88.2899C47.4222 89.4818 48.554 90.7063 48.8813 92.2445C48.0631 91.3036 47.1031 90.5099 46.2058 89.6508C45.3085 88.7918 44.4631 87.8399 43.9749 86.6972C43.4867 85.5545 43.394 84.1881 43.9749 83.0945" fill="black"/>
</g>
<g opacity="0.3">
<path d="M43.6367 108.559C44.8913 108.605 46.1867 108.48 47.3022 107.902C48.4176 107.323 49.3204 106.23 49.4022 104.978L48.4613 105.019C47.2555 106.593 45.621 107.785 43.754 108.453" fill="black"/>
</g>
<path d="M45.6791 44.4163C45.6791 44.4163 38.8609 45.4744 37.4046 46.0526C35.9482 46.6308 29.9809 49.7181 29.0428 52.6581C29.0428 52.6581 28.5764 55.9717 30.0409 60.049C30.5728 61.5353 34.901 66.5644 35.9291 67.1399C36.9573 67.7153 52.02 65.0399 52.02 65.0399C52.9255 63.8126 55.53 59.5472 55.5082 56.3508C55.481 52.339 54.0437 47.8281 54.0437 47.8281L45.6791 44.4163Z" fill="#632CA9"/>
<path d="M50.9292 37.489C50.7819 37.4645 48.971 37.489 47.5938 40.6063C46.7491 42.5082 45.7731 44.349 44.6729 46.1154L54.0819 48.2972C54.0819 48.2972 53.5556 43.2136 53.0347 41.4381C52.5138 39.6626 51.9819 37.6608 50.9292 37.489Z" fill="#632CA9"/>
<g opacity="0.6">
<path d="M48.0221 56.8362C44.9812 55.6443 41.4767 56.1734 38.5121 57.5207C36.8567 58.2707 35.2394 59.3562 34.4921 61.0171C33.284 63.7443 34.9258 66.9707 37.2194 68.858C39.513 70.7453 42.4012 71.768 44.8885 73.4098C47.3758 75.0516 49.5767 77.7216 49.2521 80.6807L49.3994 86.7625C49.6449 86.3071 53.6921 78.7553 53.9594 76.2734C54.1912 74.0916 52.4976 66.9871 51.9958 64.9443C52.214 64.6716 52.5576 64.1016 52.9667 63.5616C53.0131 60.6134 50.8094 57.9325 48.0221 56.8362Z" fill="white"/>
</g>
<path d="M44.8749 55.669C44.8939 55.6008 44.8979 55.5292 44.8865 55.4593C44.8751 55.3895 44.8486 55.3229 44.8089 55.2642C44.7692 55.2056 44.7172 55.1563 44.6566 55.1198C44.5959 55.0832 44.528 55.0603 44.4576 55.0526C43.6851 54.9561 42.9007 55.0642 42.1831 55.3663C42.1022 55.3893 42.0272 55.4295 41.9632 55.4841C41.8992 55.5386 41.8477 55.6064 41.8122 55.6826C41.7967 55.7682 41.8025 55.8562 41.8292 55.939C41.8558 56.0218 41.9024 56.0967 41.9649 56.1572C42.1487 56.3782 42.3852 56.5493 42.6526 56.6547C42.92 56.7601 43.2097 56.7964 43.4948 56.7603C43.78 56.7241 44.0514 56.6167 44.2841 56.4479C44.5167 56.279 44.703 56.0543 44.8258 55.7944C44.845 55.7538 44.8614 55.7119 44.8749 55.669Z" fill="#263238"/>
<path d="M45.1146 59.0618C45.0182 59.1959 44.8964 59.3098 44.756 59.3968C44.6156 59.4839 44.4594 59.5424 44.2964 59.569C44.1389 59.6198 43.9728 59.6385 43.8079 59.624C43.643 59.6095 43.4827 59.562 43.3364 59.4845C43.6465 59.4995 43.9573 59.4821 44.2637 59.4327C44.5593 59.3385 44.8444 59.2142 45.1146 59.0618Z" fill="#263238"/>
<path d="M29.2149 53.28C29.2149 53.28 26.0049 42.1554 27.374 41.2172C28.7431 40.279 30.0031 41.389 30.0031 41.389L37.0913 46.7672L29.2149 53.28Z" fill="#632CA9"/>
<g opacity="0.6">
<path d="M30.1009 51.0326C31.3126 49.354 32.919 47.9996 34.7782 47.0889L29.91 43.2707C29.8123 43.1688 29.6937 43.0893 29.5623 43.0375C29.431 42.9857 29.29 42.9629 29.1491 42.9707C29.022 43.0152 28.909 43.0927 28.8217 43.1952C28.7345 43.2978 28.6762 43.4218 28.6527 43.5544C28.4727 44.228 28.6527 45.3216 28.7945 46.0089C29.1872 47.8062 29.6127 49.5298 30.1009 51.0435" fill="white"/>
</g>
<g opacity="0.6">
<path d="M52.4703 46.8435C50.74 45.8526 48.7932 45.3011 46.8003 45.2372C47.7203 43.4753 48.6385 41.7135 49.5548 39.9517C49.6803 39.709 49.8412 39.4417 50.1003 39.3872C50.2291 39.3757 50.3586 39.3987 50.4755 39.4538C50.5925 39.5089 50.6927 39.5942 50.7657 39.7008C51.1939 40.2217 51.4721 41.2499 51.6139 41.9099C51.9821 43.6417 52.2985 45.319 52.4648 46.8435" fill="white"/>
</g>
<path d="M53.3921 62.708C53.375 62.7652 53.3531 62.8209 53.3266 62.8744C53.2721 62.9944 53.2011 63.1471 53.1111 63.3407C52.8316 63.9068 52.4914 64.4408 52.0966 64.9335C51.4952 65.6574 50.7611 66.26 49.9339 66.7089C49.6993 66.8289 49.4511 66.9435 49.1948 67.0471C48.9276 67.1538 48.6544 67.2449 48.3766 67.3198C48.0935 67.3936 47.8067 67.4527 47.5175 67.4971C47.2171 67.537 46.9149 67.5616 46.6121 67.5707C46.0747 67.5869 45.5371 67.5457 45.0084 67.448L45.0493 67.3144C45.798 67.6349 46.4743 68.1034 47.0375 68.6916L47.1384 68.798H46.9911C45.8299 68.804 44.6756 68.6197 43.5739 68.2526C43.2643 68.1502 42.9602 68.0319 42.663 67.898C42.5593 67.8516 42.4802 67.8107 42.4284 67.7862C42.4011 67.7741 42.3754 67.7585 42.3521 67.7398C42.4627 67.774 42.571 67.815 42.6766 67.8626C42.8866 67.9444 43.1975 68.0589 43.5957 68.1816C44.6954 68.5187 45.8411 68.6816 46.9911 68.6644L46.9448 68.7707C46.3912 68.1995 45.7279 67.7459 44.9948 67.4371L44.3866 67.1807L45.0357 67.3035C45.5546 67.3981 46.0821 67.4374 46.6093 67.4207C46.9093 67.4207 47.2066 67.3798 47.4957 67.3498C47.7806 67.308 48.0629 67.2497 48.3411 67.1753C48.6112 67.1069 48.877 67.0231 49.1375 66.9244C49.3884 66.8235 49.6339 66.7116 49.8657 66.5944C50.6817 66.1578 51.4096 65.5733 52.0121 64.8707C52.4089 64.3885 52.7579 63.8688 53.0539 63.3189C53.1521 63.1335 53.2311 62.9835 53.2911 62.8662C53.3197 62.8104 53.3534 62.7574 53.3921 62.708Z" fill="#263238"/>
<path d="M49.2847 79.8545C49.3098 79.9582 49.3244 80.0642 49.3282 80.1709C49.3472 80.3754 49.3663 80.6727 49.3881 81.0381C49.4289 81.7718 49.4643 82.7836 49.4806 83.9018C49.4969 85.02 49.4806 86.0318 49.4806 86.7654C49.4806 87.1309 49.4588 87.4281 49.4452 87.6327C49.4462 87.7401 49.4343 87.8472 49.4098 87.9518C49.3903 87.8466 49.383 87.7395 49.3881 87.6327C49.3881 87.3981 49.3881 87.1063 49.3881 86.7654C49.3881 85.999 49.369 85.0036 49.3581 83.9018C49.3472 82.8 49.32 81.8072 49.3064 81.0436C49.3064 80.7 49.3064 80.4109 49.2901 80.1736C49.2758 80.0678 49.274 79.9607 49.2847 79.8545Z" fill="#263238"/>
<path d="M38.8966 55.0281C38.8966 55.2721 38.8242 55.5105 38.6887 55.7133C38.5531 55.9161 38.3604 56.0741 38.135 56.1673C37.9096 56.2605 37.6616 56.2848 37.4224 56.237C37.1832 56.1892 36.9635 56.0715 36.7912 55.8988C36.619 55.7262 36.5018 55.5063 36.4545 55.267C36.4073 55.0277 36.4321 54.7797 36.5258 54.5545C36.6195 54.3293 36.7779 54.137 36.981 54.0018C37.1841 53.8667 37.4227 53.7949 37.6666 53.7954C37.9931 53.7961 38.3059 53.9263 38.5365 54.1574C38.7671 54.3885 38.8966 54.7017 38.8966 55.0281Z" fill="#263238"/>
<path d="M49.3175 53.1436C49.318 53.3875 49.2462 53.6261 49.1111 53.8292C48.976 54.0323 48.7836 54.1907 48.5584 54.2844C48.3332 54.3781 48.0853 54.4029 47.846 54.3557C47.6067 54.3084 47.3867 54.1912 47.2141 54.0189C47.0414 53.8466 46.9237 53.627 46.8759 53.3878C46.8282 53.1486 46.8524 52.9006 46.9456 52.6752C47.0388 52.4498 47.1968 52.2571 47.3996 52.1215C47.6024 51.9859 47.8408 51.9136 48.0848 51.9136C48.4112 51.9136 48.7244 52.0431 48.9555 52.2737C49.1866 52.5043 49.3168 52.8171 49.3175 53.1436Z" fill="#263238"/>
<path d="M47.2774 55.9827C47.2906 56.1241 47.2814 56.2668 47.2501 56.4054C47.1919 56.79 47.0614 57.1602 46.8656 57.4963C46.8005 57.6114 46.7187 57.7162 46.6228 57.8072C46.515 57.9006 46.3948 57.9786 46.2656 58.039C45.9739 58.1751 45.6412 58.1946 45.3356 58.0936C45.172 58.0461 45.0173 57.9724 44.8774 57.8754C44.73 57.7828 44.5888 57.6808 44.4547 57.5699C44.1715 57.3374 43.9161 57.073 43.6938 56.7818L43.8192 56.7572L43.7974 56.8308C43.7093 57.1827 43.5498 57.5126 43.3289 57.8003C43.1079 58.0879 42.8301 58.3269 42.5128 58.5027C42.2265 58.6502 41.903 58.71 41.5828 58.6745C41.3094 58.6419 41.0466 58.5487 40.8137 58.4018C40.4839 58.1816 40.2132 57.8838 40.0256 57.5345C39.9762 57.4408 39.9325 57.3443 39.8947 57.2454C39.8701 57.1772 39.8592 57.139 39.8647 57.139C39.8701 57.139 39.9328 57.2754 40.0747 57.5072C40.2704 57.8391 40.5425 58.1196 40.8683 58.3254C41.0886 58.4641 41.3376 58.5508 41.5965 58.579C41.8923 58.6065 42.1897 58.5478 42.4528 58.4099C42.7513 58.2391 43.0122 58.0097 43.2198 57.7355C43.4274 57.4614 43.5775 57.1481 43.661 56.8145L43.6801 56.7436L43.721 56.6072L43.8056 56.719C44.0227 56.9994 44.2696 57.2555 44.5419 57.4827C44.6711 57.5909 44.8068 57.6911 44.9483 57.7827C45.0766 57.8749 45.2195 57.9449 45.371 57.9899C45.6306 58.0754 45.9115 58.0701 46.1677 57.975C46.4239 57.8799 46.6402 57.7005 46.781 57.4663C46.977 57.1439 47.1172 56.7908 47.1956 56.4218C47.2556 56.1327 47.2665 55.9827 47.2774 55.9827Z" fill="#263238"/>
<g opacity="0.6">
<path d="M41.8639 45.0598L40.1348 45.3871C40.2563 46.1077 40.5106 46.7994 40.8848 47.4271C41.0157 47.648 41.2148 47.888 41.4711 47.8689C41.5463 47.8596 41.6183 47.8328 41.6813 47.7906C41.7443 47.7485 41.7965 47.6921 41.8339 47.6262C41.9093 47.4942 41.9584 47.3487 41.9784 47.198C42.1028 46.4858 42.0637 45.7546 41.8639 45.0598Z" fill="white"/>
</g>
<path d="M57.7994 57.8181C57.6817 57.8075 57.5655 57.7837 57.453 57.7472L56.523 57.5154C55.7376 57.3217 54.6467 57.0844 53.4276 56.8881C52.2085 56.6917 51.0985 56.5854 50.2912 56.5254L49.3367 56.4572C49.2185 56.455 49.1008 56.4422 48.9849 56.419C49.101 56.3994 49.2191 56.393 49.3367 56.3999C49.563 56.3999 49.8821 56.3999 50.2967 56.4244C52.4104 56.5253 54.5066 56.8582 56.5476 57.4172C56.9403 57.5263 57.254 57.619 57.4694 57.6899C57.5836 57.721 57.6942 57.764 57.7994 57.8181Z" fill="#263238"/>
<path d="M58.7427 55.5873C58.6208 55.6046 58.4974 55.6092 58.3745 55.6009H57.3764C56.5309 55.6009 55.3663 55.6009 54.0791 55.6254C52.7918 55.65 51.6245 55.7263 50.7845 55.7782L49.7891 55.8409C49.6666 55.8517 49.5434 55.8517 49.4209 55.8409C49.539 55.8062 49.6607 55.7851 49.7836 55.7782C50.0182 55.7482 50.3564 55.71 50.7791 55.6691C51.6191 55.59 52.7864 55.5109 54.0764 55.4754C55.3664 55.44 56.5309 55.4591 57.3791 55.4945C57.7991 55.5109 58.1427 55.53 58.3773 55.5491C58.5 55.55 58.6224 55.5628 58.7427 55.5873Z" fill="#263238"/>
<path d="M58.6366 61.0008C58.5142 60.9493 58.3965 60.8872 58.2848 60.8154C58.0639 60.6845 57.7394 60.5017 57.3412 60.2699C56.2989 59.6945 55.2265 59.1756 54.1284 58.7154C53.0269 58.2669 51.9026 57.8763 50.7603 57.5454C50.3239 57.4172 49.9666 57.319 49.7184 57.2508C49.5888 57.2233 49.4619 57.1841 49.3394 57.1335C49.4721 57.142 49.6037 57.1639 49.7321 57.199C49.983 57.2481 50.3457 57.3326 50.7875 57.4499C53.1011 58.0666 55.3211 58.9922 57.3875 60.2017C57.783 60.4335 58.0994 60.6326 58.3094 60.7745C58.4251 60.8398 58.5347 60.9155 58.6366 61.0008Z" fill="#263238"/>
<path d="M37.1267 59.4216C37.0341 59.4986 36.9336 59.5654 36.8267 59.6207L36.0003 60.1307C35.2912 60.5589 34.3203 61.1644 33.273 61.8734C32.2257 62.5825 31.3039 63.2616 30.6439 63.7607L29.8476 64.3634C29.7559 64.4418 29.6562 64.5103 29.5503 64.568C29.6323 64.476 29.7237 64.3928 29.823 64.3198C29.9976 64.1671 30.2567 63.9516 30.5785 63.6898C31.2248 63.1689 32.1412 62.4762 33.1912 61.7644C34.2412 61.0525 35.223 60.458 35.9457 60.0516C36.3085 59.8471 36.603 59.6862 36.8103 59.5825C36.9106 59.5193 37.0165 59.4654 37.1267 59.4216Z" fill="#263238"/>
<path d="M36.933 58.459C36.898 58.486 36.8595 58.508 36.8184 58.5244L36.4775 58.6853L35.2203 59.2553C34.1594 59.7381 32.6948 60.4144 31.0966 61.1917C29.4984 61.969 28.0612 62.7026 27.0248 63.2372L25.7975 63.8726L25.4621 64.0417C25.4237 64.0639 25.3824 64.0804 25.3394 64.0908C25.3723 64.0615 25.409 64.0368 25.4484 64.0172L25.7703 63.8235C26.043 63.6599 26.4657 63.4281 26.9784 63.1499C28.0012 62.5908 29.433 61.8435 31.0339 61.0635C32.6348 60.2835 34.1075 59.6235 35.1794 59.1544C35.7248 58.9226 36.153 58.7426 36.4557 58.6226L36.8048 58.4863C36.8458 58.4703 36.8891 58.4611 36.933 58.459Z" fill="#263238"/>
<path d="M35.4192 58.0527C35.2778 58.1082 35.1318 58.1511 34.9829 58.1809C34.7102 58.2518 34.2929 58.3582 33.7911 58.4946C32.7874 58.7673 31.4074 59.1846 29.9211 59.7382C28.4347 60.2918 27.1174 60.8836 26.1792 61.3336C25.7102 61.56 25.3311 61.7482 25.072 61.8791C24.9399 61.9527 24.8022 62.0156 24.6602 62.0673C24.7825 61.9777 24.9121 61.8984 25.0474 61.83C25.2983 61.6827 25.6692 61.4836 26.1383 61.2436C28.5694 60.0129 31.1309 59.0588 33.7747 58.3991C34.282 58.2736 34.6938 58.1809 34.9802 58.1264C35.1247 58.0921 35.2714 58.0675 35.4192 58.0527Z" fill="#263238"/>
<path d="M50.0509 41.7C50.081 41.7882 50.1002 41.8798 50.1082 41.9727C50.1328 42.1609 50.16 42.4309 50.1764 42.769C50.2178 43.6616 50.1537 44.556 49.9855 45.4336L49.95 45.6218L49.8546 45.4527C49.7946 45.349 49.7319 45.2345 49.6664 45.1227L48.6928 43.3909L48.8073 43.3745C48.6863 43.8753 48.6159 44.3869 48.5973 44.9018C48.5837 45.2754 48.5973 45.4909 48.5782 45.4936C48.5616 45.4434 48.5524 45.391 48.5509 45.3381C48.5335 45.1933 48.5244 45.0476 48.5237 44.9018C48.5159 44.3789 48.5709 43.857 48.6873 43.3472L48.7228 43.1918L48.8019 43.3309L49.7891 45.0518L49.9773 45.3845L49.8464 45.4063C50.0124 44.5382 50.091 43.6556 50.0809 42.7718C50.0728 42.1118 50.0291 41.7027 50.0509 41.7Z" fill="#263238"/>
<path d="M32.1822 47.7845C31.8386 47.268 31.4439 46.7874 31.0041 46.3499L31.1104 46.3118C31.0613 46.7754 31.0041 47.2936 30.9441 47.8472C30.9441 47.9209 30.9277 47.9945 30.9195 48.0627L30.8922 48.319L30.7859 48.0845C30.4177 47.2663 30.0932 46.5409 29.8668 46.0118C29.7327 45.7321 29.6188 45.4431 29.5259 45.1472C29.6908 45.4082 29.8349 45.6818 29.9568 45.9654C30.205 46.4836 30.5432 47.209 30.9141 48.0218L30.7804 48.0436L30.805 47.8254C30.8677 47.2799 30.9304 46.7536 30.985 46.2927V46.1645L31.0777 46.2545C31.4041 46.5723 31.6907 46.9285 31.9313 47.3154C32.038 47.4583 32.1226 47.6164 32.1822 47.7845Z" fill="#263238"/>
<path d="M59.7274 17.651C59.1973 16.4596 58.3137 15.4599 57.1965 14.7874C56.1277 14.0857 54.8656 13.7375 53.5883 13.7919C52.5095 13.8663 51.485 14.2931 50.6724 15.0066C49.8599 15.7201 49.3042 16.6809 49.091 17.741C48.3359 17.0168 47.3697 16.5518 46.3326 16.4135C45.2955 16.2753 44.2413 16.4708 43.3228 16.9719C42.2153 17.6097 41.3358 18.5788 40.8083 19.7428C40.2238 20.909 40.0124 22.2269 40.2028 23.5174C40.4698 25.1536 41.2546 26.6611 42.4419 27.8183C43.6992 28.9828 45.3983 29.7274 47.0537 30.1637C49.8355 30.9055 53.471 31.7865 53.471 31.7865C53.471 31.7865 55.5355 29.0592 57.491 26.9374C58.6555 25.6801 59.6946 24.1446 60.131 22.4892C60.519 20.8749 60.3775 19.1787 59.7274 17.651Z" fill="#632CA9"/>
<path d="M86.2365 28.7429C86.4382 28.0993 86.4382 27.4093 86.2365 26.7657C86.0626 26.1227 85.6916 25.5504 85.1756 25.1293C84.897 24.9186 84.5788 24.766 84.2401 24.6808C83.9013 24.5955 83.5489 24.5792 83.2037 24.6329C82.7928 24.7009 82.4044 24.8675 82.0719 25.1184C82.0399 24.7414 81.9244 24.3762 81.7337 24.0493C81.5562 23.7482 81.3198 23.4861 81.0387 23.2785C80.7575 23.0709 80.4373 22.9221 80.0974 22.8411C79.4488 22.71 78.7755 22.7853 78.1719 23.0566C77.5459 23.309 77.0127 23.748 76.6446 24.3139C76.1834 25.0453 75.9719 25.9065 76.0419 26.7684C76.1657 27.6653 76.5034 28.5194 77.0265 29.2584C77.8446 30.4993 78.9628 32.0893 78.9628 32.0893C78.9628 32.0893 80.7028 31.7348 82.1865 31.5848C83.0888 31.5197 83.9623 31.2391 84.7337 30.7666C85.4404 30.2724 85.9677 29.5623 86.2365 28.7429Z" fill="#632CA9"/>
</g>
<defs>
<clipPath id="clip0_11_845">
<rect width="129.273" height="111" fill="white"/>
</clipPath>
</defs>
</svg>
